<?xml version="1.0" encoding="utf-8"?>
<!-- Generator: Adobe Illustrator 21.1.0, SVG Export Plug-In . SVG Version: 6.00 Build 0)  -->
<svg version="1.1" xmlns="http://www.w3.org/2000/svg" xmlns:xlink="http://www.w3.org/1999/xlink" x="0px" y="0px"
	 viewBox="0 0 500 500" style="enable-background:new 0 0 500 500;" xml:space="preserve">
<style type="text/css">
	.st0{fill:#F0E4D7;}
	.st1{display:none;}
	.st2{display:inline;}
</style>
<g id="Layer_1">
	<g>
		<g>
			<g>
				<path class="st0" d="M53.3,202.3c-1.8,0.2-3.4-1.1-3.6-2.9c-0.2-1.8,1.1-3.4,2.8-3.6l0.1,0c1.8-0.2,3.4,1.1,3.6,2.9
					S55.1,202.1,53.3,202.3z"/>
			</g>
		</g>
		<g>
			<g>
				<path class="st0" d="M394.3,166.6c-1.8,0.2-3.4-1.1-3.6-2.9c-0.2-1.8,1.1-3.4,2.8-3.6l0.1,0c1.8-0.2,3.4,1.1,3.6,2.9
					C397.4,164.8,396.1,166.4,394.3,166.6z"/>
			</g>
		</g>
		<g>
			<g>
				<path class="st0" d="M430.6,390.4L63.9,428.9c-1.8,0.2-3.4-1.1-3.6-2.9l-25-238c-0.2-1.8,1.1-3.4,2.9-3.6L405,146
					c1.8-0.2,3.4,1.1,3.6,2.9l25,238C433.6,388.6,432.4,390.2,430.6,390.4z M66.4,422.1l360.3-37.8l-24.3-231.6L42.1,190.5
					L66.4,422.1z"/>
			</g>
		</g>
		<g>
			<g>
				<path class="st0" d="M465.1,347.8c-1.8,0.2-3.4-1.1-3.6-2.9l-25-238c-0.2-1.8,1.1-3.4,2.9-3.6c1.8-0.2,3.4,1.1,3.6,2.9l25,238
					C468.2,346,466.9,347.6,465.1,347.8z"/>
			</g>
		</g>
		<g>
			<g>
				<path class="st0" d="M430.6,390.4c-0.8,0.1-1.7-0.1-2.4-0.7c-1.4-1.1-1.6-3.2-0.5-4.5l34.6-42.6c1.1-1.4,3.2-1.6,4.5-0.5
					c1.4,1.1,1.6,3.2,0.5,4.5l-34.6,42.6C432.2,389.9,431.4,390.3,430.6,390.4z"/>
			</g>
		</g>
		<g>
			<g>
				<path class="st0" d="M38.9,190.8c-0.8,0.1-1.7-0.1-2.4-0.7c-1.4-1.1-1.6-3.2-0.5-4.5l34.6-42.6c1.1-1.4,3.2-1.6,4.5-0.5
					c1.4,1.1,1.6,3.2,0.5,4.5l-34.6,42.6C40.5,190.3,39.7,190.7,38.9,190.8z"/>
			</g>
		</g>
		<g>
			<g>
				<path class="st0" d="M405.6,152.4c-0.8,0.1-1.7-0.1-2.4-0.7c-1.4-1.1-1.6-3.2-0.5-4.5l34.6-42.6c1.1-1.4,3.2-1.6,4.5-0.5
					c1.4,1.1,1.6,3.2,0.5,4.5l-34.6,42.6C407.2,151.9,406.4,152.3,405.6,152.4z"/>
			</g>
		</g>
		<g>
			<g>
				<path class="st0" d="M127.6,168.5l-57.9,6.1c-1.3,0.1-2.6-0.5-3.2-1.7c-0.6-1.2-0.5-2.6,0.3-3.6l11.5-14.2
					c0.5-0.7,1.3-1.1,2.2-1.2l57.9-6.1c1.3-0.1,2.6,0.5,3.2,1.7c0.6,1.2,0.5,2.6-0.3,3.6l-11.5,14.2
					C129.3,168,128.5,168.4,127.6,168.5z M76.8,167.3l48.8-5.1l5.8-7.1l-48.8,5.1L76.8,167.3z"/>
			</g>
		</g>
		<g>
			<g>
				<path class="st0" d="M391.4,140.9l-57.9,6.1c-1.3,0.1-2.6-0.5-3.2-1.7c-0.6-1.2-0.5-2.6,0.3-3.6l11.5-14.2
					c0.5-0.7,1.3-1.1,2.2-1.2l57.9-6.1c1.3-0.1,2.6,0.5,3.2,1.7c0.6,1.2,0.5,2.6-0.3,3.6l-11.5,14.2
					C393,140.4,392.3,140.8,391.4,140.9z M340.6,139.7l48.8-5.1l5.8-7.1l-48.8,5.1L340.6,139.7z"/>
			</g>
		</g>
		<g>
			<g>
				<path class="st0" d="M150.7,140.1l-77.2,8.1c-1.8,0.2-3.4-1.1-3.6-2.9c-0.2-1.8,1.1-3.4,2.9-3.6l77.2-8.1
					c1.8-0.2,3.4,1.1,3.6,2.9C153.7,138.3,152.5,139.9,150.7,140.1z"/>
			</g>
		</g>
		<g>
			<g>
				<path class="st0" d="M440.2,109.7l-115.8,12.1c-1.8,0.2-3.4-1.1-3.6-2.9c-0.2-1.8,1.1-3.4,2.9-3.6l115.8-12.1
					c1.8-0.2,3.4,1.1,3.6,2.9S442,109.6,440.2,109.7z"/>
			</g>
		</g>
		<g>
			<g>
				<g>
					<path class="st0" d="M172,157.4c-1.8,0.2-3.4-1.1-3.6-2.9l-1.3-12.9c-0.2-1.8,1.1-3.4,2.9-3.6c1.8-0.2,3.4,1.1,3.6,2.9
						l1.3,12.9C175.1,155.6,173.8,157.2,172,157.4z"/>
				</g>
			</g>
			<g>
				<g>
					<path class="st0" d="M184.9,156c-1.8,0.2-3.4-1.1-3.6-2.9l-1.3-12.9c-0.2-1.8,1.1-3.4,2.9-3.6c1.8-0.2,3.4,1.1,3.6,2.9
						l1.3,12.9C187.9,154.2,186.6,155.8,184.9,156z"/>
				</g>
			</g>
			<g>
				<g>
					<path class="st0" d="M294.2,144.5c-1.8,0.2-3.4-1.1-3.6-2.9l-1.3-12.9c-0.2-1.8,1.1-3.4,2.9-3.6c1.8-0.2,3.4,1.1,3.6,2.9
						l1.3,12.9C297.3,142.8,296,144.4,294.2,144.5z"/>
				</g>
			</g>
			<g>
				<g>
					<path class="st0" d="M307.1,143.2c-1.8,0.2-3.4-1.1-3.6-2.9l-1.3-12.9c-0.2-1.8,1.1-3.4,2.9-3.6c1.8-0.2,3.4,1.1,3.6,2.9
						l1.3,12.9C310.2,141.4,308.9,143,307.1,143.2z"/>
				</g>
			</g>
			<g>
				<g>
					<path class="st0" d="M304.4,117.5l-135.1,14.2c-1.8,0.2-3.4-1.1-3.6-2.9c-0.2-1.8,1.1-3.4,2.9-3.6L303.7,111
						c1.8-0.2,3.4,1.1,3.6,2.9S306.2,117.3,304.4,117.5z"/>
				</g>
			</g>
			<g>
				<g>
					<path class="st0" d="M303,104.6c-0.5,0.1-1,0-1.5-0.2c-0.3-0.1-27-9.8-67.4-5.6c-40.5,4.2-64.6,19.3-64.8,19.5
						c-1.5,1-3.5,0.5-4.5-1c-1-1.5-0.5-3.5,1-4.5c1-0.7,25.5-16,67.6-20.4c42.1-4.4,69.2,5.5,70.4,6c1.7,0.6,2.5,2.5,1.9,4.2
						C305.3,103.7,304.2,104.5,303,104.6z"/>
				</g>
			</g>
			<g>
				<g>
					<path class="st0" d="M169.3,131.6c-1.8,0.2-3.4-1.1-3.6-2.9l-1.3-12.9c-0.2-1.8,1.1-3.4,2.9-3.6c1.8-0.2,3.4,1.1,3.6,2.9
						l1.3,12.9C172.4,129.9,171.1,131.4,169.3,131.6z"/>
				</g>
			</g>
			<g>
				<g>
					<path class="st0" d="M304.4,117.5c-1.8,0.2-3.4-1.1-3.6-2.9l-1.3-12.9c-0.2-1.8,1.1-3.4,2.9-3.6c1.8-0.2,3.4,1.1,3.6,2.9
						l1.3,12.9C307.5,115.7,306.2,117.3,304.4,117.5z"/>
				</g>
			</g>
		</g>
		<g>
			<g>
				<path class="st0" d="M396.8,192.3c-0.8,0.1-1.7-0.1-2.4-0.7l-28.4-23c-1.4-1.1-1.6-3.2-0.5-4.5c1.1-1.4,3.2-1.6,4.5-0.5l28.4,23
					c1.4,1.1,1.6,3.2,0.5,4.5C398.4,191.8,397.6,192.2,396.8,192.3z"/>
			</g>
		</g>
		<g>
			<g>
				<path class="st0" d="M55.8,228.1c-0.8,0.1-1.7-0.1-2.4-0.7c-1.4-1.1-1.6-3.2-0.5-4.5l23-28.4c1.1-1.4,3.2-1.6,4.5-0.5
					c1.4,1.1,1.6,3.2,0.5,4.5l-23,28.4C57.4,227.6,56.7,228,55.8,228.1z"/>
			</g>
		</g>
		<g>
			<g>
				<path class="st0" d="M75.6,414.6c-1.8,0.2-3.4-1.1-3.6-2.9c-0.2-1.8,1.1-3.4,2.8-3.6l0.1,0c1.8-0.2,3.4,1.1,3.6,2.9
					C78.6,412.9,77.4,414.4,75.6,414.6z"/>
			</g>
		</g>
		<g>
			<g>
				<path class="st0" d="M416.6,378.9c-1.8,0.2-3.4-1.1-3.6-2.9s1.1-3.4,2.8-3.6l0.1,0c1.8-0.2,3.4,1.1,3.6,2.9
					C419.6,377.1,418.3,378.7,416.6,378.9z"/>
			</g>
		</g>
		<g>
			<g>
				<path class="st0" d="M390.6,381.6c-0.8,0.1-1.7-0.1-2.4-0.7c-1.4-1.1-1.6-3.2-0.5-4.5l23-28.4c1.1-1.4,3.2-1.6,4.5-0.5
					c1.4,1.1,1.6,3.2,0.5,4.5l-23,28.4C392.2,381.1,391.4,381.5,390.6,381.6z"/>
			</g>
		</g>
		<g>
			<g>
				<path class="st0" d="M101.1,411.9c-0.8,0.1-1.7-0.1-2.4-0.7l-28.4-23c-1.4-1.1-1.6-3.2-0.5-4.5s3.2-1.6,4.5-0.5l28.4,23
					c1.4,1.1,1.6,3.2,0.5,4.5C102.7,411.5,101.9,411.9,101.1,411.9z"/>
			</g>
		</g>
		<g>
			<g>
				<path class="st0" d="M89,172.6c-0.8,0.1-1.7-0.1-2.4-0.7c-1.4-1.1-1.6-3.2-0.5-4.5l11.5-14.2c1.1-1.4,3.2-1.6,4.5-0.5
					c1.4,1.1,1.6,3.2,0.5,4.5l-11.5,14.2C90.6,172.1,89.9,172.5,89,172.6z"/>
			</g>
		</g>
		<g>
			<g>
				<path class="st0" d="M108.3,170.5c-0.8,0.1-1.7-0.1-2.4-0.7c-1.4-1.1-1.6-3.2-0.5-4.5l11.5-14.2c1.1-1.4,3.2-1.6,4.5-0.5
					c1.4,1.1,1.6,3.2,0.5,4.5l-11.5,14.2C109.9,170.1,109.2,170.5,108.3,170.5z"/>
			</g>
		</g>
		<g>
			<g>
				<path class="st0" d="M352.8,144.9c-0.8,0.1-1.7-0.1-2.4-0.7c-1.4-1.1-1.6-3.2-0.5-4.5l11.5-14.2c1.1-1.4,3.2-1.6,4.5-0.5
					c1.4,1.1,1.6,3.2,0.5,4.5L355,143.7C354.4,144.4,353.6,144.8,352.8,144.9z"/>
			</g>
		</g>
		<g>
			<g>
				<path class="st0" d="M372.1,142.9c-0.8,0.1-1.7-0.1-2.4-0.7c-1.4-1.1-1.6-3.2-0.5-4.5l11.5-14.2c1.1-1.4,3.2-1.6,4.5-0.5
					c1.4,1.1,1.6,3.2,0.5,4.5l-11.5,14.2C373.7,142.4,372.9,142.8,372.1,142.9z"/>
			</g>
		</g>
		<g>
			<g>
				<path class="st0" d="M445.8,349.8c-1.8,0.2-3.4-1.1-3.6-2.9l-20.9-199.4c-0.2-1.8,1.1-3.4,2.9-3.6c1.8-0.2,3.4,1.1,3.6,2.9
					l20.9,199.4C448.9,348,447.6,349.6,445.8,349.8z"/>
			</g>
		</g>
		<g>
			<g>
				<g>
					<path class="st0" d="M128.4,331c-12,1.3-23.8-2.2-33.2-9.9c-9.4-7.6-15.3-18.4-16.5-30.5c-1.3-12,2.2-23.8,9.9-33.2
						c7.6-9.4,18.4-15.3,30.5-16.5c12-1.3,23.8,2.2,33.2,9.9c9.4,7.6,15.3,18.4,16.5,30.5c1.3,12-2.2,23.8-9.9,33.2
						C151.3,323.9,140.4,329.8,128.4,331z M119.6,247.4c-10.3,1.1-19.6,6.1-26.1,14.2c-6.5,8.1-9.5,18.2-8.4,28.5
						c1.1,10.3,6.1,19.6,14.2,26.1c8.1,6.5,18.2,9.5,28.5,8.4c10.3-1.1,19.6-6.1,26.1-14.2c6.5-8.1,9.5-18.2,8.4-28.5
						c-1.1-10.3-6.1-19.6-14.2-26.1C140.1,249.3,130,246.3,119.6,247.4z"/>
				</g>
			</g>
			<g>
				<g>
					<path class="st0" d="M113.8,301.8c-0.8,0.1-1.7-0.1-2.4-0.7c-1.4-1.1-1.6-3.2-0.5-4.5l24.4-30.2c1.1-1.4,3.2-1.6,4.5-0.5
						c1.4,1.1,1.6,3.2,0.5,4.5L116,300.6C115.5,301.3,114.7,301.7,113.8,301.8z"/>
				</g>
			</g>
			<g>
				<g>
					<path class="st0" d="M114.8,310.9c-1.8,0.2-3.4-1.1-3.6-2.9l-1-9.1c-0.2-1.8,1.1-3.4,2.9-3.6c1.8-0.2,3.4,1.1,3.6,2.9l1,9.1
						C117.9,309.1,116.6,310.7,114.8,310.9z"/>
				</g>
			</g>
			<g>
				<g>
					<path class="st0" d="M113.8,301.8l-9.1,1c-1.8,0.2-3.4-1.1-3.6-2.9c-0.2-1.8,1.1-3.4,2.9-3.6l9.1-1c1.8-0.2,3.4,1.1,3.6,2.9
						S115.6,301.6,113.8,301.8z"/>
				</g>
			</g>
			<g>
				<g>
					<path class="st0" d="M133,309c-1.8,0.2-3.4-1.1-3.6-2.9l-2.9-27.3c-0.2-1.8,1.1-3.4,2.9-3.6c1.8-0.2,3.4,1.1,3.6,2.9l2.9,27.3
						C136.1,307.2,134.8,308.8,133,309z"/>
				</g>
			</g>
			<g>
				<g>
					<path class="st0" d="M130.1,281.7l-27.3,2.9c-1.8,0.2-3.4-1.1-3.6-2.9c-0.2-1.8,1.1-3.4,2.9-3.6l27.3-2.9
						c1.8-0.2,3.4,1.1,3.6,2.9C133.2,279.9,131.9,281.5,130.1,281.7z"/>
				</g>
			</g>
		</g>
		<g>
			<g>
				<g>
					<path class="st0" d="M374.8,292.2l-64.3,6.7c-1.8,0.2-3.4-1.1-3.6-2.9l-10.1-96.5c-0.2-1.8,1.1-3.4,2.9-3.6l64.3-6.7
						c1.8-0.2,3.4,1.1,3.6,2.9l10.1,96.5C377.8,290.4,376.5,292,374.8,292.2z M313,292.2l57.9-6.1l-9.4-90.1l-57.9,6.1L313,292.2z"
						/>
				</g>
			</g>
			<g>
				<g>
					<path class="st0" d="M359.9,274.3c-0.8,0.1-1.7-0.1-2.4-0.7l-4.6-3.7l-3.7,4.6c-1.1,1.4-3.2,1.6-4.5,0.5l-4.6-3.7l-3.7,4.6
						c-1.1,1.4-3.2,1.6-4.5,0.5l-4.6-3.7l-3.7,4.6c-1.1,1.4-3.2,1.6-4.5,0.5c-1.4-1.1-1.6-3.2-0.5-4.5l5.8-7.1
						c1.1-1.4,3.2-1.6,4.5-0.5l4.6,3.7l3.7-4.6c1.1-1.4,3.2-1.6,4.5-0.5l4.6,3.7l3.7-4.6c1.1-1.4,3.2-1.6,4.5-0.5l7.1,5.8
						c1.4,1.1,1.6,3.2,0.5,4.5C361.5,273.8,360.7,274.2,359.9,274.3z"/>
				</g>
			</g>
			<g>
				<g>
					<path class="st0" d="M358.5,261.4c-0.8,0.1-1.7-0.1-2.4-0.7l-4.6-3.7l-3.7,4.6c-1.1,1.4-3.2,1.6-4.5,0.5l-4.6-3.7l-3.7,4.6
						c-1.1,1.4-3.2,1.6-4.5,0.5l-4.6-3.7l-3.7,4.6c-1.1,1.4-3.2,1.6-4.5,0.5c-1.4-1.1-1.6-3.2-0.5-4.5l5.8-7.1
						c1.1-1.4,3.2-1.6,4.5-0.5l4.6,3.7l3.7-4.6c1.1-1.4,3.2-1.6,4.5-0.5l4.6,3.7l3.7-4.6c1.1-1.4,3.2-1.6,4.5-0.5l7.1,5.8
						c1.4,1.1,1.6,3.2,0.5,4.5C360.1,260.9,359.3,261.3,358.5,261.4z"/>
				</g>
			</g>
			<g>
				<g>
					<path class="st0" d="M322.3,226.2c-5.3,0.6-10.1-3.3-10.7-8.6c-0.6-5.3,3.3-10.1,8.6-10.7c5.3-0.6,10.1,3.3,10.7,8.6
						C331.5,220.8,327.6,225.6,322.3,226.2z M321,213.3c-1.8,0.2-3.1,1.8-2.9,3.6c0.2,1.8,1.8,3.1,3.6,2.9c1.8-0.2,3.1-1.8,2.9-3.6
						S322.7,213.1,321,213.3z"/>
				</g>
			</g>
			<g>
				<g>
					<path class="st0" d="M349.4,236.3c-0.8,0.1-1.7-0.1-2.4-0.7l-7.1-5.8c-1.4-1.1-1.6-3.2-0.5-4.5c1.1-1.4,3.2-1.6,4.5-0.5
						l7.1,5.8c1.4,1.1,1.6,3.2,0.5,4.5C351,235.8,350.2,236.2,349.4,236.3z"/>
				</g>
			</g>
			<g>
				<g>
					<path class="st0" d="M349.4,236.3c-0.8,0.1-1.7-0.1-2.4-0.7c-1.4-1.1-1.6-3.2-0.5-4.5l5.8-7.1c1.1-1.4,3.2-1.6,4.5-0.5
						c1.4,1.1,1.6,3.2,0.5,4.5l-5.8,7.1C351,235.8,350.2,236.2,349.4,236.3z"/>
				</g>
			</g>
		</g>
		<g>
			<g>
				<g>
					<path class="st0" d="M230.5,281.3c-0.8,0.1-1.7-0.1-2.4-0.7l-3.6-2.9l-3.9,2.4c-0.7,0.5-1.6,0.6-2.5,0.4
						c-0.8-0.2-1.6-0.7-2-1.5l-2.4-3.9l-4.5,0.9c-0.9,0.2-1.7,0-2.4-0.5c-0.7-0.5-1.2-1.2-1.4-2.1l-0.9-4.5l-4.5-0.7
						c-0.8-0.1-1.6-0.6-2.1-1.3c-0.5-0.7-0.7-1.6-0.6-2.4l0.7-4.5l-4-2.2c-0.7-0.4-1.3-1.1-1.5-1.9c-0.2-0.8-0.1-1.7,0.3-2.5l2.2-4
						l-3-3.5c-0.6-0.6-0.8-1.5-0.8-2.4c0.1-0.9,0.5-1.7,1.1-2.2l3.5-3l-1.6-4.3c-0.6-1.7,0.2-3.5,1.9-4.2l4.3-1.6l-0.1-4.6
						c0-1.8,1.4-3.3,3.2-3.3l4.6-0.1l1.5-4.3c0.6-1.7,2.4-2.6,4.1-2l4.3,1.5l2.9-3.6c1.1-1.4,3.2-1.6,4.5-0.5l3.6,2.9l4-2.4
						c1.5-0.9,3.5-0.4,4.4,1.1l2.4,3.9l4.5-0.9c1.8-0.3,3.5,0.8,3.8,2.6l0.9,4.5l4.5,0.7c1.8,0.3,3,1.9,2.7,3.7l-0.7,4.5l4,2.2
						c1.6,0.9,2.1,2.8,1.3,4.4l-2.2,4l3,3.5c1.2,1.4,1,3.4-0.3,4.6l-3.5,3l1.6,4.3c0.6,1.7-0.2,3.5-1.9,4.2l-4.3,1.6l0.1,4.6
						c0,1.8-1.3,3.3-3.2,3.3l-4.6,0.1l-1.5,4.3c-0.3,0.8-0.9,1.5-1.6,1.9c-0.8,0.4-1.7,0.4-2.5,0.1l-4.3-1.5l-2.9,3.6
						C232.1,280.8,231.3,281.2,230.5,281.3z M224.5,270.6c0.8-0.1,1.7,0.2,2.4,0.7l2.8,2.3l2.3-2.8c0.9-1.1,2.3-1.5,3.6-1l3.4,1.2
						l1.2-3.4c0.4-1.3,1.6-2.2,3-2.2l3.6-0.1l-0.1-3.6c0-1.4,0.8-2.6,2.1-3.1l3.4-1.3l-1.3-3.4c-0.5-1.3-0.1-2.7,0.9-3.6l2.7-2.4
						l-2.4-2.7c-0.9-1-1-2.5-0.4-3.7l1.8-3.2l-3.2-1.8c-1.2-0.7-1.8-2-1.6-3.3l0.6-3.6l-3.6-0.6c-1.3-0.2-2.4-1.2-2.7-2.6l-0.7-3.6
						l-3.6,0.7c-1.4,0.3-2.7-0.3-3.4-1.5l-1.9-3.1l-3.1,1.9c-1.2,0.7-2.6,0.6-3.7-0.3l-2.8-2.3l-2.3,2.8c-0.9,1.1-2.3,1.5-3.6,1
						l-3.4-1.2l-1.2,3.4c-0.4,1.3-1.6,2.2-3,2.2l-3.6,0.1l0.1,3.6c0,1.4-0.8,2.6-2.1,3.1l-3.4,1.3l1.3,3.4c0.5,1.3,0.1,2.7-0.9,3.6
						l-2.7,2.4l2.4,2.7c0.9,1,1,2.5,0.4,3.7l-1.8,3.2l3.2,1.8c1.2,0.7,1.8,2,1.6,3.3l-0.6,3.6l3.6,0.6c1.3,0.2,2.4,1.2,2.7,2.6
						l0.7,3.5l3.6-0.7c1.3-0.3,2.7,0.3,3.4,1.5l1.9,3.1l3.1-1.9C223.6,270.8,224,270.6,224.5,270.6z"/>
				</g>
			</g>
			<g>
				<g>
					<path class="st0" d="M228.5,262c-8.9,0.9-16.8-5.5-17.8-14.4c-0.9-8.9,5.5-16.8,14.4-17.8c8.9-0.9,16.8,5.5,17.8,14.4
						C243.8,253.1,237.3,261.1,228.5,262z M225.8,236.3c-5.3,0.6-9.2,5.3-8.6,10.7c0.6,5.3,5.3,9.2,10.7,8.6
						c5.3-0.6,9.2-5.3,8.6-10.7C235.9,239.6,231.1,235.7,225.8,236.3z"/>
				</g>
			</g>
		</g>
		<g>
			<g>
				<g>
					<path class="st0" d="M328,342.6c-0.4,0-0.7,0-1.1-0.1l-73.5-18.3c-1.7-0.4-2.8-2.2-2.4-3.9c0.4-1.7,2.2-2.8,3.9-2.4l73.5,18.3
						c1.7,0.4,2.8,2.2,2.4,3.9C330.5,341.6,329.3,342.5,328,342.6z"/>
				</g>
			</g>
			<g>
				<g>
					<path class="st0" d="M259.9,375.8c-1.3,0.1-2.6-0.5-3.2-1.8c-0.8-1.6-0.1-3.5,1.5-4.3l68.1-33.2c1.6-0.8,3.5-0.1,4.3,1.5
						c0.8,1.6,0.1,3.5-1.5,4.3L261,375.5C260.7,375.7,260.3,375.8,259.9,375.8z"/>
				</g>
			</g>
			<g>
				<g>
					<path class="st0" d="M259.9,375.8c-1.8,0.2-3.4-1.1-3.6-2.9l-5.4-51.5c-0.2-1.8,1.1-3.4,2.9-3.6c1.8-0.2,3.4,1.1,3.6,2.9
						l5.4,51.5C263,374,261.7,375.6,259.9,375.8z"/>
				</g>
			</g>
			<g>
				<g>
					<path class="st0" d="M289.4,346.7l-19.3,2c-1.8,0.2-3.4-1.1-3.6-2.9c-0.2-1.8,1.1-3.4,2.9-3.6l19.3-2c1.8-0.2,3.4,1.1,3.6,2.9
						C292.5,344.9,291.2,346.5,289.4,346.7z"/>
				</g>
			</g>
		</g>
		<g>
			<g>
				<g>
					<path class="st0" d="M186.3,386.8c-0.8,0.1-1.7-0.1-2.4-0.7L159,365.9c-1.4-1.1-1.6-3.2-0.5-4.5l20.2-24.9
						c1.1-1.4,3.2-1.6,4.5-0.5l24.9,20.2c1.4,1.1,1.6,3.2,0.5,4.5l-20.2,24.9C187.9,386.3,187.1,386.7,186.3,386.8z M165.6,362.9
						l19.9,16.1l16.1-19.9l-19.9-16.1L165.6,362.9z"/>
				</g>
			</g>
			<g>
				<g>
					<path class="st0" d="M187.1,363.9l-6.4,0.7c-1.8,0.2-3.4-1.1-3.6-2.9c-0.2-1.8,1.1-3.4,2.9-3.6l6.4-0.7
						c1.8-0.2,3.4,1.1,3.6,2.9S188.9,363.7,187.1,363.9z"/>
				</g>
			</g>
			<g>
				<g>
					<path class="st0" d="M184.6,370.7c-1.8,0.2-3.4-1.1-3.6-2.9l-1.3-12.9c-0.2-1.8,1.1-3.4,2.9-3.6c1.8-0.2,3.4,1.1,3.6,2.9
						l1.3,12.9C187.7,368.9,186.4,370.5,184.6,370.7z"/>
				</g>
			</g>
		</g>
	</g>
</g>
<g id="Layer_2" class="st1">
	<g class="st2">
		<g>
			<g>
				<path class="st0" d="M187.9,115.3c-1.9-0.2-3.3-1.9-3.1-3.9c0.2-1.9,1.9-3.3,3.8-3.1l0.1,0c1.9,0.2,3.3,1.9,3.1,3.9
					C191.6,114.1,189.8,115.5,187.9,115.3z"/>
			</g>
		</g>
		<g>
			<g>
				<path class="st0" d="M208.8,117.5c-1.9-0.2-3.3-1.9-3.1-3.9c0.2-1.9,1.9-3.3,3.8-3.1l0.1,0c1.9,0.2,3.3,1.9,3.1,3.9
					C212.4,116.4,210.7,117.8,208.8,117.5z"/>
			</g>
		</g>
		<g>
			<g>
				<path class="st0" d="M229.7,119.8c-1.9-0.2-3.3-1.9-3.1-3.9c0.2-1.9,1.9-3.3,3.8-3.1l0.1,0c1.9,0.2,3.3,1.9,3.1,3.9
					C233.3,118.6,231.6,120,229.7,119.8z"/>
			</g>
		</g>
		<g>
			<g>
				<path class="st0" d="M250.5,122.1c-1.9-0.2-3.3-1.9-3.1-3.9c0.2-1.9,1.9-3.3,3.8-3.1l0.1,0c1.9,0.2,3.3,1.9,3.1,3.9
					C254.2,120.9,252.5,122.3,250.5,122.1z"/>
			</g>
		</g>
		<g>
			<g>
				<path class="st0" d="M271.4,124.4c-1.9-0.2-3.3-1.9-3.1-3.9c0.2-1.9,1.9-3.3,3.8-3.1l0.1,0c1.9,0.2,3.3,1.9,3.1,3.9
					C275.1,123.2,273.3,124.6,271.4,124.4z"/>
			</g>
		</g>
		<g>
			<g>
				<path class="st0" d="M292.3,126.7c-1.9-0.2-3.3-1.9-3.1-3.9c0.2-1.9,1.9-3.3,3.8-3.1l0.1,0c1.9,0.2,3.3,1.9,3.1,3.9
					C295.9,125.5,294.2,126.9,292.3,126.7z"/>
			</g>
		</g>
		<g>
			<g>
				<g>
					<path class="st0" d="M116,448.9c-1.9-0.2-3.3-1.9-3.1-3.9l32-292.3c0.2-1.9,1.9-3.3,3.9-3.1c1.9,0.2,3.3,1.9,3.1,3.9l-32,292.3
						C119.7,447.7,117.9,449.1,116,448.9z"/>
				</g>
			</g>
			<g>
				<g>
					<path class="st0" d="M361.9,454.7c-1.9-0.2-3.3-1.9-3.1-3.9l29.7-271.4c0.2-1.9,1.9-3.3,3.9-3.1s3.3,1.9,3.1,3.9l-29.7,271.4
						C365.5,453.5,363.8,454.9,361.9,454.7z"/>
				</g>
			</g>
			<g>
				<g>
					<path class="st0" d="M350.3,464l-222.7-24.3c-1.9-0.2-3.3-1.9-3.1-3.9s1.9-3.3,3.9-3.1L351,457c1.9,0.2,3.3,1.9,3.1,3.9
						S352.2,464.2,350.3,464z"/>
				</g>
			</g>
			<g>
				<g>
					<path class="st0" d="M125.3,460.5c-7.7-0.8-13.2-7.8-12.4-15.4c0.8-7.7,7.8-13.2,15.4-12.4c1.9,0.2,3.3,1.9,3.1,3.9
						s-1.9,3.3-3.9,3.1c-3.8-0.4-7.3,2.4-7.7,6.2c-0.4,3.8,2.4,7.3,6.2,7.7c1.9,0.2,3.3,1.9,3.1,3.9S127.2,460.7,125.3,460.5z"/>
				</g>
			</g>
			<g>
				<g>
					<path class="st0" d="M348,484.8l-222.7-24.3c-1.9-0.2-3.3-1.9-3.1-3.9c0.2-1.9,1.9-3.3,3.9-3.1l222.7,24.3
						c1.9,0.2,3.3,1.9,3.1,3.9S349.9,485.1,348,484.8z"/>
				</g>
			</g>
			<g>
				<g>
					<path class="st0" d="M382.2,171.7l-222.7-24.3c-1.9-0.2-3.3-1.9-3.1-3.9c0.2-1.9,1.9-3.3,3.9-3.1L383,164.8
						c1.9,0.2,3.3,1.9,3.1,3.9C385.9,170.5,384.1,171.9,382.2,171.7z"/>
				</g>
			</g>
			<g>
				<g>
					<path class="st0" d="M350.3,464c-1.9-0.2-3.3-1.9-3.1-3.9s1.9-3.3,3.9-3.1c3.8,0.4,7.3-2.4,7.7-6.2c0.2-1.9,1.9-3.3,3.9-3.1
						s3.3,1.9,3.1,3.9C364.9,459.3,358,464.8,350.3,464z"/>
				</g>
			</g>
			<g>
				<g>
					<path class="st0" d="M391.5,183.3c-1.9-0.2-3.3-1.9-3.1-3.9c0.4-3.8-2.4-7.3-6.2-7.7c-1.9-0.2-3.3-1.9-3.1-3.9s1.9-3.3,3.9-3.1
						c7.7,0.8,13.2,7.8,12.4,15.4C395.2,182.1,393.4,183.5,391.5,183.3z"/>
				</g>
			</g>
			<g>
				<g>
					<path class="st0" d="M148,156.7c-1.9-0.2-3.3-1.9-3.1-3.9c0.8-7.7,7.8-13.2,15.4-12.4c1.9,0.2,3.3,1.9,3.1,3.9
						c-0.2,1.9-1.9,3.3-3.9,3.1c-3.8-0.4-7.3,2.4-7.7,6.2C151.6,155.5,149.9,156.9,148,156.7z"/>
				</g>
			</g>
			<g>
				<g>
					<path class="st0" d="M348,484.8c-1.9-0.2-3.3-1.9-3.1-3.9c0.2-1.9,1.9-3.3,3.9-3.1c3.8,0.4,7.3-2.4,7.7-6.2
						c0.2-1.9,1.9-3.3,3.9-3.1c1.9,0.2,3.3,1.9,3.1,3.9C362.6,480.1,355.7,485.7,348,484.8z"/>
				</g>
			</g>
		</g>
		<g>
			<g>
				<g>
					<path class="st0" d="M248.8,361.3c-38.4-4.2-66.2-38.8-62-77.2c4.2-38.4,38.8-66.2,77.2-62c38.4,4.2,66.2,38.8,62,77.2
						C321.8,337.7,287.2,365.5,248.8,361.3z M263.3,229.1c-34.5-3.8-65.7,21.2-69.5,55.8c-3.8,34.5,21.2,65.7,55.8,69.5
						c34.5,3.8,65.7-21.2,69.5-55.8C322.8,264.1,297.8,232.9,263.3,229.1z"/>
				</g>
			</g>
			<g>
				<g>
					<g>
						<path class="st0" d="M269,342c-0.4,0-0.9-0.1-1.3-0.2c-2.9-0.6-6.7-2.9-7.8-10.7c-0.5-3.7-0.4-7.4-0.3-11
							c0.1-3.7,0.2-7.2-0.3-10.6c-0.8-4.8-3.7-5.4-10.8-6.3l-1.9-0.2c-10.2-1.2-16.4-8.8-15.6-19.2c0.8-11.1,5.9-16.9,10-19.8
							c6.5-4.5,13.7-4.4,15.6-3.9l0.8,0.2c6.9,2,11.5,3.5,13.5,4.9c2.3,1.6,4.5,1.6,6,1.2c0.9-0.2,1.5-0.5,2.1-0.8
							c-4-2.4-14.7-6.3-20.3-7.3c-0.4-0.1-1.4,0-2.1,0.1c-2.8,0.2-6.6,0.5-8.8-2.5c-2-2.7-1.3-6.5,1.8-9.7
							c6.5-6.9,15.1-9.3,23.4-11.5c2.9-0.8,5.7-1.6,8.4-2.5c0.8-0.3,1.7-0.9,1.8-1.2c0.8-1.7,2.9-2.5,4.6-1.8
							c1.8,0.8,2.6,2.8,1.8,4.6c-1.4,3.2-4.9,4.6-5.9,5c-2.9,1-5.9,1.9-8.9,2.7c-7.7,2.1-14.9,4.1-20.1,9.6
							c-0.2,0.2-0.3,0.4-0.5,0.6c0.6-0.1,1.4-0.1,1.9-0.2c1.4-0.1,2.6-0.2,3.9,0c0.2,0,26.2,6.1,27,13.4c0.2,2.6-1.5,5.2-4.5,6.9
							c-3.7,2.1-9.9,3.1-15.5-0.8c-0.7-0.4-3.2-1.5-11.4-3.9l-0.8-0.2c-0.7-0.2-5.9-0.1-10.3,3.4c-3.8,3-5.9,7.7-6.4,14
							c-0.5,6.7,3,11,9.5,11.8l1.8,0.2c6.4,0.7,15.2,1.6,16.9,12.1c0.7,4.1,0.5,8.1,0.4,12c-0.1,3.4-0.2,6.7,0.2,9.8
							c0.4,2.8,1.2,4.6,2.2,4.8c3.5,0.7,6.3-1.2,10.1-4.7c1-0.9,2-1.8,3.1-2.7c2-1.7,3.9-3.2,5.2-5.1c1.5-2.1,2.3-4.8,3.1-7.5
							c1-3.3,2.1-6.7,4.4-9.9l0.9-1.3c3.8-5.1,6.4-8.9,7.7-11.3c-8.2-1.1-12.7-5.2-14.3-9c-1.2-2.7-0.9-5.4,0.7-7.2
							c3.2-3.4,8-1.6,12.3,0.1c1.7,0.7,4.6,1.8,5.6,1.6c0.5-3.5,9.5-7.1,12.7-7.2c1.9,0,3.5,1.5,3.6,3.4c0,1.9-1.5,3.5-3.4,3.6
							c-1.4,0-5.4,1.9-6.8,2.9c-0.7,2-2,3-3,3.5c-3.3,1.7-7.3,0.2-11.2-1.3c-1-0.4-2.4-0.9-3.5-1.3c1.3,1.7,4.5,3.9,11,4.1
							c1.8,0,3.2,1,3.9,2.4c1.6,3.2-0.5,7.5-9.6,19.7l-0.9,1.2c-1.6,2.2-2.4,4.9-3.3,7.8c-1,3.2-2,6.4-4.1,9.5
							c-1.9,2.7-4.2,4.6-6.5,6.5c-1,0.8-1.9,1.6-2.8,2.4C281.1,337.9,276,342.7,269,342z"/>
					</g>
				</g>
				<g>
					<g>
						<path class="st0" d="M200.6,332.1c-0.1,0-0.1,0-0.1,0c-0.9-0.2-1.8-0.7-2.3-1.5c-1.1-1.6-0.7-3.8,0.9-4.9
							c0.4-0.3,0.8-0.5,1.3-0.6c1.2-0.6,4.9-2.7,5.6-3.2c2.1-1.4,3.5-3,4.2-4.7c1.6-3.7,0.5-9.1-3.1-15.9c-1-1.8-2-3.5-3.1-5.3
							c-0.8-1.4-1.7-2.8-2.5-4.3c-0.3-0.6-0.9-1.7-1.5-2.9c-1.7-3.3-6.8-13.2-8.8-14.6c-1.6-1.1-2-3.3-0.9-4.9
							c1.1-1.6,3.3-2,4.8-0.9c2.9,2,6.3,7.8,11.1,17.2c0.6,1.2,1.1,2.2,1.4,2.7c0.8,1.4,1.6,2.7,2.4,4.1c1.1,1.8,2.2,3.7,3.2,5.6
							c4.8,8.9,5.9,16,3.4,21.9c-1.2,3-3.5,5.6-6.7,7.8C208.4,328.8,203.1,332.3,200.6,332.1z"/>
					</g>
				</g>
			</g>
		</g>
		<g>
			<g>
				<path class="st0" d="M325,404.9l-160-17.5c-1.9-0.2-3.3-1.9-3.1-3.9c0.2-1.9,1.9-3.3,3.9-3.1l160,17.5c1.9,0.2,3.3,1.9,3.1,3.9
					S327,405.1,325,404.9z"/>
			</g>
		</g>
		<g>
			<g>
				<path class="st0" d="M347.1,203.1l-160-17.5c-1.9-0.2-3.3-1.9-3.1-3.9c0.2-1.9,1.9-3.3,3.9-3.1l160,17.5
					c1.9,0.2,3.3,1.9,3.1,3.9C350.8,201.9,349,203.3,347.1,203.1z"/>
			</g>
		</g>
		<g>
			<g>
				<path class="st0" d="M294.9,422.7l-104.4-11.4c-1.9-0.2-3.3-1.9-3.1-3.9s1.9-3.3,3.9-3.1l104.4,11.4c1.9,0.2,3.3,1.9,3.1,3.9
					S296.9,422.9,294.9,422.7z"/>
			</g>
		</g>
		<g>
			<g>
				<path class="st0" d="M310.7,149.8c-1.9-0.2-3.3-1.9-3.1-3.9l11.8-107.9L180.2,22.9l-11.8,107.9c-0.2,1.9-1.9,3.3-3.9,3.1
					s-3.3-1.9-3.1-3.9l12.2-111.3c0.2-1.9,1.9-3.3,3.9-3.1l146.1,16c1.9,0.2,3.3,1.9,3.1,3.9l-12.2,111.3
					C314.3,148.6,312.6,150,310.7,149.8z"/>
			</g>
		</g>
		<g>
			<g>
				<path class="st0" d="M267.3,95.8l-48.7-5.3c-1.9-0.2-3.3-1.9-3.1-3.9c0.2-1.9,1.9-3.3,3.9-3.1l48.7,5.3c1.9,0.2,3.3,1.9,3.1,3.9
					C270.9,94.6,269.2,96,267.3,95.8z"/>
			</g>
		</g>
		<g>
			<g>
				<path class="st0" d="M297.4,77.9L193,66.5c-1.9-0.2-3.3-1.9-3.1-3.9c0.2-1.9,1.9-3.3,3.9-3.1L298.2,71c1.9,0.2,3.3,1.9,3.1,3.9
					S299.3,78.1,297.4,77.9z"/>
			</g>
		</g>
	</g>
</g>
<g id="Layer_3" class="st1">
	<g class="st2">
		<g>
			<g>
				<path class="st0" d="M280.3,90.1c-1.6-0.3-2.6-1.9-2.3-3.4s1.8-2.6,3.4-2.3l0.1,0c1.6,0.3,2.6,1.9,2.3,3.4
					C283.4,89.4,281.9,90.4,280.3,90.1z"/>
			</g>
		</g>
		<g>
			<g>
				<path class="st0" d="M212.3,432.1C111.8,411.3,47.1,312.7,67.9,212.3C88.7,111.8,187.3,47.1,287.7,67.9
					c100.4,20.8,165.2,119.4,144.4,219.9C411.3,388.2,312.7,452.9,212.3,432.1z M286.6,73.6c-97.3-20.2-192.8,42.6-213,139.9
					c-20.2,97.3,42.6,192.8,139.9,213c97.3,20.2,192.8-42.6,213-139.9C446.6,189.3,383.8,93.7,286.6,73.6z"/>
			</g>
		</g>
		<g>
			<g>
				<path class="st0" d="M220.5,392.3C142.1,376,91.5,299,107.7,220.5S201,91.5,279.5,107.7C357.9,124,408.5,201,392.3,279.5
					C376,357.9,299,408.5,220.5,392.3z M278.3,113.4C203,97.8,129,146.4,113.4,221.7s33,149.3,108.3,164.9
					c75.3,15.6,149.3-33,164.9-108.3C402.2,203,353.6,129,278.3,113.4z"/>
			</g>
		</g>
		<g>
			<g>
				<g>
					<path class="st0" d="M280.7,102c-6.3-1.3-10.3-7.5-9-13.7c1.3-6.3,7.5-10.3,13.7-9c6.3,1.3,10.3,7.5,9,13.7
						C293.1,99.3,286.9,103.3,280.7,102z M284.2,84.9c-3.1-0.7-6.2,1.4-6.9,4.5c-0.6,3.1,1.4,6.2,4.5,6.9c3.1,0.6,6.2-1.4,6.9-4.5
						S287.3,85.6,284.2,84.9z"/>
				</g>
			</g>
		</g>
		<g>
			<g>
				<path class="st0" d="M196.2,94.9c-1.6-0.3-2.6-1.9-2.3-3.4c0.3-1.6,1.8-2.6,3.4-2.3l0.1,0c1.6,0.3,2.6,1.9,2.3,3.4
					C199.3,94.2,197.8,95.3,196.2,94.9z"/>
			</g>
		</g>
		<g>
			<g>
				<g>
					<path class="st0" d="M196.6,106.9c-6.3-1.3-10.3-7.5-9-13.7c1.3-6.3,7.5-10.3,13.7-9c6.3,1.3,10.3,7.5,9,13.7
						C209,104.1,202.8,108.2,196.6,106.9z M200.1,89.8c-3.1-0.7-6.2,1.4-6.9,4.5c-0.6,3.1,1.4,6.2,4.5,6.9c3.1,0.6,6.2-1.4,6.9-4.5
						S203.2,90.4,200.1,89.8z"/>
				</g>
			</g>
		</g>
		<g>
			<g>
				<path class="st0" d="M125.8,141.2c-1.6-0.3-2.6-1.9-2.3-3.4s1.8-2.6,3.4-2.3l0.1,0c1.6,0.3,2.6,1.9,2.3,3.4
					C128.9,140.5,127.4,141.5,125.8,141.2z"/>
			</g>
		</g>
		<g>
			<g>
				<g>
					<path class="st0" d="M126.1,153.1c-6.3-1.3-10.3-7.5-9-13.7c1.3-6.3,7.5-10.3,13.7-9c6.3,1.3,10.3,7.5,9,13.7
						C138.6,150.4,132.4,154.4,126.1,153.1z M129.7,136c-3.1-0.7-6.2,1.4-6.9,4.5s1.4,6.2,4.5,6.9c3.1,0.6,6.2-1.4,6.9-4.5
						S132.8,136.7,129.7,136z"/>
				</g>
			</g>
		</g>
		<g>
			<g>
				<path class="st0" d="M214.3,408.8c-1.6-0.3-2.6-1.9-2.3-3.4c0.3-1.6,1.8-2.6,3.4-2.3l0.1,0c1.6,0.3,2.6,1.9,2.3,3.4
					S215.9,409.1,214.3,408.8z"/>
			</g>
		</g>
		<g>
			<g>
				<g>
					<path class="st0" d="M214.6,420.7c-6.3-1.3-10.3-7.5-9-13.7c1.3-6.3,7.5-10.3,13.7-9c6.3,1.3,10.3,7.5,9,13.7
						C227.1,418,220.9,422,214.6,420.7z M218.2,403.7c-3.1-0.7-6.2,1.4-6.9,4.5c-0.6,3.1,1.4,6.2,4.5,6.9c3.1,0.6,6.2-1.4,6.9-4.5
						C223.3,407.4,221.3,404.3,218.2,403.7z"/>
				</g>
			</g>
		</g>
		<g>
			<g>
				<path class="st0" d="M139.1,370.9c-1.6-0.3-2.6-1.9-2.3-3.4c0.3-1.6,1.8-2.6,3.4-2.3l0.1,0c1.6,0.3,2.6,1.9,2.3,3.4
					S140.6,371.3,139.1,370.9z"/>
			</g>
		</g>
		<g>
			<g>
				<g>
					<path class="st0" d="M139.4,382.9c-6.3-1.3-10.3-7.5-9-13.7s7.5-10.3,13.7-9c6.3,1.3,10.3,7.5,9,13.7S145.7,384.2,139.4,382.9z
						 M142.9,365.8c-3.1-0.7-6.2,1.4-6.9,4.5c-0.7,3.1,1.4,6.2,4.5,6.9c3.1,0.6,6.2-1.4,6.9-4.5
						C148.1,369.5,146.1,366.5,142.9,365.8z"/>
				</g>
			</g>
		</g>
		<g>
			<g>
				<path class="st0" d="M92.8,300.5c-1.6-0.3-2.6-1.9-2.3-3.4s1.8-2.6,3.4-2.3l0.1,0c1.6,0.3,2.6,1.9,2.3,3.4
					C95.9,299.9,94.4,300.9,92.8,300.5z"/>
			</g>
		</g>
		<g>
			<g>
				<g>
					<path class="st0" d="M93.1,312.5c-6.3-1.3-10.3-7.5-9-13.7c1.3-6.3,7.5-10.3,13.7-9c6.3,1.3,10.3,7.5,9,13.7
						C105.6,309.7,99.4,313.8,93.1,312.5z M96.7,295.4c-3.1-0.7-6.2,1.4-6.9,4.5c-0.6,3.1,1.4,6.2,4.5,6.9c3.1,0.6,6.2-1.4,6.9-4.5
						S99.8,296.1,96.7,295.4z"/>
				</g>
			</g>
		</g>
		<g>
			<g>
				<path class="st0" d="M298.4,404c-1.6-0.3-2.6-1.9-2.3-3.4c0.3-1.6,1.8-2.6,3.4-2.3l0.1,0c1.6,0.3,2.6,1.9,2.3,3.4
					C301.5,403.3,300,404.3,298.4,404z"/>
			</g>
		</g>
		<g>
			<g>
				<g>
					<path class="st0" d="M298.7,415.9c-6.3-1.3-10.3-7.5-9-13.7s7.5-10.3,13.7-9c6.3,1.3,10.3,7.5,9,13.7S305,417.2,298.7,415.9z
						 M302.3,398.8c-3.1-0.7-6.2,1.4-6.9,4.5c-0.7,3.1,1.4,6.2,4.5,6.9c3.1,0.7,6.2-1.4,6.9-4.5
						C307.4,402.6,305.4,399.5,302.3,398.8z"/>
				</g>
			</g>
		</g>
		<g>
			<g>
				<path class="st0" d="M368.8,357.7c-1.6-0.3-2.6-1.9-2.3-3.4s1.8-2.6,3.4-2.3l0.1,0c1.6,0.3,2.6,1.9,2.3,3.4
					C372,357,370.4,358,368.8,357.7z"/>
			</g>
		</g>
		<g>
			<g>
				<g>
					<path class="st0" d="M369.2,369.7c-6.3-1.3-10.3-7.5-9-13.7c1.3-6.3,7.5-10.3,13.7-9s10.3,7.5,9,13.7
						C381.6,366.9,375.4,371,369.2,369.7z M372.7,352.6c-3.1-0.7-6.2,1.4-6.9,4.5c-0.6,3.1,1.4,6.2,4.5,6.9c3.1,0.7,6.2-1.4,6.9-4.5
						C377.9,356.3,375.8,353.2,372.7,352.6z"/>
				</g>
			</g>
		</g>
		<g>
			<g>
				<path class="st0" d="M406.7,282.5c-1.6-0.3-2.6-1.9-2.3-3.4c0.3-1.6,1.8-2.6,3.4-2.3l0.1,0c1.6,0.3,2.6,1.9,2.3,3.4
					C409.8,281.8,408.3,282.8,406.7,282.5z"/>
			</g>
		</g>
		<g>
			<g>
				<g>
					<path class="st0" d="M407,294.4c-6.3-1.3-10.3-7.5-9-13.7c1.3-6.3,7.5-10.3,13.7-9c6.3,1.3,10.3,7.5,9,13.7
						C419.5,291.7,413.3,295.7,407,294.4z M410.6,277.3c-3.1-0.7-6.2,1.4-6.9,4.5s1.4,6.2,4.5,6.9c3.1,0.7,6.2-1.4,6.9-4.5
						S413.7,278,410.6,277.3z"/>
				</g>
			</g>
		</g>
		<g>
			<g>
				<path class="st0" d="M401.9,198.4c-1.6-0.3-2.6-1.9-2.3-3.4c0.3-1.6,1.8-2.6,3.4-2.3l0.1,0c1.6,0.3,2.6,1.9,2.3,3.4
					C405,197.7,403.4,198.7,401.9,198.4z"/>
			</g>
		</g>
		<g>
			<g>
				<g>
					<path class="st0" d="M402.2,210.3c-6.3-1.3-10.3-7.5-9-13.7c1.3-6.3,7.5-10.3,13.7-9s10.3,7.5,9,13.7
						C414.6,207.5,408.5,211.6,402.2,210.3z M405.7,193.2c-3.1-0.7-6.2,1.4-6.9,4.5s1.4,6.2,4.5,6.9c3.1,0.7,6.2-1.4,6.9-4.5
						S408.9,193.9,405.7,193.2z"/>
				</g>
			</g>
		</g>
		<g>
			<g>
				<path class="st0" d="M355.6,127.9c-1.6-0.3-2.6-1.9-2.3-3.4c0.3-1.6,1.8-2.6,3.4-2.3l0.1,0c1.6,0.3,2.6,1.9,2.3,3.4
					C358.7,127.3,357.2,128.3,355.6,127.9z"/>
			</g>
		</g>
		<g>
			<g>
				<g>
					<path class="st0" d="M355.9,139.9c-6.3-1.3-10.3-7.5-9-13.7c1.3-6.3,7.5-10.3,13.7-9c6.3,1.3,10.3,7.5,9,13.7
						C368.4,137.1,362.2,141.2,355.9,139.9z M359.5,122.8c-3.1-0.7-6.2,1.4-6.9,4.5c-0.6,3.1,1.4,6.2,4.5,6.9
						c3.1,0.7,6.2-1.4,6.9-4.5C364.6,126.5,362.6,123.4,359.5,122.8z"/>
				</g>
			</g>
		</g>
		<g>
			<g>
				<path class="st0" d="M110.8,191.5L88,186.8c-1.6-0.3-2.6-1.9-2.3-3.4c0.3-1.6,1.9-2.6,3.4-2.3l22.8,4.7c1.6,0.3,2.6,1.9,2.3,3.4
					C113.9,190.8,112.3,191.8,110.8,191.5z"/>
			</g>
		</g>
		<g>
			<g>
				<path class="st0" d="M102.7,201.7l-17.1-3.5c-1.6-0.3-2.6-1.9-2.3-3.4c0.3-1.6,1.9-2.6,3.4-2.3l17.1,3.5
					c1.6,0.3,2.6,1.9,2.3,3.4C105.8,201,104.3,202,102.7,201.7z"/>
			</g>
		</g>
		<g>
			<g>
				<path class="st0" d="M94.5,241.5L77.4,238c-1.6-0.3-2.6-1.9-2.3-3.4c0.3-1.6,1.9-2.6,3.4-2.3l17.1,3.5c1.6,0.3,2.6,1.9,2.3,3.4
					C97.6,240.8,96,241.8,94.5,241.5z"/>
			</g>
		</g>
		<g>
			<g>
				<path class="st0" d="M97.8,254.1L75,249.4c-1.6-0.3-2.6-1.9-2.3-3.4c0.3-1.6,1.9-2.6,3.4-2.3l22.8,4.7c1.6,0.3,2.6,1.9,2.3,3.4
					C100.9,253.4,99.4,254.4,97.8,254.1z"/>
			</g>
		</g>
		<g>
			<g>
				<path class="st0" d="M346.4,329.3c-0.7-0.2-1.4-0.6-1.8-1.2l-2.9-4.4l-4.4,2.9c-1.3,0.9-3.1,0.5-4-0.8l-2.9-4.4l-4.4,2.9
					c-1.3,0.9-3.1,0.5-4-0.8l-2.9-4.4l-4.4,2.9c-1.3,0.9-3.1,0.5-4-0.8l-2.9-4.4l-4.4,2.9c-1.3,0.9-3.1,0.5-4-0.8l-2.9-4.4l-4.4,2.9
					c-1.3,0.9-3.1,0.5-4-0.8l-2.9-4.4l-4.4,2.9c-1.3,0.9-3.1,0.5-4-0.8l-2.9-4.4l-4.4,2.9c-1.3,0.9-3.1,0.5-4-0.8l-2.9-4.4l-4.4,2.9
					c-1.3,0.9-3.1,0.5-4-0.8l-2.9-4.4l-4.4,2.9c-1.3,0.9-3.1,0.5-4-0.8l-2.9-4.4l-4.4,2.9c-1.3,0.9-3.1,0.5-4-0.8l-2.9-4.4l-4.4,2.9
					c-1.3,0.9-3.1,0.5-4-0.8l-2.9-4.4l-4.4,2.9c-1.3,0.8-3.2,0.5-4-0.8l-2.9-4.4l-4.4,2.9c-1.3,0.8-3.2,0.5-4-0.8l-2.9-4.4l-4.4,2.9
					c-1.3,0.9-3.1,0.5-4-0.8l-2.9-4.4l-4.4,2.9c-0.6,0.4-1.4,0.6-2.2,0.4l0,0c-0.8-0.2-1.4-0.6-1.8-1.2l-2.9-4.4l-4.4,2.9
					c-1.3,0.9-3.1,0.5-4-0.8l-2.9-4.4l-4.4,2.9c-0.6,0.4-1.4,0.6-2.2,0.4l0,0c-0.8-0.2-1.4-0.6-1.8-1.2l-2.9-4.4l-4.4,2.9
					c-1.3,0.9-3.1,0.5-4-0.8l-2.9-4.4l-4.4,2.9c-1.3,0.9-3.1,0.5-4-0.8c-0.9-1.3-0.5-3.1,0.8-4l6.9-4.5c1.3-0.8,3.2-0.5,4,0.8
					l2.9,4.4l4.4-2.9c0.6-0.4,1.4-0.6,2.2-0.4l0,0c0.8,0.2,1.4,0.6,1.8,1.3l2.9,4.4l4.4-2.9c1.3-0.9,3.1-0.5,4,0.8l2.9,4.4l4.4-2.9
					c0.6-0.4,1.4-0.6,2.2-0.4l0,0c0.8,0.2,1.4,0.6,1.8,1.3l2.9,4.4l4.4-2.9c1.3-0.9,3.1-0.5,4,0.8l2.9,4.4l4.4-2.9
					c1.3-0.9,3.1-0.5,4,0.8l2.9,4.4l4.4-2.9c1.3-0.8,3.2-0.5,4,0.8l2.9,4.4l4.4-2.9c1.3-0.8,3.2-0.5,4,0.8l2.9,4.4l4.4-2.9
					c1.3-0.9,3.1-0.5,4,0.8l2.9,4.4l4.4-2.9c1.3-0.9,3.1-0.5,4,0.8l2.9,4.4l4.4-2.9c1.3-0.9,3.1-0.5,4,0.8l2.9,4.4l4.4-2.9
					c1.3-0.9,3.1-0.5,4,0.8l2.9,4.4l4.4-2.9c1.3-0.9,3.1-0.5,4,0.8l2.9,4.4l4.4-2.9c1.3-0.9,3.1-0.5,4,0.8l2.9,4.4l4.4-2.9
					c1.3-0.9,3.1-0.5,4,0.8l2.9,4.4l4.4-2.9c1.3-0.9,3.1-0.5,4,0.8l2.9,4.4l4.4-2.9c1.3-0.9,3.1-0.5,4,0.8l2.9,4.4l4.4-2.9
					c1.3-0.9,3.1-0.5,4,0.8l2.9,4.4l4.4-2.9c1.3-0.9,3.1-0.5,4,0.8l4.5,6.9c0.9,1.3,0.5,3.1-0.8,4
					C347.9,329.3,347.1,329.5,346.4,329.3z"/>
			</g>
		</g>
		<g>
			<g>
				<path class="st0" d="M216.4,326.1c-0.7-0.2-1.4-0.6-1.8-1.3l-2.9-4.4l-4.4,2.9c-1.3,0.8-3.2,0.5-4-0.8l-2.9-4.4l-4.4,2.9
					c-1.3,0.8-3.2,0.5-4-0.8l-2.9-4.4l-4.4,2.9c-1.3,0.9-3.1,0.5-4-0.8l-2.9-4.4l-4.4,2.9c-0.6,0.4-1.4,0.6-2.2,0.4l0,0
					c-0.8-0.2-1.4-0.6-1.8-1.3l-2.9-4.4l-4.4,2.9c-1.3,0.9-3.1,0.5-4-0.8c-0.9-1.3-0.5-3.1,0.8-4l6.9-4.5c0.6-0.4,1.4-0.6,2.2-0.4
					l0,0c0.8,0.2,1.4,0.6,1.8,1.3l2.9,4.4l4.4-2.9c1.3-0.9,3.1-0.5,4,0.8l2.9,4.4l4.4-2.9c1.3-0.9,3.1-0.5,4,0.8l2.9,4.4l4.4-2.9
					c1.3-0.8,3.2-0.5,4,0.8l2.9,4.4l4.4-2.9c1.3-0.8,3.2-0.5,4,0.8l4.5,6.9c0.9,1.3,0.5,3.1-0.8,4
					C217.9,326.2,217.1,326.3,216.4,326.1z"/>
			</g>
		</g>
		<g>
			<g>
				<path class="st0" d="M302.8,367.8c-0.7-0.2-1.4-0.6-1.8-1.3l-2.9-4.4l-4.4,2.9c-1.3,0.9-3.1,0.5-4-0.8l-2.9-4.4l-4.4,2.9
					c-1.3,0.9-3.1,0.5-4-0.8l-2.9-4.4l-4.4,2.9c-1.3,0.9-3.1,0.5-4-0.8l-2.9-4.4l-4.4,2.9c-1.3,0.9-3.1,0.5-4-0.8l-2.9-4.4l-4.4,2.9
					c-1.3,0.9-3.1,0.5-4-0.8l-2.9-4.4l-4.4,2.9c-1.3,0.9-3.1,0.5-4-0.8l-2.9-4.4l-4.4,2.9c-1.3,0.9-3.1,0.5-4-0.8
					c-0.9-1.3-0.5-3.1,0.8-4l6.9-4.5c1.3-0.9,3.1-0.5,4,0.8l2.9,4.4l4.4-2.9c1.3-0.9,3.1-0.5,4,0.8l2.9,4.4l4.4-2.9
					c1.3-0.9,3.1-0.5,4,0.8l2.9,4.4l4.4-2.9c1.3-0.9,3.1-0.5,4,0.8l2.9,4.4l4.4-2.9c1.3-0.9,3.1-0.5,4,0.8l2.9,4.4l4.4-2.9
					c1.3-0.9,3.1-0.5,4,0.8l2.9,4.4l4.4-2.9c1.3-0.9,3.1-0.5,4,0.8l4.5,6.9c0.9,1.3,0.5,3.1-0.8,4
					C304.3,367.8,303.5,367.9,302.8,367.8z"/>
			</g>
		</g>
		<g>
			<g>
				<path class="st0" d="M229.8,376.4c-0.7-0.2-1.4-0.6-1.8-1.3l-2.9-4.4l-4.4,2.9c-1.3,0.9-3.1,0.5-4-0.8l-2.9-4.4l-4.4,2.9
					c-1.3,0.8-3.2,0.5-4-0.8l-2.9-4.4l-4.4,2.9c-1.3,0.9-3.1,0.5-4-0.8l-2.9-4.4l-4.4,2.9c-1.3,0.9-3.1,0.5-4-0.8
					c-0.9-1.3-0.5-3.1,0.8-4l6.9-4.5c1.3-0.8,3.2-0.5,4,0.8l2.9,4.4l4.4-2.9c1.3-0.9,3.1-0.5,4,0.8l2.9,4.4l4.4-2.9
					c1.3-0.8,3.2-0.5,4,0.8l2.9,4.4l4.4-2.9c1.3-0.9,3.1-0.5,4,0.8l4.5,6.9c0.9,1.3,0.5,3.1-0.8,4
					C231.3,376.4,230.5,376.5,229.8,376.4z"/>
			</g>
		</g>
		<g>
			<g>
				<path class="st0" d="M318,222.5c-1-0.2-1.8-0.9-2.2-2c-3.8-11.9-11.9-12.9-12.2-12.9c-1.5-0.2-2.8-1.6-2.6-3.2
					c0.2-1.6,1.5-2.8,3.1-2.6c0.5,0.1,12.2,1.2,17.2,16.9c0.5,1.5-0.4,3.2-1.9,3.7C319,222.6,318.5,222.6,318,222.5z"/>
			</g>
		</g>
		<g>
			<g>
				<path class="st0" d="M318,222.5c-1.5-0.3-2.5-1.6-2.3-3.2c0.1-0.6,2-14.1,29.1-14.9c1.6,0,2.9,1.2,3,2.8c0.1,1.6-1.2,2.9-2.8,3
					c-21.6,0.7-23.5,9.8-23.5,9.9c-0.3,1.5-1.7,2.6-3.3,2.4C318.1,222.5,318.1,222.5,318,222.5z"/>
			</g>
		</g>
		<g>
			<g>
				<path class="st0" d="M331.3,272.8c-1.1-0.2-2-1.1-2.3-2.3c-1.8-9.3-4.9-11.4-5.9-11.4c-1.6,0.3-3-0.8-3.2-2.4
					c-0.2-1.6,0.9-3.1,2.5-3.3c0.9-0.1,9-0.9,12.3,16.1c0.3,1.6-0.7,3.1-2.3,3.4C332.1,272.9,331.7,272.9,331.3,272.8z"/>
			</g>
		</g>
		<g>
			<g>
				<path class="st0" d="M331.4,272.8c-0.3-0.1-0.6-0.2-0.8-0.3c-1.4-0.8-1.9-2.5-1.1-3.9c0.3-0.5,6.8-11.9,22.6-15
					c1.6-0.3,3.1,0.7,3.4,2.3c0.3,1.6-0.7,3.1-2.3,3.4c-13.1,2.6-18.4,11.7-18.6,12.1C333.8,272.5,332.6,273,331.4,272.8z"/>
			</g>
		</g>
		<g>
			<g>
				<g>
					<path class="st0" d="M182.6,188.5c-12.4-2.6-22.2-12.3-24.8-24.7c-0.3-1.6,0.7-3.1,2.2-3.4s3.1,0.7,3.4,2.2
						c2.2,10.2,10.1,18.1,20.3,20.2c14.1,2.9,28-6.2,30.9-20.3c2.1-10.2-2-20.6-10.5-26.7c-1.3-0.9-1.6-2.7-0.7-4.1
						c0.9-1.3,2.7-1.6,4.1-0.7c10.4,7.4,15.4,20.1,12.8,32.6C216.8,181,199.9,192.1,182.6,188.5z"/>
				</g>
			</g>
			<g>
				<g>
					<path class="st0" d="M169.6,251.2c-1.6-0.3-2.6-1.9-2.3-3.4l9.4-45.5c0.3-1.6,1.9-2.6,3.4-2.3s2.6,1.9,2.3,3.4l-9.4,45.5
						C172.7,250.5,171.2,251.5,169.6,251.2z"/>
				</g>
			</g>
			<g>
				<g>
					<path class="st0" d="M217.7,248.4c-1-0.2-1.8-0.9-2.2-1.9l-14.6-44.2c-0.5-1.5,0.3-3.2,1.8-3.7c1.5-0.5,3.2,0.3,3.7,1.8
						l14.6,44.2c0.5,1.5-0.3,3.2-1.9,3.7C218.7,248.5,218.2,248.5,217.7,248.4z"/>
				</g>
			</g>
			<g>
				<g>
					<path class="st0" d="M257.9,222c-0.5-0.1-0.9-0.3-1.3-0.7l-34.7-30.9c-1.2-1.1-1.3-2.9-0.2-4.1c1.1-1.2,2.9-1.3,4.1-0.2
						l34.7,30.9c1.2,1.1,1.3,2.9,0.2,4.1C260,221.9,258.9,222.2,257.9,222z"/>
				</g>
			</g>
			<g>
				<g>
					<path class="st0" d="M279.6,179l-45.5-9.4c-1.6-0.3-2.6-1.9-2.3-3.4s1.9-2.6,3.4-2.3l45.5,9.4c1.6,0.3,2.6,1.9,2.3,3.4
						C282.7,178.3,281.1,179.3,279.6,179z"/>
				</g>
			</g>
			<g>
				<g>
					<path class="st0" d="M232.7,145.5c-1-0.2-1.8-0.9-2.2-1.9c-0.5-1.5,0.3-3.2,1.8-3.7l44.2-14.6c1.5-0.5,3.2,0.3,3.7,1.8
						c0.5,1.5-0.3,3.2-1.8,3.7l-44.2,14.6C233.6,145.6,233.1,145.6,232.7,145.5z"/>
				</g>
			</g>
			<g>
				<g>
					<path class="st0" d="M126.6,229.5c-0.5-0.1-0.9-0.3-1.3-0.7c-1.2-1.1-1.3-2.9-0.2-4.1L156,190c1.1-1.2,2.9-1.3,4.1-0.2
						c1.2,1.1,1.3,2.9,0.2,4.1l-30.9,34.7C128.7,229.4,127.6,229.7,126.6,229.5z"/>
				</g>
			</g>
		</g>
		<g>
			<g>
				<path class="st0" d="M368.4,174.7c-0.7-0.2-1.4-0.6-1.8-1.3c-0.9-1.3-0.5-3.1,0.8-4l17-11.2c1.3-0.9,3.1-0.5,4,0.8
					c0.9,1.3,0.5,3.1-0.8,4l-17,11.2C370,174.7,369.2,174.8,368.4,174.7z"/>
			</g>
		</g>
		<g>
			<g>
				<path class="st0" d="M88.1,215.7c-1.6-0.3-2.6-1.9-2.3-3.4c0.3-1.6,1.8-2.6,3.4-2.3l0.1,0c1.6,0.3,2.6,1.9,2.3,3.4
					C91.2,215,89.7,216,88.1,215.7z"/>
			</g>
		</g>
		<g>
			<g>
				<g>
					<path class="st0" d="M88.3,228.3c-6.3-1.3-10.3-7.5-9-13.7c1.3-6.3,7.5-10.3,13.7-9c6.3,1.3,10.3,7.5,9,13.7
						S94.6,229.6,88.3,228.3z M91.8,211.2c-3.1-0.7-6.2,1.4-6.9,4.5c-0.6,3.1,1.4,6.2,4.5,6.9c3.1,0.6,6.2-1.4,6.9-4.5
						S95,211.9,91.8,211.2z"/>
				</g>
			</g>
		</g>
	</g>
</g>
</svg>
