<?xml version="1.0" encoding="utf-8"?>
<!-- Generator: Adobe Illustrator 22.1.0, SVG Export Plug-In . SVG Version: 6.00 Build 0)  -->
<svg version="1.1" xmlns="http://www.w3.org/2000/svg" xmlns:xlink="http://www.w3.org/1999/xlink" x="0px" y="0px"
	 viewBox="0 0 300 300" style="enable-background:new 0 0 300 300;" xml:space="preserve">
<style type="text/css">
	.st0{display:none;}
	.st1{display:inline;}
</style>
<g id="sarah" class="st0">
	<g class="st1">
		<g>
			<path d="M74.1,116.8c0.3,8.2,1.5,16.4,2.7,24.5c1.6,11.1,1.3,22.4,2.6,33.6c1.4,12.3,8.3,22.1,16.4,31.1
				c4.9,5.5,9.9,11.1,15,16.4c4.6,4.8,9.4,7.3,16.2,8.1c6.5,0.8,14.6,0.2,20.8-2.2c4.9-1.8,11.6-5,13.2-10.4
				c0.4-1.2-1.5-1.7-1.9-0.5c-1.4,4.5-7.2,7.1-11.2,8.7c-3.8,1.6-7.9,1.9-12,2.3c-5.2,0.6-10.3,0.2-15.2-1.6
				c-4.3-1.6-7.2-4.5-10.3-7.8c-10.7-11.8-24-23.6-28.2-39.5c-1.2-4.4-1.2-9-1.5-13.6c-0.5-7-0.9-14-1.6-20.9
				c-0.8-9.4-2.7-18.8-3.1-28.3C76,115.6,74.1,115.6,74.1,116.8L74.1,116.8z"/>
		</g>
	</g>
	<g class="st1">
		<g>
			<path d="M208.6,127.3c0.1,9.7-4.7,18.2-6.2,27.6c-1.6,10-3.9,19.6-7.8,29c-3.6,8.7-8.7,17.5-15.9,23.6
				c-6.3,5.4-14.3,10.4-21.8,13.7c-1.1,0.5-0.2,2.2,1,1.7c7.5-3.3,15.2-8.2,21.6-13.5c7.5-6.2,12.7-15.1,16.6-23.9
				c4.1-9.3,6.6-19.2,8.1-29.2c1.5-9.9,6.5-18.9,6.4-29C210.6,126.1,208.6,126.1,208.6,127.3L208.6,127.3z"/>
		</g>
	</g>
	<g class="st1">
		<g>
			<path d="M117.5,225.2c-1.7-1.6-2.5-3.5-3-5.8c-0.3-1.2-2.1-0.7-1.9,0.5c0.5,2.6,1.5,4.8,3.5,6.7
				C117.1,227.5,118.5,226.1,117.5,225.2L117.5,225.2z"/>
		</g>
	</g>
	<g class="st1">
		<g>
			<path d="M162.2,37.1c-5.6,5.3-15.6,3.2-22.8,2.9c-6-0.3-12.1-0.7-17.8,1.3c-4.5,1.6-8.5,4.6-11.7,8.1c-4.2,4.5-6.1,8.9-9,14.2
				c-3,5.4-7.1,10-11.7,14.1c-3.9,3.5-8.3,7.1-10.3,12.2c-1,2.6-0.9,5.4-1,8.2c0,4-0.5,7.7-1.5,11.6c-1.8,6.9-4.7,13.3-5.9,20.3
				c-0.2,1.2,1.7,1.8,1.9,0.5c1.1-6.5,3.7-12.3,5.4-18.6c0.8-2.8,1.5-5.5,1.8-8.4c0.4-3.7-0.3-7.7,0.6-11.4
				c1.6-6.6,7.9-10.7,12.5-15.2c3.8-3.7,7.2-7.7,9.8-12.4c1.2-2.3,2.1-4.7,3.3-7c1.6-3,4.4-6,6.9-8.4c5.3-5,11.4-7.4,18.7-7.5
				c6.2-0.1,12.4,0.5,18.5,0.7c5.4,0.1,9.5,0,13.5-3.9C164.5,37.6,163.2,36.2,162.2,37.1L162.2,37.1z"/>
		</g>
	</g>
	<g class="st1">
		<g>
			<path d="M163.5,38.3c0.7,4,1.2,7,4.2,10c3.1,3,6.9,4.4,10.7,6.3c2.9,1.4,5,2.8,6.5,5.6c1.5,2.9,1.9,6.3,2.6,9.5
				c1,4.5,1.8,9,4.2,13c2.5,4.2,7.5,6.9,9,11.6c1.6,5.2,1.2,11.3,2.2,16.7c0.9,4.9,2.3,9.7,4.6,14.1c1.7,3.3,3.4,5.9,3.6,9.8
				c0.1,1.5-0.2,2.7,0.4,4.1c0.5,1.1,2.4,0.6,1.9-0.5c-0.7-1.7-0.2-3.8-0.5-5.6c-0.3-2-0.9-3.8-1.9-5.6c-2.7-5.2-4.9-10.2-6.1-16
				c-1.1-5.6-1-11.5-2.2-17.1c-0.9-4.3-3.8-6-6.7-9.1c-4-4.2-5.2-9.6-6.4-15.1c-0.9-4.1-1.1-9.1-3.8-12.5c-2.6-3.3-6.6-4.6-10.3-6.4
				c-2.6-1.2-5.1-2.7-7-4.8c-2.1-2.4-2.6-5.5-3.1-8.6C165.2,36.6,163.3,37.1,163.5,38.3L163.5,38.3z"/>
		</g>
	</g>
	<g class="st1">
		<g>
			<path d="M179.6,26.1c8.7-5.1,16.8,1.7,22.9,7.8c5,5,9.9,10.6,13.7,16.5c7,11,11.5,24.4,15,36.9c3.9,13.8,4.2,28.4,3.6,42.6
				c-0.6,15.7-2.6,31.3-5,46.8c-0.2,1.2,1.7,1.8,1.9,0.5c5.1-32.4,9.7-67.2-1.3-98.8c-4.8-14-10-26.9-19.6-38.3
				c-7.6-9-19.4-23.2-32.1-15.7C177.5,25.1,178.5,26.7,179.6,26.1L179.6,26.1z"/>
		</g>
	</g>
	<g class="st1">
		<g>
			<path d="M225.8,155.6c-0.2,0.6-0.4,1.2-0.6,1.8c-0.4,1.2,1.5,1.7,1.9,0.5c0.2-0.6,0.4-1.2,0.6-1.8
				C228,154.9,226.2,154.4,225.8,155.6L225.8,155.6z"/>
		</g>
	</g>
	<g class="st1">
		<g>
			<path d="M187.8,44.1c6.1,3.1,5.1,12.8,7.1,18.4c1.7,4.8,4.4,8.6,7.9,12.2c0.9,0.9,2.3-0.5,1.4-1.4c-5.5-5.6-8.2-11.9-9.4-19.6
				c-0.7-4.8-1.4-9-6.1-11.4C187.6,41.9,186.6,43.5,187.8,44.1L187.8,44.1z"/>
		</g>
	</g>
	<g class="st1">
		<g>
			<path d="M124.8,35.1c9.4-0.9,18,2.9,27-1.7c1.1-0.6,0.1-2.2-1-1.7c-8.6,4.3-17.1,0.6-26.1,1.4C123.6,33.3,123.5,35.2,124.8,35.1
				L124.8,35.1z"/>
		</g>
	</g>
	<g class="st1">
		<g>
			<path d="M93.9,58.4c-0.6,0.5-1.2,1-1.8,1.5c-0.4,0.3-0.3,1,0,1.4c0.4,0.4,1,0.3,1.4,0c0.6-0.5,1.2-1,1.8-1.5c0.4-0.3,0.3-1,0-1.4
				C94.9,58,94.3,58.1,93.9,58.4L93.9,58.4z"/>
		</g>
	</g>
	<g class="st1">
		<g>
			<path d="M177,29.8c1.5-6.6,1.9-12.1-4.4-16.3c-3.5-2.3-8.2-3.3-12.2-4.7c-4.5-1.6-9.1-3.2-13.8-3.6c-10.3-0.9-21.4,1.5-31.5,3.2
				c-8.3,1.4-16.9,3.5-23.7,8.8c-7.6,5.8-9.6,15-14.1,23c-4.4,7.9-10.1,14.5-13.4,23c-3.9,9.9-4.4,20.2-6.2,30.5
				c-1.6,9.3-4.9,18.3-5.5,27.8c-0.6,10.8-4,21.1,0.1,31.6c1.9,4.8,3.7,9.7,5.7,14.5c2.6,6,2.8,12.1,4.9,18.2
				c0.4,1.2,2.3,0.7,1.9-0.5c-1.3-3.9-1.4-8-2.5-12c-1.2-4.5-3.5-8.6-5.1-13c-1.3-3.6-3-7.2-4.2-10.9c-1.6-5.2-1.1-10.3-0.2-15.6
				c1.4-8.2,1.5-16.4,3.3-24.6c1.9-8.4,3.4-16.5,4.6-25c1.3-9.3,3.4-18.2,7.7-26.6c3.7-7.3,9.2-13.5,12.9-20.9
				c3.9-8,6.3-15.5,14.6-20.1c8.6-4.7,17.8-6.1,27.4-7.3c10.7-1.3,20.8-3.6,31.3-0.3c4.7,1.5,9.6,3,14.1,4.9c3.5,1.4,7,4.3,7.5,8.2
				c0.4,2.5-0.6,4.9-1.1,7.3C174.8,30.5,176.7,31,177,29.8L177,29.8z"/>
		</g>
	</g>
	<g class="st1">
		<g>
			<path d="M104,215.8c0,1.6-0.4,3-0.2,4.6c0.2,1.5,0.6,3,0.9,4.5c0.3,1.2,2.2,0.7,1.9-0.5c-0.4-1.5-0.8-3.1-0.9-4.6
				c-0.1-1.4,0.3-2.6,0.3-4C105.9,214.5,104,214.5,104,215.8L104,215.8z"/>
		</g>
	</g>
	<g class="st1">
		<g>
			<path d="M87.5,211.7c0.2,2.8,0.6,5.5,1.3,8.2c0.3,1.2,2.2,0.7,1.9-0.5c-0.6-2.5-1-5.1-1.2-7.7C89.4,210.5,87.4,210.5,87.5,211.7
				L87.5,211.7z"/>
		</g>
	</g>
	<g class="st1">
		<g>
			<path d="M73.3,212.8c0.2,0.4,0.4,0.8,0.6,1.2c0.6,1.1,2.2,0.1,1.7-1c-0.2-0.4-0.4-0.8-0.6-1.2C74.4,210.7,72.7,211.7,73.3,212.8
				L73.3,212.8z"/>
		</g>
	</g>
	<g class="st1">
		<g>
			<path d="M61.9,126.9c0,0.7,0,1.4,0,2.1c0,1.3,2,1.3,2,0c0-0.7,0-1.4,0-2.1C63.8,125.6,61.9,125.6,61.9,126.9L61.9,126.9z"/>
		</g>
	</g>
	<g class="st1">
		<g>
			<path d="M87,44c-3.5,4.9-7.1,9.7-9.9,15c-2.6,5.1-4.4,10.4-6.4,15.7c-0.4,1.2,1.5,1.7,1.9,0.5C76.7,64,81.7,54.6,88.7,45
				C89.4,44,87.8,43,87,44L87,44z"/>
		</g>
	</g>
	<g class="st1">
		<g>
			<path d="M164.7,25.9c0,1.4,0,2.8,0,4.3c0,1.3,1.9,1.3,1.9,0c0-1.4,0-2.8,0-4.3C166.7,24.6,164.7,24.6,164.7,25.9L164.7,25.9z"/>
		</g>
	</g>
	<g class="st1">
		<g>
			<path d="M168.1,32c-0.2,1.3-1,2.5-0.1,3.7c0.3,0.4,1,0.3,1.4,0c0.4-0.4,0.3-1,0-1.4c0.1,0.2,0.1,0.3,0.1,0.2c0-0.1,0-0.1,0,0
				c0-0.1,0-0.2,0-0.2c0-0.1,0.1-0.4,0.1-0.6c0.1-0.4,0.2-0.8,0.3-1.1c0.1-0.5-0.1-1-0.7-1.2C168.8,31.2,168.2,31.5,168.1,32
				L168.1,32z"/>
		</g>
	</g>
	<g class="st1">
		<g>
			<path d="M181.2,29.6c2.2-0.8,3.7,0.3,5.2,1.9c0.8,0.9,2.2-0.4,1.4-1.4c-1.8-2.1-4.3-3.4-7.1-2.4C179.5,28.1,180,30,181.2,29.6
				L181.2,29.6z"/>
		</g>
	</g>
	<g class="st1">
		<g>
			<path d="M223.9,97.8c0.7,5.2,1.4,10.4,1.5,15.6c0,1.3,2,1.3,1.9,0c-0.1-5.4-0.8-10.8-1.6-16.1C225.6,96.1,223.8,96.6,223.9,97.8
				L223.9,97.8z"/>
		</g>
	</g>
	<g class="st1">
		<g>
			<path d="M198.8,174.4c1.9,0.9,1.7,3.4,4.3,3.8c2.1,0.3,4.5-1.4,5.7-3c4.8-6.2,1-16.7,3.2-23.8c0.4-1.2-1.5-1.7-1.9-0.5
				c-1.5,5-1,10.1-1.1,15.3c0,1.1,0,2.1-0.2,3.2c0,1.5-0.4,2.8-1.3,3.9c-0.5,1.7-1.6,2.2-3.4,1.5c-3.7,0.1-2.1-0.9-4.3-2
				C198.6,172.2,197.6,173.9,198.8,174.4L198.8,174.4z"/>
		</g>
	</g>
	<g class="st1">
		<g>
			<path d="M203.1,156.1c0.8,1,1.7,1.9,2.4,2.9c0.3,0.4,1,0.3,1.4,0c0.4-0.4,0.3-1,0-1.4c-0.8-1-1.6-1.9-2.4-2.9
				c-0.3-0.4-1-0.3-1.4,0C202.7,155.1,202.8,155.7,203.1,156.1L203.1,156.1z"/>
		</g>
	</g>
	<g class="st1">
		<g>
			<path d="M205.6,154.1c0.5-0.5,1-1,1.6-1.4c1.1-0.7,0.1-2.4-1-1.7c-0.7,0.5-1.4,1-2,1.7C203.4,153.7,204.7,155,205.6,154.1
				L205.6,154.1z"/>
		</g>
	</g>
	<g class="st1">
		<g>
			<path d="M210.8,144c-1.5,8.9,0.3,17.5,3.2,25.8c0.4,1.2,2.3,0.7,1.9-0.5c-2.7-8-4.6-16.3-3.2-24.8
				C212.9,143.3,211,142.8,210.8,144L210.8,144z"/>
		</g>
	</g>
	<g class="st1">
		<path d="M158.5,98.3c-1.4,0-2.8,0-4.2,0c-1.1,0-2.3,0.2-3.4,0.3c-1.1,0.1-2.2,0.2-3.2,0.7c-1.3,0.6-2.6,1.8-3.2,3
			c-0.4,0.8-0.4,1.9,0.6,2.2c1.2,0.4,2.8,0.5,4.1,0.5c0.7,0,1.4,0.1,2.1,0c0.8-0.1,1.6-0.3,2.4-0.5c1.5-0.4,3.1-0.5,4.7-0.5
			c1.3,0,2.5-0.2,3.7-0.2c1.3,0,2.6,0,4,0c1.6,0,3.2,0,4.8,0c0.6,0,1.2-0.1,1.8,0c0.6,0.1,1.2,0.2,1.8,0.2c1.9,0,3.8,0.3,5.6,0.7
			c0.6,0.1,1.2,0.1,1.8,0.3c0.5,0.1,1.5,0.3,2.1,0.2c1.2-0.3-0.4-1.3-0.8-1.6c-1.9-1.1-4.3-1.8-6.4-2.2c-2.6-0.5-5.2-1-7.8-1.2
			c-2.4-0.2-4.7-0.4-7.1-0.7c-1.3-0.2-2.5-0.4-3.7-0.5c-0.7,0-1.4-0.3-2.1-0.4c-0.5-0.1-1.7-0.5-2.1-0.2"/>
		<g>
			<path d="M158.5,97.3c-4.2,0-12.9-0.9-14.8,4.4c-1.2,3.2,1.5,3.9,4.2,4.1c2.6,0.2,4.9-0.4,7.5-0.8c4.1-0.6,8.2-0.5,12.3-0.5
				c4.7,0,9.2,0.6,13.9,1.1c1.4,0.1,2.5,0.6,3.5-0.6c0.3-0.4,0.4-0.9,0-1.4c-3.2-3.6-9.8-4-14.3-4.6c-3.5-0.5-7-0.7-10.5-1.2
				c-2-0.3-4.3-0.9-6.3-0.8c-1.2,0.1-1.3,2,0,2c2.5-0.2,5.5,0.8,7.9,1.1c3.6,0.4,7.2,0.7,10.8,1.2c1.6,0.3,3.2,0.5,4.7,0.9
				c0.6,0.1,5.1,2.1,5.4,1.9c0,0-4.3-1-4.2-1c-1.8-0.3-2.2-0.3-4-0.4c-6.2-0.4-13-0.6-19.2,0.3c-1.1,0.2-6.7,1.9-7.4,0.8
				c1-1.5,2-2.9,3-4.4c1.1-0.1,2.2-0.2,3.4-0.3c1.4-0.1,2.8,0,4.2,0C159.7,99.3,159.7,97.4,158.5,97.3L158.5,97.3z"/>
		</g>
	</g>
	<g class="st1">
		<g>
			<path d="M148.7,125.7c4.1-2.1,6.4-6.5,10.6-8.6c3.5-1.6,8.4-2.3,12-0.6c3.3,1.6,3.8,4.7,6.5,6.7c1,0.8,2.4-0.6,1.4-1.4
				c-2.5-1.9-2.8-5.1-5.7-6.6c-2.8-1.5-6.8-2-9.9-1.5c-2.9,0.4-5.7,1.5-7.9,3.2c-2.8,2.1-4.9,5.4-8,7
				C146.6,124.6,147.6,126.3,148.7,125.7L148.7,125.7z"/>
		</g>
	</g>
	<g class="st1">
		<g>
			<path d="M148.5,125.4c4.3,1.2,9.3,1.4,13.7,1.2c5.2-0.3,10.5-2.6,15.7-2.5c1.3,0,1.3-1.9,0-2c-4.4-0.1-8.9,1.8-13.3,2.2
				c-4.8,0.5-10.9,0.5-15.6-0.8C147.8,123.2,147.3,125.1,148.5,125.4L148.5,125.4z"/>
		</g>
	</g>
	<g class="st1">
		<g>
			<path d="M88.3,128.9c4.2-0.3,8.2,1.3,12.4,1c5.1-0.4,10.1-2.4,15.2-2.6c1.3,0,1.3-2,0-2c-4.5,0.2-8.7,1.8-13.2,2.2
				c-5,0.5-9.5-1-14.4-0.7C87,127.1,87,129,88.3,128.9L88.3,128.9z"/>
		</g>
	</g>
	<g class="st1">
		<g>
			<path d="M130.3,221.5c0.1,0.2,0.1,0.4,0.1,0.6c0.1,1.3,2,1.3,1.9,0c0-0.4-0.1-0.7-0.2-1.1c-0.2-0.5-0.7-0.8-1.2-0.7
				C130.5,220.4,130.1,221,130.3,221.5L130.3,221.5z"/>
		</g>
	</g>
	<g class="st1">
		<g>
			<path d="M125.5,127.9c0.4,2.1-0.2,4.2-0.8,6.2c-0.4,1.2,1.5,1.7,1.9,0.5c0.7-2.4,1.3-4.8,0.8-7.3
				C127.2,126.2,125.3,126.7,125.5,127.9L125.5,127.9z"/>
		</g>
	</g>
	<g class="st1">
		<g>
			<path d="M143.1,163.9c2-0.1,4.3,0.8,6.2-0.3c1.5-0.9,2.4-2.4,2.6-4.1c0.1-1.2-1.8-1.2-1.9,0c-0.2,1.4-1.3,2.6-2.7,2.7
				c-1.3,0.1-2.7-0.3-4-0.2C141.9,162,141.9,164,143.1,163.9L143.1,163.9z"/>
		</g>
	</g>
	<g class="st1">
		<g>
			<path d="M112.5,157.1c-1.2,1.3-1.3,3-0.3,4.5c0.7,1,2.4,0.1,1.7-1c-0.5-0.7-0.6-1.4,0-2.1C114.7,157.6,113.3,156.2,112.5,157.1
				L112.5,157.1z"/>
		</g>
	</g>
	<g class="st1">
		<g>
			<path d="M158.6,157.8c1.4,2.9,2.4,5.7,4.5,8.3c2,2.5,4.5,4.7,7.6,5.7c1.2,0.4,1.7-1.5,0.5-1.9c-6-1.9-8.4-7.9-10.9-13.1
				C159.7,155.7,158,156.7,158.6,157.8L158.6,157.8z"/>
		</g>
	</g>
	<g class="st1">
		<g>
			<path d="M170,171.8c0,1.5,0,3.1,0,4.6c0,1.3,1.9,1.3,1.9,0c0-1.5,0-3.1,0-4.6C171.9,170.6,170,170.6,170,171.8L170,171.8z"/>
		</g>
	</g>
	<g class="st1">
		<g>
			<path d="M111,184c9.5-4.6,19-1.4,28.9-1.2c8.5,0.2,17.1-2.4,25.4-3.8c1.2-0.2,0.7-2.1-0.5-1.9c-10.2,1.7-20.1,4.6-30.5,3.3
				c-8.3-1-16.4-1.8-24.2,1.9C108.9,182.9,109.9,184.6,111,184L111,184z"/>
		</g>
	</g>
	<g class="st1">
		<g>
			<path d="M114.5,182.3c-1.5,3.9,1.5,8.5,4,11.3c3.6,4,8.2,6.2,13.6,6.1c12.7-0.2,24.9-11,32.7-20c0.8-0.9-0.6-2.3-1.4-1.4
				c-6.6,7.6-15.1,15-24.8,18.2c-4.8,1.6-10,2-14.5-0.7c-3.6-2.1-9.4-8.3-7.7-13C116.8,181.6,114.9,181.1,114.5,182.3L114.5,182.3z"
				/>
		</g>
	</g>
	<g class="st1">
		<g>
			<path d="M115.5,186.6c6.5,4.8,16.3,3.9,23.9,3.2c6.7-0.6,13.3-2.4,19.4-5.2c1.1-0.5,0.2-2.2-1-1.7c-5.3,2.4-11.1,4-16.8,4.7
				c-7.6,1-18,2.1-24.5-2.7C115.4,184.1,114.5,185.8,115.5,186.6L115.5,186.6z"/>
		</g>
	</g>
	<g class="st1">
		<g>
			<path d="M160.2,177.8c1.4,0.6,2.8,0.8,4.4,0.9c1.3,0,1.3-1.9,0-2c-1.1,0-2.3-0.1-3.4-0.6c-0.5-0.2-1-0.1-1.3,0.3
				C159.6,176.8,159.8,177.6,160.2,177.8L160.2,177.8z"/>
		</g>
	</g>
	<g class="st1">
		<g>
			<path d="M111.3,180c-0.6,0.6-1.3,1.1-1.8,1.7c-0.8,0.9,0.6,2.3,1.4,1.4c0.6-0.6,1.2-1.2,1.8-1.7
				C113.6,180.6,112.2,179.2,111.3,180L111.3,180z"/>
		</g>
	</g>
	<g class="st1">
		<g>
			<path d="M117.4,162.5c4.2,3.4,4.8,7.4,10.9,7.5c5.9,0,8.6-3.4,13-6.7c1-0.7,0-2.4-1-1.7c-3.3,2.4-6.3,5.9-10.5,6.3
				c-3.2,0.3-5.6-0.5-7.7-3.1c-1.1-1.4-2-2.6-3.4-3.7C117.9,160.4,116.5,161.7,117.4,162.5L117.4,162.5z"/>
		</g>
	</g>
	<g class="st1">
		<g>
			<path d="M235.9,126.6c1.1,3.1,3.4,5.5,4.5,8.7c1.2,3.5,1.5,7.3,1.4,11c0,7.1-1.3,14.1-2.2,21.1c-0.9,6.7-1.4,13.5-0.5,20.3
				c0.9,6.1,3.5,11.1,6.6,16.4c4.2,7.2,6.4,14.5,4.8,22.9c-1.4,7.1-4.7,14-6.9,20.9c-2.2,6.7-3.7,14.2-7.5,20.2
				c-3.3,5.3-16.8,16.9-22.5,9.1c-0.7-1-2.4,0-1.7,1c7.4,9.9,22.6-3.2,26.7-10.5c3.8-6.9,5.5-15.3,8-22.7c2.6-7.9,6.4-15.5,6.4-24
				c-0.1-7.6-3.1-13.4-6.8-19.9c-4.9-8.6-6.1-17.2-5.3-27c0.7-8.7,2.6-17.3,2.8-26.1c0.1-3.4,0-6.7-0.7-10
				c-0.9-4.5-3.8-7.5-5.2-11.8C237.3,124.9,235.5,125.4,235.9,126.6L235.9,126.6z"/>
		</g>
	</g>
	<g class="st1">
		<g>
			<path d="M194.6,247.6c-6.3-15.1-6-31.7-5.9-47.8c0-1.3-1.9-1.3-1.9,0c-0.1,16.3-0.4,33.1,6,48.3
				C193.2,249.3,195.1,248.8,194.6,247.6L194.6,247.6z"/>
		</g>
	</g>
	<g class="st1">
		<g>
			<path d="M212,249.4c2.8-6.2,4.5-11.8,3.7-18.7c-0.9-7.4-3.7-14.4-5.6-21.6c-0.3-1.2-2.2-0.7-1.9,0.5c1.5,5.5,3.5,10.9,4.7,16.5
				c1.8,8.2,0.8,14.6-2.6,22.2C209.8,249.5,211.5,250.5,212,249.4L212,249.4z"/>
		</g>
	</g>
	<g class="st1">
		<g>
			<path d="M237.1,213c-0.3-3.4-1.2-6.5-2.8-9.5c-1.5-3-7.1-9.1-5.6-12.7c0.5-1.1-1.2-2.1-1.7-1c-1.3,3-0.1,4.9,1.4,7.6
				c2.9,5,6.2,9.6,6.7,15.6C235.3,214.2,237.2,214.2,237.1,213L237.1,213z"/>
		</g>
	</g>
	<g class="st1">
		<g>
			<path d="M227.3,269.3c1.8-1.9,3-4.1,3.5-6.7c0.3-1.2-1.6-1.7-1.9-0.5c-0.5,2.2-1.5,4.1-3,5.8
				C225.1,268.9,226.4,270.3,227.3,269.3L227.3,269.3z"/>
		</g>
	</g>
	<g class="st1">
		<g>
			<path d="M54.5,157.5c7.4,16.6,3.4,37.4,1.5,54.8c-1.7,15.5-7.1,33.5,0.2,48.4c3.1,6.4,8.5,11,14,15.4c3.3,2.6,5.5,5.7,7.8,9.2
				c1.5,2.2,2.7,4.4,5.1,5.8c10.2,6,23.3-9.3,24.4-18.4c0.1-1.2-1.8-1.2-1.9,0c-0.8,7-10,18-17.5,17.8c-7-0.1-9.6-9.7-14.1-13.9
				c-5-4.7-10.6-8.2-14.4-14.1c-4.2-6.7-5.2-14.7-4.8-22.5c0.8-15,4-29.9,5.2-44.8c1-12.5,1.6-26.9-3.6-38.6
				C55.7,155.4,54,156.4,54.5,157.5L54.5,157.5z"/>
		</g>
	</g>
	<g class="st1">
		<g>
			<path d="M107.1,233.1c0.7,11.6,1,22.6,0,34.3c-0.1,1.2,1.8,1.2,1.9,0c1-11.6,0.7-22.7,0-34.3C108.9,231.8,107,231.8,107.1,233.1
				L107.1,233.1z"/>
		</g>
	</g>
	<g class="st1">
		<g>
			<path d="M70.2,238.3c-0.1,6-1.4,11.9,0,17.8c1.3,5.2,4.4,8.9,7.8,12.9c0.8,0.9,2.2-0.4,1.4-1.4c-3.7-4.3-6.8-8.3-7.7-14.1
				c-0.8-5.1,0.3-10.1,0.4-15.2C72.1,237.1,70.2,237.1,70.2,238.3L70.2,238.3z"/>
		</g>
	</g>
	<g class="st1">
		<g>
			<path d="M91.2,265.1c0.8,1,0.9,3.1,1,4.3c0.1,1.6-0.1,3.3-0.3,4.9c-0.2,1.2,1.8,1.2,1.9,0c0.4-3.1,1-8-1.3-10.6
				C91.8,262.7,90.4,264.1,91.2,265.1L91.2,265.1z"/>
		</g>
	</g>
	<g class="st1">
		<g>
			<path d="M71.2,135.6c0.1,4.6,2,9,2.2,13.6c0.2,4.7-0.7,9.4-0.6,14.1c0.1,4,0.9,11.4,6.5,8.4c1.1-0.6,0.1-2.3-1-1.7
				c-1-0.6-2-1.1-3-1.7c-0.3-1.4-0.5-2.7-0.5-4.1c-0.1-1.2,0-2.4,0-3.6c0.1-2.9,0.6-5.8,0.6-8.8c0-5.6-2.1-10.7-2.2-16.2
				C73.1,134.3,71.1,134.3,71.2,135.6L71.2,135.6z"/>
		</g>
	</g>
	<g class="st1">
		<g>
			<path d="M193.1,230.9c2,7.6,0.4,13.8-1.2,21.3c-0.9,4-1.4,8.3-0.7,12.3c1.3,8.5,7.8,12.1,15.6,13.8c1.2,0.3,1.7-1.6,0.5-1.9
				c-4.9-1.1-10-2.6-12.6-7.2c-2.3-4.1-2.1-9-1.4-13.5c0.6-4.1,2-7.9,2.6-12c0.7-4.6,0.2-8.9-0.9-13.4
				C194.6,229.1,192.7,229.6,193.1,230.9L193.1,230.9z"/>
		</g>
	</g>
	<g class="st1">
		<g>
			<path d="M205,271.4c0.8,1.7,2,3.5,3.8,4.3c0.5,0.2,1,0.1,1.3-0.3c0.2-0.4,0.1-1.1-0.3-1.3c-1.6-0.7-2.4-2.1-3.1-3.6
				C206.2,269.3,204.5,270.3,205,271.4L205,271.4z"/>
		</g>
	</g>
	<g class="st1">
		<path d="M106.7,101.9c1.4-0.1,2.8-0.2,4.2-0.3c1.1-0.1,2.3,0,3.4,0.1c1.1,0,2.2,0.1,3.3,0.4c1.3,0.5,2.7,1.6,3.4,2.8
			c0.4,0.8,0.5,1.8-0.5,2.2c-1.2,0.5-2.8,0.7-4,0.7c-0.7,0-1.4,0.2-2.1,0.1c-0.8-0.1-1.6-0.2-2.4-0.4c-1.5-0.3-3.1-0.3-4.7-0.2
			c-1.3,0.1-2.5,0-3.7,0.1c-1.3,0.1-2.6,0.2-4,0.3c-1.6,0.1-3.2,0.2-4.8,0.3c-0.6,0-1.2,0-1.8,0.1c-0.6,0.1-1.1,0.3-1.8,0.3
			c-1.9,0.1-3.7,0.6-5.5,1.1c-0.6,0.2-1.2,0.2-1.8,0.4c-0.5,0.2-1.5,0.4-2.1,0.3c-1.2-0.2,0.3-1.4,0.7-1.6c1.8-1.2,4.1-2.1,6.3-2.6
			c2.6-0.6,5.1-1.3,7.7-1.8c2.3-0.4,4.7-0.7,7-1.2c1.2-0.2,2.4-0.6,3.7-0.7c0.7-0.1,1.4-0.4,2.1-0.5c0.5-0.1,1.7-0.6,2.1-0.3"/>
		<g>
			<path d="M106.7,102.9c1.4-0.1,2.8-0.2,4.2-0.3c0.8,0,1.7,0,2.5,0c2.4-0.1,4.2,1.2,5.4,4c-1.6,1-5.4,0.3-7,0.1
				c-6.2-0.7-12.9-0.1-19.1,0.6c-1.9,0.2-7.5,2.3-9.2,1.8c1.1,0.3,4-1.7,5.4-2.1c1.3-0.4,2.6-0.7,3.8-0.9c3-0.7,6.1-1.1,9.2-1.7
				c2.9-0.5,6.3-1.9,9.3-1.9c1.3,0,1.3-1.9,0-2c-2.1,0-4.2,0.8-6.2,1.2c-3.7,0.7-7.5,1.3-11.2,2.1c-4.3,0.9-10.5,1.8-13.4,5.5
				c-0.3,0.3-0.1,0.9,0.2,1.2c1.1,1.2,2.1,0.7,3.5,0.4c4.7-0.8,9.1-1.7,13.8-2.1c3.6-0.2,7.2-0.6,10.9-0.5c3.1,0.1,5.9,0.8,9,0.4
				c2.7-0.4,5.3-1.2,4-4.3c-2.2-5.3-10.9-3.8-15.1-3.5C105.4,101,105.4,103,106.7,102.9L106.7,102.9z"/>
		</g>
	</g>
	<g class="st1">
		<g>
			<path d="M117.8,124.9c-3.8-1-6.8-4.7-10.3-6.4c-2.9-1.4-6-2.3-9.2-2c-5.6,0.6-9.8,3.6-11.3,9c-0.3,1.2,1.6,1.7,1.9,0.5
				c2.2-8.2,11.7-9,18.3-5.6c3.5,1.8,6.3,5.3,10.2,6.3C118.5,127.1,119.1,125.3,117.8,124.9L117.8,124.9z"/>
		</g>
	</g>
	<g class="st1">
		<g>
			<path d="M173.5,184.6c-1.2,2.1-2.8,4-4.5,5.7c-0.9,0.9,0.5,2.3,1.4,1.4c1.8-1.9,3.5-3.9,4.8-6.1
				C175.8,184.5,174.1,183.5,173.5,184.6L173.5,184.6z"/>
		</g>
	</g>
	<g class="st1">
		<g>
			<path d="M96.7,191.5c1.8,3.5,4.6,6.3,7.4,9c0.9,0.9,2.3-0.5,1.4-1.4c-2.7-2.6-5.4-5.2-7.1-8.6C97.8,189.4,96.1,190.4,96.7,191.5
				L96.7,191.5z"/>
		</g>
	</g>
	<g class="st1">
		<g>
			<path d="M185.9,132.8c0.9,0.7,1.7,1.5,2.6,2.2c0.4,0.3,1.1,0.1,1.3-0.3c0.3-0.5,0.1-1-0.3-1.3c-0.9-0.7-1.7-1.5-2.6-2.2
				c-0.4-0.3-1.1-0.1-1.3,0.3C185.3,132,185.5,132.5,185.9,132.8L185.9,132.8z"/>
		</g>
	</g>
	<g class="st1">
		<g>
			<path d="M101.3,117.2c-3.3-0.6-7.2,1.5-7.8,5c-0.7,3.7,2.5,7.2,6.2,6.9c3.4-0.2,7.5-2.9,7.1-6.7c-0.4-4.1-5.8-5.6-9.2-5.1
				c-1.2,0.2-1.9,1.7-1.6,2.8c0.3,1.3,1.6,1.7,2.8,1.6c0.7-0.1,3.3,0.3,3.5,1.3c0.1,0.8-2.2,1.6-2.7,1.6c-2.7,0.3-1.8-3.4,0.5-3.1
				C103,122.1,104.2,117.7,101.3,117.2L101.3,117.2z"/>
		</g>
	</g>
	<g class="st1">
		<g>
			<path d="M160.5,114.2c-2.9,1.4-6.1,4.7-4.6,8.3c1.2,2.9,5.1,4.6,8.1,3.9c3.1-0.7,6.5-3.8,5.9-7.3c-0.6-3.3-4.5-5.1-7.5-5.2
				c-2.9-0.1-2.9,4.4,0,4.5c0.9,0,2.7,0.4,3,1.5c-0.1-0.4-0.3,0.6-0.5,0.9c-0.4,0.6-1.2,1-1.9,1.1c-0.7,0.2-2.7-0.2-3-1.1
				c-0.4-1.2,2-2.4,2.7-2.7C165.4,116.8,163.1,112.9,160.5,114.2L160.5,114.2z"/>
		</g>
	</g>
	<g class="st1">
		<g>
			<path d="M127.9,175.2c0.4-0.9,0.5-1.8,0.6-2.8c0-1.3-1.9-1.3-2,0c0,0.6,0,1.3-0.3,1.9c-0.2,0.5-0.1,1,0.3,1.3
				C127,175.8,127.7,175.6,127.9,175.2L127.9,175.2z"/>
		</g>
	</g>
</g>
<g id="tyler" class="st0">
	<g class="st1">
		<g>
			<path d="M139.6,182.2c5.1,0.8,9.2,4.6,14.3,4.9c2.2,0.1,4.4-0.4,6.4-1.2c2.4-0.9,4.8-2.9,7.3-3.2c1.2-0.2,1.2-2.1,0-1.9
				c-4.8,0.6-8.3,4.7-13.6,4.3c-4.9-0.3-9-4-13.9-4.8C138.9,180.1,138.4,182,139.6,182.2L139.6,182.2z"/>
		</g>
	</g>
	<g class="st1">
		<g>
			<path d="M172.7,182.4c2.5-0.4,5.1-2.1,6.1-4.5c0.5-1.1-1.2-2.1-1.7-1c-0.9,2-2.9,3.2-5,3.6C171,180.8,171.5,182.6,172.7,182.4
				L172.7,182.4z"/>
		</g>
	</g>
	<g class="st1">
		<g>
			<path d="M141.8,165.1c-1.2,2.4-2.3,4.5-1.9,7.3c0.2,1.2,2.1,1.2,1.9,0c-0.3-2.5,0.5-4.2,1.6-6.3C144.1,165,142.4,164,141.8,165.1
				L141.8,165.1z"/>
		</g>
	</g>
	<g class="st1">
		<g>
			<path d="M145.1,135.8c0.9,1.6,1.6,3,1.7,4.9c0,1.7-0.4,3.5-0.8,5.2c-0.2,1.2,1.6,1.8,1.9,0.5c0.4-2.1,1-4.3,0.8-6.5
				c-0.1-1.9-1-3.5-1.9-5.1C146.2,133.7,144.5,134.7,145.1,135.8L145.1,135.8z"/>
		</g>
	</g>
	<g class="st1">
		<g>
			<path d="M169.9,141.3c5.7-2.4,10.9-6.2,16.9-7.8c4.5-1.2,8.6-1,12.5,2c1.6,1.3,2.8,2.2,4.7,3.1c1.1,0.5,2.1-1.1,1-1.7
				c-6-2.9-8.7-7.1-16-6c-7.4,1.1-13.4,5.8-20.1,8.6C167.8,140.1,168.8,141.8,169.9,141.3L169.9,141.3z"/>
		</g>
	</g>
	<g class="st1">
		<g>
			<path d="M168.4,142.1c3.8,1.6,8.3,1.8,12.4,2.5c3.7,0.6,7.1,1,10.8,0.9c4.8-0.1,10.8-1.8,14.1-5.5c0.8-0.9-0.5-2.3-1.4-1.4
				c-3.6,4.1-10.5,5.1-15.6,5c-6-0.1-14.2-1-19.8-3.3C167.8,139.7,167.3,141.6,168.4,142.1L168.4,142.1z"/>
		</g>
	</g>
	<g class="st1">
		<g>
			<path d="M125.4,206c6.2,0.5,10.8,7.1,16.5,9.4c5.6,2.3,12.4,2.7,18.3,2.2c9.5-0.8,21.1-4.8,27.4-12.3c0.8-1-0.6-2.3-1.4-1.4
				c-7.2,8.5-20.7,12.3-31.4,11.8c-6.8-0.3-12.6-1.7-18.2-5.7c-3.7-2.7-6.5-5.5-11.2-6C124.1,204,124.1,205.9,125.4,206L125.4,206z"
				/>
		</g>
	</g>
	<g class="st1">
		<g>
			<path d="M187.9,178.6c1.2,1.1,2.4,2.2,3.2,3.6c0.8,1.3,1.5,2.6,2.2,4c0.5,1.1,2.2,0.1,1.7-1c-1.5-3.1-3.2-5.6-5.7-8
				C188.4,176.4,187,177.8,187.9,178.6L187.9,178.6z"/>
		</g>
	</g>
	<g class="st1">
		<g>
			<path d="M119,180.8c-1.3,1.2-2.9,2.1-4.3,3.1c-1,0.7-0.1,2.4,1,1.7c1.6-1.1,3.3-2.1,4.7-3.4C121.3,181.3,119.9,179.9,119,180.8
				L119,180.8z"/>
		</g>
	</g>
	<g class="st1">
		<g>
			<path d="M99.8,200.4c-0.2,2.7-0.4,5.4,0.3,8.1c0.3,1.2,2.2,0.7,1.9-0.5c-0.6-2.5-0.4-5-0.2-7.6
				C101.8,199.2,99.9,199.2,99.8,200.4L99.8,200.4z"/>
		</g>
	</g>
	<g class="st1">
		<g>
			<path d="M208.2,247.3c10-10.4,16.9-24.2,18.7-38.6c0.9-6.9,0.8-14,0.8-20.9c0-4.4-0.1-8.7-0.3-13.1c-0.2-3.1-1.5-7.5-0.7-10.4
				c0.3-1.2-1.6-1.7-1.9-0.5c-0.6,2.3,0.3,4.8,0.4,7.2c0.3,3.7,0.5,7.5,0.6,11.2c0.2,7.3,0,14.8-0.4,22.1
				c-0.8,15.5-7.8,30.5-18.5,41.6C206,246.8,207.4,248.2,208.2,247.3L208.2,247.3z"/>
		</g>
	</g>
	<g class="st1">
		<g>
			<path d="M93.9,227.2c6.8,15.2,8.1,31.5,7.9,48c0,1.3,1.9,1.3,2,0c0.2-16.8-1.2-33.4-8.2-49C95,225,93.4,226,93.9,227.2
				L93.9,227.2z"/>
		</g>
	</g>
	<g class="st1">
		<g>
			<path d="M222.5,222.4c-0.1,0-0.1,0-0.2,0c-0.5,0-1,0.5-1,1c-0.1,5.5-0.6,10.9-0.7,16.3c-0.1,5.7,1.4,12.7,0,18.3
				c-0.3,1.2,1.6,1.7,1.9,0.5c1.3-5.2,0-11.5,0.1-16.9c0-3.1,0.1-6.2,0.3-9.3c0.1-1.4,1.1-7.9-0.3-7.9
				C223.7,224.4,223.7,222.5,222.5,222.4L222.5,222.4z"/>
		</g>
	</g>
	<g class="st1">
		<g>
			<path d="M230.5,140.3c1.3-4.3,7.2,1.3,8,2.7c1.2,2.2,1.7,5.3,1.8,7.7c0.2,3.9,0,7.9-0.3,11.8c-0.2,4.3,0.2,8.4,0.3,12.7
				c0.2,5.9-6,14.9-13.1,10.9c-1.1-0.6-2.1,1.1-1,1.7c4.5,2.6,11-0.3,13.8-4.3c2.2-3,2.4-6.4,2-9.9c-0.5-4.9-0.1-9.7,0-14.6
				c0.1-6.2,1.1-14.5-3.6-19.5c-2.5-2.7-8.6-4.2-10,0.2C228.2,141,230.1,141.5,230.5,140.3L230.5,140.3z"/>
		</g>
	</g>
	<g class="st1">
		<g>
			<path d="M230.9,156.9c2.7,2.7,4.2,6.3,3.8,10.2c-0.1,1.2,1.8,1.2,1.9,0c0.5-4.4-1.3-8.5-4.3-11.5
				C231.3,154.7,230,156,230.9,156.9L230.9,156.9z"/>
		</g>
	</g>
	<g class="st1">
		<g>
			<path d="M234.3,158.4c1.7-2.1,2.6-4.5,3.5-7c0.5-1.2-1.4-1.7-1.9-0.5c-0.8,2.1-1.6,4.3-3,6.1C232.1,158,233.5,159.4,234.3,158.4
				L234.3,158.4z"/>
		</g>
	</g>
	<g class="st1">
		<g>
			<path d="M83.4,192.7c-10-2.4-14-14.1-15.5-23c-0.9-5.1-1-10,0.3-15c0.6-2.3,1.3-5.9,2.9-7.6c3-3.1,6-2.1,8.2,1.4
				c0.7,1.1,2.3,0.1,1.7-1c-1.9-3.1-6.2-7-9.9-4c-4,3.3-5.4,12-5.7,16.7c-0.8,12,3.9,31.2,17.5,34.4
				C84.1,194.8,84.6,192.9,83.4,192.7L83.4,192.7z"/>
		</g>
	</g>
	<g class="st1">
		<g>
			<path d="M78.1,158c-1.6-0.1-3,0.1-4.2,1.2c-1.3,1.1-2,2.6-2.7,4.1c-0.6,1.1,1.1,2.1,1.7,1c0.5-1.1,1-2.3,1.9-3.2
				c0.9-1.1,2-1.2,3.4-1.1C79.3,160,79.3,158.1,78.1,158L78.1,158z"/>
		</g>
	</g>
	<g class="st1">
		<g>
			<path d="M77.8,158c0-1.8-1.3-3-2.2-4.5c-0.6-1.1-2.3-0.1-1.7,1c0.6,1.1,1.9,2.2,1.9,3.5C75.8,159.3,77.8,159.3,77.8,158L77.8,158
				z"/>
		</g>
	</g>
	<g class="st1">
		<g>
			<path d="M78,159.3c-0.6,1.4-1.2,2.8-1.6,4.3c-0.3,1.2,1.5,1.7,1.9,0.5c0.4-1.3,0.9-2.6,1.4-3.8C80.2,159.1,78.5,158.1,78,159.3
				L78,159.3z"/>
		</g>
	</g>
	<g class="st1">
		<g>
			<path d="M226.8,138.8c0,0.8,0,1.7,0,2.5c0,1.3,1.9,1.3,1.9,0c0-0.8,0-1.7,0-2.5C228.7,137.6,226.8,137.6,226.8,138.8L226.8,138.8
				z"/>
		</g>
	</g>
	<g class="st1">
		<g>
			<path d="M85.6,87.9c1.1,0.8,1.6,4.6,1.8,5.9c0.5,2.6,0.6,5.3,0.5,7.9c-0.1,6.5-2.4,12.5-3.6,18.8c-1.8,9-3.2,18.9-1.7,28
				c0.2,1.2,2.1,0.7,1.9-0.5c-2.2-12.6,1.5-25.5,4.3-37.7c1.2-5.2,1.4-10.5,0.7-15.8c-0.3-2.5-0.7-6.6-2.9-8.2
				C85.6,85.5,84.6,87.2,85.6,87.9L85.6,87.9z"/>
		</g>
	</g>
	<g class="st1">
		<g>
			<path d="M216.2,60.2c-4.7,3-13.5-0.4-18.2-2.1c-5.2-1.9-10.1-4.3-15.4-5.9c-9.8-2.8-20-1.4-29.5,1.9c-10.5,3.7-19.8,10-30.1,14.1
				c-10.7,4.3-21.5,8.2-32.9,10.1c-1.2,0.2-0.7,2.1,0.5,1.9c11.4-1.9,22.2-5.8,32.9-10.1c10.8-4.3,20.6-11,31.7-14.7
				c12.1-3.9,23.2-3.1,34.9,1.7c5.2,2.1,10.4,4.3,15.9,5.3c3.4,0.6,8,1.4,11-0.5C218.2,61.2,217.2,59.5,216.2,60.2L216.2,60.2z"/>
		</g>
	</g>
	<g class="st1">
		<g>
			<path d="M222.2,62.9c1.7,0.9,3.6,1,5.5,1.1c1.6,0.1,2.9-0.1,3.9-1.5c0.8-1-0.9-2-1.7-1c-0.7,0.9-2.2,0.5-3.2,0.4
				c-1.2-0.1-2.4-0.2-3.6-0.8C222.1,60.7,221.1,62.4,222.2,62.9L222.2,62.9z"/>
		</g>
	</g>
	<g class="st1">
		<g>
			<path d="M233.7,60.3c-1.1-3.4-0.5-6.6-2.1-9.9c-1.7-3.3-4.3-6.2-7.1-8.7c-6-5.3-13.4-9.3-20.6-12.7
				c-15.3-7.3-33.6-12.5-50.7-10.8c-16.5,1.7-33.9,7.9-47.4,17.5C91.6,45.9,82.6,60.2,75.7,76c-0.5,1.1,1.2,2.1,1.7,1
				c6.6-14.9,14.8-28.6,28.1-38.5c12.9-9.7,29.3-15.6,45.3-17.9c16.6-2.4,34.7,2.2,49.8,9c7.1,3.2,14.2,6.9,20.3,11.6
				c3.2,2.5,6.3,5.4,8.4,8.9c2.2,3.7,1.5,7,2.7,10.8C232.3,62,234.1,61.5,233.7,60.3L233.7,60.3z"/>
		</g>
	</g>
	<g class="st1">
		<g>
			<path d="M80.8,75.3c-3.5,0.6-6.2,6.3-7.4,9.2c-2,4.9-2.8,10.3-3.4,15.5c-0.7,6.2-0.7,12.2-0.6,18.5c0.1,6.1,1.8,11.9,2,17.8
				c0,1.3,2,1.3,1.9,0c-0.1-4.4-1.4-8.7-1.8-13.2c-0.4-4.9-0.6-10.1-0.3-15c0.3-5.4,0.8-10.8,2-16.1c0.7-3.1,1.5-6.1,2.9-8.9
				c1-1.9,2.8-5.6,5.2-6C82.6,76.9,82.1,75.1,80.8,75.3L80.8,75.3z"/>
		</g>
	</g>
	<g class="st1">
		<g>
			<path d="M106.6,57.5c8,2.8,14.8,2.1,23,0c1.2-0.3,0.7-2.2-0.5-1.9c-7.8,2-14.3,2.7-21.9,0C105.9,55.2,105.4,57,106.6,57.5
				L106.6,57.5z"/>
		</g>
	</g>
	<g class="st1">
		<g>
			<path d="M131.6,48.2c11.5,0.7,22.8-2,34.3-2c1.3,0,1.3-2,0-2c-11.5,0-22.8,2.7-34.3,2C130.3,46.1,130.3,48.1,131.6,48.2
				L131.6,48.2z"/>
		</g>
	</g>
	<g class="st1">
		<g>
			<path d="M163.6,32.9c5.6,3.5,11.7,4.8,18.1,6.3c3.7,0.9,7.5,1.8,10.7,3.9c4.3,2.8,6.5,6.9,8.9,11.2c0.6,1.1,2.3,0.1,1.7-1
				c-3.6-6.4-7-11.3-14.1-14.1c-8.1-3.2-16.9-3.2-24.4-8C163.6,30.5,162.6,32.2,163.6,32.9L163.6,32.9z"/>
		</g>
	</g>
	<g class="st1">
		<g>
			<path d="M212.8,46.9c1.2,2.1,1.7,4.2,1.6,6.6c0,1.3,1.9,1.3,1.9,0c0-2.7-0.5-5.2-1.9-7.6C213.8,44.8,212.1,45.8,212.8,46.9
				L212.8,46.9z"/>
		</g>
	</g>
	<g class="st1">
		<g>
			<path d="M214.5,68.9c3.4,5,7.4,10.2,9.3,16c2.1,6.1,1.5,12.6,1.1,18.9c-0.7,9.7-2.6,22,2.2,31c0.6,1.1,2.3,0.1,1.7-1
				c-3.1-5.8-2.7-12.5-2.4-18.8c0.2-6.2,0.9-12.4,0.9-18.5c0.1-11.4-5-19.4-11.1-28.6C215.5,66.9,213.8,67.8,214.5,68.9L214.5,68.9z
				"/>
		</g>
	</g>
	<g class="st1">
		<g>
			<path d="M230.9,64.3c5.4,4.3,7.4,12.3,9,18.7c1.7,6.5,1.9,13.2,1.1,19.9c-0.8,6.6-1.7,12.8-3.4,19.2c-1.4,5.1-2,10.7-2.2,16
				c0,1.3,1.9,1.3,1.9,0c0.3-7,1.9-13.7,3.6-20.4c1.6-6.4,2.3-13.8,2.5-20.3c0.2-6.4-0.9-12.8-2.9-18.9c-1.8-5.6-3.5-11.7-8.3-15.6
				C231.3,62.1,229.9,63.5,230.9,64.3L230.9,64.3z"/>
		</g>
	</g>
	<g class="st1">
		<g>
			<path d="M222.5,65.3c2.3,1.9,3.7,4.4,4.8,7.1c0.5,1.1,2.4,0.6,1.9-0.5c-1.2-3-2.7-5.9-5.3-8C222.9,63.1,221.5,64.5,222.5,65.3
				L222.5,65.3z"/>
		</g>
	</g>
	<g class="st1">
		<g>
			<path d="M235.1,102.5c-0.2,1.1-0.3,2.2-0.3,3.3c0,1.3,1.9,1.3,1.9,0c0-0.9,0.1-1.9,0.2-2.8c0.1-0.5-0.1-1-0.7-1.2
				C235.9,101.6,235.2,101.9,235.1,102.5L235.1,102.5z"/>
		</g>
	</g>
	<g class="st1">
		<path d="M97.3,130.4c-0.1-0.5,0.3-0.9,0.5-1.3c0.3-0.6,0.7-1.2,1.2-1.6c0.6-0.6,1.4-1.3,2.1-1.7c0.7-0.4,1.5-0.7,2.2-1.1
			c2.3-1.3,4.8-2.3,7.3-3.2c1.4-0.4,2.6-1.2,4-1.5c1-0.3,1.9-0.6,2.9-0.9c2.3-0.8,4.9-1.2,7.3-1.7c1.8-0.4,3.6-0.4,5.3,0
			c0.9,0.2,1.7,0.8,2.5,1.2c0.4,0.3,0.9,0.5,1.2,0.9c0.5,0.5,1.1,1.4,1.2,2.2c0.1,0.8-0.8,1.2-1.5,1.4c-1.4,0.5-3.1,0.6-4.6,0.7
			c-4.2,0.4-8.4,0.7-12.5,1.6c-4.1,0.9-8.3,1.4-12.3,2.7c-1.5,0.5-3,1.2-4.4,1.9c-0.6,0.3-1.2,0.5-1.7,0.9c-0.4,0.3-0.6,0.7-1.1,0.7
			"/>
		<g>
			<path d="M98.3,130.6c1.1-5.2,11.2-7.8,15.4-9.3c2.8-1,5.6-1.9,8.5-2.5c2.2-0.5,7.6-1.8,8.8-0.1c1.5,0.4,1.7,1.1,0.4,2.3
				c-0.2,1.5-1,2.1-2.4,1.7c-2.4,0.9-5.7,0.5-8.3,0.9c-3.3,0.5-6.5,1.2-9.7,1.8c-3,0.6-5.9,1.1-8.7,2.3c-1.9,0.7-3.6,2.1-5.5,2.8
				c-1.2,0.4-0.7,2.3,0.5,1.9c3.6-1.4,6.8-3.4,10.7-4.3c5.7-1.3,11.6-2.4,17.5-3c3-0.3,14.9-0.5,9.1-6.4c-5.4-5.5-15.6-1.3-21.6,0.8
				c-4.9,1.8-15.2,4.4-16.5,10.6C96.1,131.4,98,131.9,98.3,130.6L98.3,130.6z"/>
		</g>
	</g>
	<g class="st1">
		<path d="M180.3,115.4c-0.6,0-1.1-0.3-1.7-0.4c-0.7-0.1-1.4,0-2.1,0.2c-2.1,0.5-4,1.5-5.7,2.7c-1.3,0.9-2.3,2-2.6,3.6
			c-0.2,1,0.2,1.7,1.2,2c0.9,0.2,1.7,0.2,2.6,0.1c0.7,0,1.5,0,2.2,0c0.8,0,1.5-0.2,2.3-0.2c0.8,0,1.7-0.2,2.5-0.3
			c3.1-0.3,6.2-0.9,9.3-1.2c1.5-0.1,2.8-0.3,4.3-0.1c1.1,0.1,2.1,0,3.2,0c1.9,0,3.7,0.5,5.6,0.9c1.6,0.3,3.2,0.9,4.9,1
			c0.6,0.1,2.3,0.4,2.5-0.4c0.3-1-1.7-1.9-2.3-2.3c-0.7-0.4-1.5-0.9-2.3-1.3c-0.8-0.3-1.6-0.5-2.4-0.8c-2-0.8-4-1.4-6.1-1.9
			c-2.5-0.6-5-0.9-7.6-1.2c-2.7-0.2-5.3-0.7-7.9-0.9"/>
		<g>
			<path d="M180.6,114.4c-4.2-1-9.7,0.9-12.3,4.5c-2.1,3-0.9,5.3,2.4,5.7c6.8,0.8,13.7-1.8,20.5-1.8c4.5,0,8.8,0.9,13.2,1.7
				c1.7,0.3,3.5,0.8,4.9-0.2c0.4-0.3,0.5-0.6,0.4-1.1c-0.7-3.3-6.5-4.7-9.2-5.6c-6.6-2.2-13.6-2.9-20.4-3.4c-1.3-0.1-1.2,1.9,0,2
				c7,0.5,14,1.3,20.7,3.6c0.4,0.1,6.8,2.2,6.4,3.2c-0.2,0.4-8.7-1.7-9.5-1.8c-6.3-0.8-12.4,0.4-18.6,1.1c-2.1,0.2-4.9,1-7,0.5
				c-0.4,0-0.9,0-1.3,0c-1-2.4-0.4-4,1.9-4.8c2.3-1.4,4.6-2.2,7.4-1.6C181.3,116.6,181.8,114.7,180.6,114.4L180.6,114.4z"/>
		</g>
	</g>
	<g class="st1">
		<g>
			<path d="M142.2,225.3c8.9,3.7,19.6,1,28.8-0.5c1.2-0.2,0.7-2.1-0.5-1.9c-8.8,1.4-19.2,4.1-27.8,0.5
				C141.5,223,141,224.9,142.2,225.3L142.2,225.3z"/>
		</g>
	</g>
	<g class="st1">
		<g>
			<path d="M196.5,195.9c0,0.3,0,0.5,0,0.8c0,1.3,1.9,1.3,1.9,0c0-0.3,0-0.5,0-0.8C198.4,194.6,196.5,194.6,196.5,195.9L196.5,195.9
				z"/>
		</g>
	</g>
	<g class="st1">
		<g>
			<path d="M157.6,241c0.8,0,1.7,0,2.5,0c1.3,0,1.3-1.9,0-1.9c-0.8,0-1.7,0-2.5,0C156.3,239.1,156.3,241,157.6,241L157.6,241z"/>
		</g>
	</g>
	<g class="st1">
		<g>
			<path d="M131.6,176.7c-1.2,1.1-1.1,3.2-0.2,4.4c1,1.4,2.6,1.9,4.2,2.3c1.2,0.3,1.7-1.6,0.5-1.9c-0.9-0.2-1.9-0.4-2.6-1
				c-0.6-0.5-1.2-1.7-0.5-2.4C133.9,177.3,132.6,175.9,131.6,176.7L131.6,176.7z"/>
		</g>
	</g>
	<g class="st1">
		<g>
			<path d="M79.6,161c0.2,9.8,3.3,19.3,3.7,29.1c0.4,7.7,0.1,15.4,2.8,22.8c5.4,15.1,18.2,25.5,30.2,35.3
				c11.9,9.7,22.3,22.3,38.4,25c8,1.3,17,1.2,24.7-1.7c3.6-1.3,6.9-3.1,10-5.4c2-1.4,4.8-2.5,5.8-4.8c0.5-1.1-1.2-2.1-1.7-1
				c-1,2.2-7.2,5.7-9.1,6.8c-3.3,1.9-7,3.3-10.8,4.1c-8.5,1.6-17.8,1.1-25.8-2c-7.2-2.8-13.5-7.1-19.1-12.3c-5.4-5-11-9.7-16.6-14.4
				c-10.9-9.2-22.6-20.3-25.7-34.9c-1.5-6.9-0.5-14.1-1.4-21c-1.1-8.4-3.3-16.9-3.4-25.4C81.5,159.8,79.6,159.8,79.6,161L79.6,161z"
				/>
		</g>
	</g>
	<g class="st1">
		<g>
			<path d="M121,275.6c2.8,3.2,6.5,4.9,10.3,6.7c1.1,0.5,2.1-1.1,1-1.7c-3.6-1.7-7.2-3.4-9.9-6.4C121.6,273.3,120.2,274.6,121,275.6
				L121,275.6z"/>
		</g>
	</g>
	<g class="st1">
		<g>
			<path d="M165.2,288c2.8-0.2,5.4-0.8,8.1-1.5c1.2-0.3,0.7-2.2-0.5-1.9c-2.5,0.7-5,1.3-7.6,1.5C163.9,286.1,163.9,288.1,165.2,288
				L165.2,288z"/>
		</g>
	</g>
	<g class="st1">
		<g>
			<path d="M95.5,99.2c0,1.2,0,2.4,0,3.5c0,1.3,2,1.3,2,0c0-1.2,0-2.4,0-3.5C97.5,97.9,95.5,97.9,95.5,99.2L95.5,99.2z"/>
		</g>
	</g>
	<g class="st1">
		<g>
			<path d="M213.7,84c0.2,1.5,0.5,2.9,1,4.3c0.4,1.2,2.3,0.7,1.9-0.5c-0.5-1.2-0.8-2.5-1-3.8C215.5,82.8,213.5,82.8,213.7,84
				L213.7,84z"/>
		</g>
	</g>
	<g class="st1">
		<g>
			<path d="M124.3,28.5c4.4-0.3,8.7-0.5,13.1,0c1.2,0.2,1.2-1.8,0-1.9c-4.4-0.5-8.7-0.3-13.1,0C123,26.6,123,28.5,124.3,28.5
				L124.3,28.5z"/>
		</g>
	</g>
	<g class="st1">
		<g>
			<path d="M103.8,44.6c4-1.3,8.1-2.4,12.1-3.5c1.2-0.3,0.7-2.2-0.5-1.9c-4.1,1.1-8.1,2.3-12.1,3.5C102.1,43.1,102.6,45,103.8,44.6
				L103.8,44.6z"/>
		</g>
	</g>
	<g class="st1">
		<g>
			<path d="M195.8,29.2c2,2,4.2,3.8,6.1,6.1c0.8,1,2.2-0.4,1.4-1.4c-1.8-2.2-4-4-6.1-6.1C196.3,26.9,194.9,28.3,195.8,29.2
				L195.8,29.2z"/>
		</g>
	</g>
	<g class="st1">
		<g>
			<path d="M78.4,120.6c0.2,0.8,0.3,1.7,0.5,2.5c0.1,0.5,0.7,0.8,1.2,0.7c0.5-0.1,0.8-0.7,0.7-1.2c-0.2-0.8-0.3-1.7-0.5-2.5
				c-0.1-0.5-0.7-0.8-1.2-0.7C78.5,119.6,78.3,120.1,78.4,120.6L78.4,120.6z"/>
		</g>
	</g>
	<g class="st1">
		<g>
			<path d="M125.4,206.2c11.1-0.3,22.4,1.6,33.4,0.9c4.3-0.3,8.7-0.8,13-1.3c5.3-0.7,11.2-0.6,16.3-2c-0.3-0.6-0.5-1.2-0.8-1.8
				c-0.1,0-0.1,0.1-0.2,0.1c-1,0.7-0.1,2.4,1,1.7c0.1,0,0.1-0.1,0.2-0.1c0.9-0.6,0.4-2.1-0.8-1.8c-4.8,1.4-10.4,1.1-15.4,1.9
				c-4.8,0.7-9.6,1.3-14.4,1.5c-10.8,0.5-21.6-1.3-32.4-1C124.1,204.3,124.1,206.2,125.4,206.2L125.4,206.2z"/>
		</g>
	</g>
	<g class="st1">
		<g>
			<path d="M191.7,131.9c-3-1.4-6.7-0.4-8.9,2.1c-2.5,3-2.1,8.1,1.5,10c3.1,1.7,8.7,0.9,10.6-2.3C197,138.3,194.7,134,191.7,131.9
				c-2.6-1.7-5,2.4-2.4,4.1c0.7,0.4,2.2,2.2,1.7,3.1c-0.5,1-3.3,1.3-4.2,0.7c-2.1-1.3,0.7-4.7,2.6-3.8
				C192,137.3,194.5,133.2,191.7,131.9z"/>
		</g>
	</g>
	<g class="st1">
		<g>
			<path d="M150.5,194.6c0,1.3-0.1,2.6,0.3,3.9c0.4,1.2,2.3,0.7,1.9-0.5c-0.4-1.1-0.3-2.2-0.3-3.3
				C152.4,193.4,150.5,193.4,150.5,194.6L150.5,194.6z"/>
		</g>
	</g>
	<g class="st1">
		<g>
			<path d="M97.7,142.8c-1.3,0.5-2.5,1.2-3.6,1.9c-1.1,0.6-0.1,2.3,1,1.7c1-0.6,2.1-1.2,3.2-1.7c0.5-0.2,0.8-0.6,0.7-1.2
				C98.8,143.1,98.2,142.6,97.7,142.8L97.7,142.8z"/>
		</g>
	</g>
	<g class="st1">
		<g>
			<path d="M210.6,139.5c1.5-0.7,3.3-0.9,4.9-1.4c1.2-0.3,0.7-2.2-0.5-1.9c-1.8,0.5-3.6,0.8-5.3,1.6
				C208.5,138.4,209.5,140.1,210.6,139.5L210.6,139.5z"/>
		</g>
	</g>
	<g class="st1">
		<g>
			<path d="M196.7,148.9c2.9,0,5,0.8,7.5,2.3c1.1,0.7,2-1,1-1.7c-2.7-1.7-5.2-2.6-8.4-2.6C195.5,147,195.4,149,196.7,148.9
				L196.7,148.9z"/>
		</g>
	</g>
	<g class="st1">
		<g>
			<path d="M137.2,139.1c-6.6-2-12.8-5.7-19.8-6c-6.8-0.3-9.2,4.1-14.4,7.3c-1.1,0.7-0.1,2.3,1,1.7c1.8-1.1,2.7-2,4.2-3.5
				c3.5-3.3,7.8-4,12.4-3.1c5.7,1.1,10.7,3.9,16.2,5.5C137.9,141.3,138.4,139.4,137.2,139.1L137.2,139.1z"/>
		</g>
	</g>
	<g class="st1">
		<g>
			<path d="M137.2,139.8c-4.5,2.5-11,3.8-16,4.8c-5.4,1.1-13,1.3-17.3-2.7c-0.9-0.8-2.3,0.5-1.4,1.4c4.3,3.9,10.6,4.3,16,3.6
				c6.3-0.8,14.2-2.4,19.8-5.4C139.3,140.9,138.3,139.2,137.2,139.8L137.2,139.8z"/>
		</g>
	</g>
	<g class="st1">
		<g>
			<path d="M122.2,133.6c-3.2-1.5-7.2-0.4-9.4,2.4c-2.5,3.2-1.9,8.4,1.9,10.3c3.3,1.6,9,0.8,11-2.6
				C127.7,140.1,125.3,135.6,122.2,133.6c-2.6-1.7-5,2.4-2.4,4.1c0.8,0.5,2.2,2.3,1.8,3.3c-0.5,1.2-3.4,1.5-4.5,1
				c-2.7-1.3,0.5-5.4,2.7-4.3C122.6,139,125,134.9,122.2,133.6z"/>
		</g>
	</g>
	<g class="st1">
		<g>
			<path d="M173.3,148.5c2.9,0.7,5.7,1.2,8.6,1.5c1.2,0.1,1.2-1.8,0-1.9c-2.7-0.3-5.4-0.8-8.1-1.4
				C172.6,146.3,172.1,148.2,173.3,148.5L173.3,148.5z"/>
		</g>
	</g>
	<g class="st1">
		<g>
			<path d="M102,158.3c1.5-2.2,4-3.1,6.4-4c1.2-0.4,0.7-2.3-0.5-1.9c-3,1-5.8,2.2-7.6,4.9C99.6,158.4,101.3,159.3,102,158.3
				L102,158.3z"/>
		</g>
	</g>
</g>
<g id="Layer_3" class="st0">
	<g id="O3HVF6.tif" class="st1">
		
			<image style="overflow:visible;" width="384" height="384" id="Layer_0_1_" xlink:href="6602DFBEFCF24883.png"  transform="matrix(0.724 0 0 0.724 11 11)">
		</image>
	</g>
</g>
<g id="natalie" class="st0">
	<g class="st1">
		<g>
			<path d="M158.7,43.6c-7.6-6.8-19.8-2-27.8,1.4c-11,4.7-19.9,12.9-27.2,22.3c-7.8,10.1-13.2,22.6-17.6,34.5
				c-2.5,6.8-4.5,13.9-7.9,20.3c-1.9,3.5-4.3,6.8-7,9.7c-1.6,1.8-5.2,6-7.9,6.1c-1.3,0.1-1.3,2,0,2c3.5-0.1,6.5-3.8,8.7-6.1
				c3.9-4.1,7.2-8.9,9.5-14.1c5.2-11.4,8.3-23.6,13.9-34.8c5.9-11.7,13.4-22.3,23.6-30.7c5.2-4.2,11-7,17.2-9.3c6.2-2.3,15.4-5,21,0
				C158.2,45.9,159.6,44.5,158.7,43.6L158.7,43.6z"/>
		</g>
	</g>
	<g class="st1">
		<g>
			<path d="M160,38.3c0.4-6.4,4.2-14.1,9-18.3c0.9-0.8-0.4-2.2-1.4-1.4c-5.2,4.6-9.1,12.7-9.6,19.7C157.9,39.6,159.9,39.6,160,38.3
				L160,38.3z"/>
		</g>
	</g>
	<g class="st1">
		<g>
			<path d="M169.7,18.6c-4.9-4.8-12.4-5.2-18.8-6.1c-7.7-1.2-15.1-1-22.8,0.2c-15.2,2.5-30,10.6-41.4,21C74.8,44.5,69.1,57.8,65,73
				c-2.4,8.8-4.3,17.7-7,26.5c-2.3,7.7-6.1,15.4-7.6,23.3c-0.8,4.3-1.4,9-1.2,13.4c0.2,4.3,1.8,7.7,3.3,11.6
				c3.2,8.5,0,18.2,4.3,26.4c0.6,1.1,2.3,0.1,1.7-1c-4.3-8.2-1-17.9-4.2-26.3c-1.3-3.4-2.8-6.1-3.1-9.8c-0.2-2.3,0.1-4.6,0.3-6.9
				c0.5-5.4,1.7-10,3.4-15.1c6.3-17.7,9.2-36.5,15.6-54.1c6.7-18.2,20.8-30.1,37.3-39.3c9.3-5.2,20.3-7.7,30.9-8.1
				c5.4-0.2,10.8,0.8,16.1,1.6c4.8,0.8,9.8,1.3,13.4,4.9C169.2,20.9,170.6,19.5,169.7,18.6L169.7,18.6z"/>
		</g>
	</g>
	<g class="st1">
		<g>
			<path d="M57.4,180.7c6.1,13.1,9.7,26.8,7.4,41.5c-0.2,1.2,1.7,1.8,1.9,0.5c1.1-7.2,0.7-14.7-0.3-21.9c-1.1-7.7-4-14.1-7.3-21.1
				C58.6,178.6,56.9,179.6,57.4,180.7L57.4,180.7z"/>
		</g>
	</g>
	<g class="st1">
		<g>
			<path d="M52.8,220.6c-3.1,3.5-4.6,10.6-1,14.4c3.9,4.1,8.4-0.4,10.9-3.5C73.7,218.2,76.3,198,75,181.5c-0.1-1.2-2-1.3-1.9,0
				c0.9,11.1-0.2,22-3.7,32.7c-1.6,5-3.7,10-6.7,14.2c-1,1.4-2.1,2.7-3.2,3.9c-1.6,1.6-4.6,2.3-6.6,0.6c-1.2-1-0.9-4.3-0.8-5.6
				c0.2-2.2,0.6-3.5,2.3-5.4C55,221,53.6,219.6,52.8,220.6L52.8,220.6z"/>
		</g>
	</g>
	<g class="st1">
		<g>
			<path d="M46.8,220.3c-6.6,5.5-13.2,17.1-9.8,25.9c3.3,8.4,13.7,6.2,20.1,3.2c9.5-4.5,17.6-11.8,22.8-21c5.8-10.3,6.4-21.7,5-33.2
				c-0.2-1.2-2.1-1.2-1.9,0c2.2,17.7-2,34.1-16.2,45.7c-5.9,4.8-19.5,13.9-26.3,6.9c-6.9-7.1,1.7-21.2,7.7-26.1
				C49.2,220.9,47.8,219.5,46.8,220.3L46.8,220.3z"/>
		</g>
	</g>
	<g class="st1">
		<g>
			<path d="M83.6,212.5c3.5,17.5-5.3,32.7-15.2,46.2c-0.7,1,1,2,1.7,1c10.2-14,19-29.7,15.3-47.8C85.2,210.8,83.3,211.3,83.6,212.5
				L83.6,212.5z"/>
		</g>
	</g>
	<g class="st1">
		<g>
			<path d="M75.5,129c-1.9,15.7-3.4,30.5,4.6,44.9c4,7.2,8.8,13.9,11.7,21.7c3.1,8.5,4.3,17.4,5,26.4c0.1,1.2,2,1.3,1.9,0
				c-0.6-7.9-1.6-15.8-3.9-23.5c-2.2-7.2-5.8-13.7-9.7-20c-4.7-7.6-8.4-15.4-9.3-24.4c-0.8-8.4,0.6-16.7,1.6-25.1
				C77.6,127.8,75.7,127.8,75.5,129L75.5,129z"/>
		</g>
	</g>
	<g class="st1">
		<g>
			<path d="M74.9,133.5c1.6,13.5,4.6,25.8,10.4,38.1c3.2,6.7,7.8,11.7,13,16.8c2.9,2.8,5.6,5.7,8.2,8.8c2.4,2.8,4.1,6.2,7,8.6
				c5.2,4.2,12.2,4.1,18.5,3.7c7.5-0.4,13.3-3.5,19.6-7.4c6.5-4,12.3-8.8,18-13.8c4.6-4,9.6-8.3,12.8-13.5c6.3-10.4,9.1-21.3,12-33
				c0.3-1.2-1.6-1.7-1.9-0.5c-2.3,9.2-4.1,18.5-8.6,26.9c-5.6,10.4-14.4,18.8-23.9,25.8c-5.5,4-11.1,7.9-17.2,11
				c-6.5,3.3-17.8,4.4-24.7,1.4c-6.1-2.6-10.3-10.8-14.8-15.6c-5-5.3-10.5-9.9-14.4-16.3c-7.5-12.5-10.4-26.7-12.1-41
				C76.7,132.3,74.7,132.3,74.9,133.5L74.9,133.5z"/>
		</g>
	</g>
	<g class="st1">
		<g>
			<path d="M192,140c2.1,1.8,4.1,3.3,6.9,2.9c2.4-0.3,4.2-1.6,5.3-3.7c0.5-1.1-1.1-2.1-1.7-1c-0.8,1.7-2.3,2.7-4.2,2.9
				c-2,0.1-3.5-1.1-4.9-2.4C192.4,137.8,191,139.2,192,140L192,140z"/>
		</g>
	</g>
	<g class="st1">
		<g>
			<path d="M161.3,46.6c7.4,3.3,9.4,9.1,10.3,16.6c0.7,5.2,1.4,10.3,3.3,15.2c1.9,4.9,4.4,9.6,7.8,13.7c3.8,4.5,8.8,6.9,13.3,10.5
				c10.1,8.2,5.9,23.5,8.9,34.9c0.7,2.5,1.7,4.8,2.8,7.1c1.2,2.7,1.4,5.3,2.1,8.1c0.7,2.7,1.8,5.1,2,8c0.2,2.6,0,4.1,1.1,6.5
				c0.5,1.1,2.2,0.1,1.7-1c-1.5-3.1-0.6-6.9-1.5-10.2c-0.7-2.4-1.4-4.7-1.9-7.1c-1.2-5.5-4.2-10.3-5.2-16c-1.9-10.7,1.2-23.3-8-31.3
				c-5-4.3-10.7-6.9-14.8-12.2c-4.2-5.5-7.2-12.2-8.5-19c-2.1-10.5-1.2-20.6-12.4-25.6C161.1,44.4,160.1,46.1,161.3,46.6L161.3,46.6
				z"/>
		</g>
	</g>
	<g class="st1">
		<g>
			<path d="M186.3,73.2c7.6,7.7,11.1,16.7,14.1,26.8c1.1,3.7,2.3,7.7,4.3,11c2.4,3.9,5.5,7.3,7.8,11.3c2,3.5,4.1,6.8,6.9,9.9
				c1.3,1.5,2.9,2.8,4,4.4c2.1,3,2.4,6.6,2.3,10.2c0,7.5-1.6,15.8,3,22.4c0.6,0.9,2,0.4,1.8-0.8c-1.9-9.5,2-19.3,3.3-28.7
				c1.1-7.6,0.5-15.2-2-22.5c-2.8-8-7.2-15.3-10.2-23.3c-3-8.1-4.6-16.6-7.5-24.7c-0.4-1.2-2.3-0.7-1.9,0.5
				c2.9,8.1,4.5,16.6,7.5,24.7c3,8,7.4,15.3,10.2,23.3c3.3,9.4,2.8,18.5,0.8,28.1c-1.6,7.3-3.5,15.6-2,23.1c0.6-0.3,1.2-0.5,1.8-0.8
				c-5.6-8-1.6-18.3-3.1-27.2c-0.6-3.5-2.2-5.8-4.6-8.3c-3.8-4-6.5-8.2-9.3-12.9c-2.3-3.9-5.6-7.1-7.6-11.1
				c-2.3-4.5-3.4-9.6-4.8-14.5c-2.6-8.5-6.8-16.1-13.1-22.5C186.8,70.9,185.4,72.3,186.3,73.2L186.3,73.2z"/>
		</g>
	</g>
	<g class="st1">
		<g>
			<path d="M170.2,19.4c1.6-1.9,6.4-1.3,8.6-0.8c3.5,0.8,6.5,3.1,8.9,5.7c4.3,4.6,8.1,10.4,11.3,15.8c3,5,4.6,10.3,6.8,15.6
				c1.3,3.2,2.7,6.2,4.1,9.4c1.2,2.7,3.1,5.2,4,7.9c0.4,1.2,2.3,0.7,1.9-0.5c-1.1-3.3-3.3-6.3-4.6-9.5c-1.6-3.8-3.3-7.6-4.8-11.5
				c-2.8-7.4-6.4-13.9-11-20.4c-3.6-5.1-7.4-10.8-13.3-13.4c-3.2-1.4-10.5-2.8-13.2,0.4C168,19,169.4,20.4,170.2,19.4L170.2,19.4z"
				/>
		</g>
	</g>
	<g class="st1">
		<g>
			<path d="M167.5,35.7c4.3-0.6,8.6,3.1,10.8,6.5c2.2,3.3,3.5,7.2,5.6,10.6c0.6,1.1,2.3,0.1,1.7-1c-4.2-7-8-19.5-18.6-17.9
				C165.8,34,166.3,35.9,167.5,35.7L167.5,35.7z"/>
		</g>
	</g>
	<g class="st1">
		<g>
			<path d="M177.5,28.7c9.3,1.9,13.1,9.7,16.2,17.9c2.7,7.3,5.1,14.7,7.9,21.9c0.4,1.2,2.3,0.7,1.9-0.5c-3.5-9.1-6.1-18.6-10.1-27.4
				c-3.2-7-7.7-12.2-15.4-13.8C176.8,26.6,176.3,28.4,177.5,28.7L177.5,28.7z"/>
		</g>
	</g>
	<g class="st1">
		<g>
			<path d="M208.8,88.5c3.4,8.2,7,15.9,12.8,22.7c0.8,1,2.2-0.4,1.4-1.4c-5.5-6.6-9-14-12.2-21.8C210.2,86.8,208.3,87.3,208.8,88.5
				L208.8,88.5z"/>
		</g>
	</g>
	<g class="st1">
		<g>
			<path d="M233,136.6c6.3,4,5.8,8.8,4.5,15.4c-0.6,3.2-1.1,6.4-0.2,9.6c1.3,4.3,5.7,7.2,5.8,11.9c0.1,4.8-2.5,8.7-4.7,12.7
				c-0.3,0.5-0.1,1.3,0.6,1.4c0.1,0,0.1,0,0.2,0c1.2,0.2,1.8-1.7,0.5-1.9c-0.1,0-0.1,0-0.2,0c0.2,0.5,0.4,1,0.6,1.4
				c2.2-4,4.4-7.5,4.8-12.2c0.5-5.9-4.1-8.6-5.8-13.9c-1.9-5.9,2.2-11.5,1.3-17.4c-0.6-4-3.2-6.8-6.6-8.8
				C232.9,134.2,231.9,135.9,233,136.6L233,136.6z"/>
		</g>
	</g>
	<g class="st1">
		<g>
			<path d="M227.8,166c3.2,7.9,6.4,14.4,11.3,21.4c5.4,7.8,10.2,16,10,25.9c-0.1,4.6-0.9,9.3-0.6,13.9c0.3,3.8,1.9,7.2,2.5,11
				c1.6,9.7-10.4,21.9-19.8,22.9c-1.2,0.1-1.2,2.1,0,2c7.5-0.8,14.1-7.1,18.4-12.9c2.3-3.1,4-6.5,3.6-10.4
				c-0.6-5.9-3.1-11.1-2.8-17.2c0.3-5.1,1.1-10.4,0.3-15.5c-0.7-4.3-2.7-8.4-4.7-12.2c-2.5-4.7-5.8-9-8.8-13.4
				c-3.4-5-5.3-10.3-7.5-15.8C229.2,164.3,227.3,164.8,227.8,166L227.8,166z"/>
		</g>
	</g>
	<g class="st1">
		<g>
			<path d="M228.5,180.8c0.2,5.1,3.1,9.5,2.7,15c-0.4,7.2-4.5,13.5-9,18.9c-3.3,4-7.1,7.6-10.4,11.7c-2.1,2.6-4.8,5.4-4.2,8.9
				c0.2,1.2,2.1,0.7,1.9-0.5c-0.8-4.8,7.9-11.6,10.8-14.9c3.3-3.6,6.4-7.4,8.9-11.6c2.2-3.9,3.8-8,4-12.5c0.1-2.4-0.1-4.8-0.6-7.1
				c-0.6-2.6-2.1-5.2-2.2-7.9C230.4,179.5,228.5,179.5,228.5,180.8L228.5,180.8z"/>
		</g>
	</g>
	<g class="st1">
		<g>
			<path d="M200.1,217.2c-1.7,5.2-2.7,10.4,0.2,15.4c2.6,4.5,7.2,6.7,11.8,8.4c7.5,2.8,13.8,5.6,17.2,13.4c3.1,7.2,1.8,14.5,1.8,22
				c0,1.3,1.9,1.3,2,0c0.1-11.1,1.6-22.2-7.3-30.6c-4-3.8-8.9-5.1-13.9-7c-3.9-1.5-7.8-3.5-9.9-7.3c-2.6-4.6-1.5-9.1,0-13.9
				C202.3,216.6,200.4,216.1,200.1,217.2L200.1,217.2z"/>
		</g>
	</g>
	<g class="st1">
		<g>
			<path d="M231,280.8c0,1.7,0.1,3.5-0.5,5.1c-1.3,3.5-5.2,2.9-6.9,0c-1.5-2.7-2.4-5.8-3.1-8.7c-1.1-4.6-2.2-9.4-5.2-13.3
				c-3.1-4-7.6-6.8-11.1-10.5c-4.2-4.5-8.6-9.7-11.6-15.1c-7.1-12.5-2.7-26.1,3-38.1c4.4-9.1,12.3-18.8,11.2-29.5
				c-0.1-1.2-2.1-1.2-2,0c0.8,8.1-4.1,16-7.9,22.7c-3.6,6.4-6.8,13.2-8.8,20.3c-1.7,6.1-1.8,12.8-0.1,18.9
				c1.8,6.3,5.9,11.4,9.9,16.5c4.2,5.3,9.4,9.2,14,14c5.8,6,5.6,14.2,8.8,21.4c1.4,3.2,3.8,7.1,7.9,6.2c4.3-1,4.2-6.5,4.2-10
				C233,279.5,231,279.5,231,280.8L231,280.8z"/>
		</g>
	</g>
	<g class="st1">
		<g>
			<path d="M249.6,214.5c1.9,13.6,16.9,20.3,16.1,34.8c-0.9,15.3-17.1,22.4-28.9,28.1c-1.1,0.6-0.1,2.2,1,1.7
				c11.8-5.8,25.5-11.9,29.2-25.8c1.7-6.5-0.1-13.4-3.7-19c-4.5-6.9-10.6-11.6-11.8-20.3C251.3,212.8,249.4,213.3,249.6,214.5
				L249.6,214.5z"/>
		</g>
	</g>
	<g class="st1">
		<g>
			<path d="M238.2,207.2c4,6.2,0.4,14-1.8,20.2c-0.4,1.2,1.5,1.7,1.9,0.5c2.5-6.8,6-15,1.7-21.8
				C239.2,205.2,237.5,206.2,238.2,207.2L238.2,207.2z"/>
		</g>
	</g>
	<g class="st1">
		<g>
			<path d="M216.5,184.5c0.4,6.6-1.4,11.8-4.1,17.8c-0.5,1.1,1.2,2.1,1.7,1c2.8-6.2,4.8-11.9,4.4-18.7
				C218.4,183.3,216.4,183.2,216.5,184.5L216.5,184.5z"/>
		</g>
	</g>
	<g class="st1">
		<g>
			<path d="M193.3,145.8c1.3,8.4,3.9,15.2-0.4,23.3c-3.2,5.9-8,10.6-11.9,16c-5.5,7.6-8.8,21.7,1.8,26.8c1.1,0.5,2.1-1.1,1-1.7
				c-8-3.8-6.9-14.6-3.1-21c2.9-5,7.1-9.1,10.5-13.7c2.8-3.9,5.6-8.2,6.3-13.1c0.9-5.8-1.3-11.4-2.2-17
				C195,144,193.1,144.5,193.3,145.8L193.3,145.8z"/>
		</g>
	</g>
	<g class="st1">
		<g>
			<path d="M189.8,209.8c-10.7-3.6-2.6-17.7,2.5-22.1c4.4-3.8,7.7-6.5,9.7-12.2c0.4-1.2-1.5-1.7-1.9-0.5
				c-3.1,9.2-13.6,12.4-16.6,21.9c-1.7,5.6-0.4,12.7,5.7,14.8C190.4,212.1,190.9,210.2,189.8,209.8L189.8,209.8z"/>
		</g>
	</g>
	<g class="st1">
		<g>
			<path d="M202.8,202c-0.7,2.3-1.7,4.4-2.9,6.5c-0.6,1.1,1.1,2.1,1.7,1c1.2-2.2,2.3-4.5,3.1-7C205.1,201.3,203.2,200.8,202.8,202
				L202.8,202z"/>
		</g>
	</g>
	<g class="st1">
		<g>
			<path d="M100.5,190.5c0.1,3.7,1.2,7.3,0.6,11.1c-0.5,3.5-2.1,6.6-3.4,9.9c-0.5,1.2,1.4,1.7,1.9,0.5c1.3-3.4,2.9-6.5,3.5-10.2
				c0.6-3.9-0.5-7.5-0.7-11.3C102.4,189.2,100.5,189.2,100.5,190.5L100.5,190.5z"/>
		</g>
	</g>
	<g class="st1">
		<path d="M88.8,99.3c0.2,0,0.4-0.3,0.6-0.4c0.3-0.2,0.6-0.3,0.9-0.4c1.4-0.4,2.8-0.5,2.8-0.5c4-0.1,8.5,0.5,8.5,0.5
			c2.8,0.4,4.1,0.6,5,0.9c1.5,0.5,2.4,1,4,0.9c0.6,0,2.5-0.1,2.9-1.2c0.2-0.6-0.2-1.3-0.2-1.3c-0.5-0.5-1.4-0.8-2-0.9
			c-1.5-0.4-3.1-0.4-4.6-0.5c-1.7-0.1-3.4,0-5.1,0c-1,0-1.6,0-2.1,0c-0.6-0.1-1.1-0.1-1.2-0.1c-1.5-0.2-3.7-0.1-5.7,0.5
			c-0.8,0.2-1.8,0.5-3,1.1"/>
		<g>
			<path d="M89.3,100.2c4.5-2.4,11.6-1.2,16.4,0c2.1,0.5,7.5,2.6,8.7-0.7c1.3-3.4-4.1-3.9-6.2-4c-6.1-0.5-13.2-1-18.9,1.4
				c-1.1,0.5-0.6,2.4,0.5,1.9c4.7-1.9,9.3-1.4,14.3-1.4c1.3,0,8.3-0.5,7.7,1.8c-0.2,0.9-5.2-0.8-6.4-1c-5.4-1.1-12.1-2.3-17.1,0.4
				C87.2,99.1,88.2,100.7,89.3,100.2L89.3,100.2z"/>
		</g>
	</g>
	<g class="st1">
		<path d="M179.4,100.2c-0.4-0.2-0.7-0.4-1.1-0.6c-0.8-0.5-1.6-0.9-2.5-1.3c-2.1-0.9-4.3-1.6-6.5-2.3c-2.2-0.6-4.3-1.2-6.5-1.6
			c-1.9-0.3-3.9-0.7-5.8-0.8c-2.3-0.1-4.6,0.1-6.9,0.5c-1.1,0.2-2.3,0.5-3.4,0.8c-0.9,0.2-1.7,0.5-2.5,0.9c-0.4,0.2-0.9,0.4-1.3,0.7
			c-0.3,0.2-0.6,0.3-0.9,0.5c-0.3,0.2-0.7,0.6-0.7,1c0,0.5,0.6,0.6,1,0.7c0.7,0.1,1.2,0.1,1.9,0c3.2-0.4,6.2-1.5,9.3-2
			c1.7-0.2,3.3-0.5,5-0.7c1.5-0.2,3-0.2,4.5-0.2c0.5,0,0.9,0,1.3,0c0.8,0.1,1.4,0.2,1.6,0.2c0.7,0.1,2,0.3,4.5,0.4"/>
		<g>
			<path d="M179.9,99.4c-6.3-3.8-14.1-5.8-21.4-6.6c-4-0.4-8.1,0-12,1.2c-1.6,0.5-4.9,1.2-5.8,3c-1.9,4,5.4,2.4,6.9,2.1
				c4.6-1,9.2-2.1,13.9-2.2c3-0.1,5.9,0.4,8.9,0.6c1.3,0.1,1.3-1.9,0-1.9c-4-0.2-7.8-0.8-11.8-0.4c-2,0.2-15.2,2.8-15.3,2.5
				c-0.3-1.2,7.8-2.6,8.6-2.7c3.4-0.4,6.6-0.1,9.9,0.4c5.9,1,11.9,2.7,17,5.8C180,101.7,181,100.1,179.9,99.4L179.9,99.4z"/>
		</g>
	</g>
	<g class="st1">
		<g>
			<path d="M140.9,112.4c5.5-2.4,9.5-6.7,15.9-6.6c5.2,0.1,9.1,3.5,14,4.6c1.2,0.3,1.7-1.6,0.5-1.9c-5.6-1.3-9.7-4.9-15.7-4.7
				c-6.3,0.3-10.2,4.4-15.7,6.8C138.7,111.2,139.7,112.9,140.9,112.4L140.9,112.4z"/>
		</g>
	</g>
	<g class="st1">
		<g>
			<path d="M141.3,112.5c4.8,1.5,10,1.6,14.9,1.1c4.1-0.4,9.2-0.7,12.4-3.5c0.3-0.3,0.4-0.8,0.2-1.2c0,0,0,0,0-0.1
				c-0.7-1-2.4,0-1.7,1c-0.7-1-5.4,1.1-6.8,1.3c-2.4,0.4-4.9,0.7-7.3,0.8c-3.8,0.1-7.6-0.1-11.2-1.2
				C140.6,110.2,140.1,112.1,141.3,112.5L141.3,112.5z"/>
		</g>
	</g>
	<g class="st1">
		<g>
			<path d="M152.4,105.7c-1.4,2.1-2,4.9,0.3,6.6c2,1.4,5,1.7,7,0.1c2.1-1.7,1.5-4.5-0.2-6.3c-1.7-1.8-4.7-2-6.6-0.4
				c-1.5,1.3,0.7,3.4,2.1,2.1c1.5-1.3,4.2,1.9,2.2,2.6c-0.7,0.2-2.1,0.1-2.7-0.5c-0.8-0.8,0-1.9,0.5-2.7
				C156.1,105.6,153.5,104.1,152.4,105.7L152.4,105.7z"/>
		</g>
	</g>
	<g class="st1">
		<g>
			<path d="M89.2,112.2c5.6-1.8,10.1-5.3,16.2-4.1c4.1,0.8,7.3,3.7,11.4,4.4c1.2,0.2,1.8-1.7,0.5-1.9c-4.6-0.8-8-4.1-12.6-4.7
				c-6-0.8-10.6,2.6-16,4.4C87.5,110.7,88,112.6,89.2,112.2L89.2,112.2z"/>
		</g>
	</g>
	<g class="st1">
		<g>
			<path d="M91.4,111.9c6,3.7,17.4,5.1,23.4,0.7c1-0.7,0-2.4-1-1.7c-5.4,4-15.9,2.7-21.5-0.7C91.4,109.5,90.4,111.2,91.4,111.9
				L91.4,111.9z"/>
		</g>
	</g>
	<g class="st1">
		<g>
			<path d="M101.7,106.7c-2.2,0.3-3.7,2.8-3.3,4.9c0.4,2.4,3.4,3.6,5.7,3.4c2.4-0.2,4.3-2,4.1-4.5c-0.2-2.5-2.8-3.5-4.8-4.3
				c-1.8-0.7-2.6,2.2-0.8,2.9c0.7,0.3,1.9,0.5,2.4,1.2c0.6,0.8,0,1.5-0.8,1.7c-0.6,0.1-2.2-0.1-2.6-0.7c-0.6-0.8,0.3-1.7,1-1.8
				C104.4,109.3,103.6,106.4,101.7,106.7L101.7,106.7z"/>
		</g>
	</g>
	<g class="st1">
		<g>
			<path d="M111.5,147c2.9,1.3,5.2,2.7,7.5,5c1.6,1.6,3.1,2.9,5.3,3.4c5.6,1.3,10.1-3.9,15-5.3c1.2-0.3,0.7-2.2-0.5-1.9
				c-5.4,1.5-10.8,7.8-16.5,4c-1.8-1.2-2.9-3.1-4.6-4.4c-1.5-1.2-3.4-1.8-5.1-2.6C111.4,144.8,110.4,146.4,111.5,147L111.5,147z"/>
		</g>
	</g>
	<g class="st1">
		<g>
			<path d="M123.4,117.3c0.1,2.3,0.1,4.6,0,6.8c0,1.3,1.9,1.3,2,0c0.1-2.3,0.1-4.6,0-6.8C125.3,116.1,123.3,116.1,123.4,117.3
				L123.4,117.3z"/>
		</g>
	</g>
	<g class="st1">
		<g>
			<path d="M173.6,113.1c1.5,0.4,3,0.5,4.6,0.4c1.2-0.1,1.3-2.1,0-1.9c-1.4,0.1-2.7,0.1-4.1-0.3
				C172.9,110.9,172.4,112.7,173.6,113.1L173.6,113.1z"/>
		</g>
	</g>
	<g class="st1">
		<g>
			<path d="M195.7,110c0.9,7.6-0.8,15.2-2.3,22.6c-0.3,1.2,1.6,1.7,1.9,0.5c1.6-7.6,3.3-15.3,2.4-23.1
				C197.5,108.8,195.5,108.8,195.7,110L195.7,110z"/>
		</g>
	</g>
	<g class="st1">
		<g>
			<path d="M71,113.5c7.1-9.8,12.6-19.9,17-31.2c4.8-12.5,10.6-23.4,21.4-31.7c1-0.8-0.4-2.1-1.4-1.4c-9.3,7.3-15.4,16.6-19.9,27.4
				c-2.5,6.2-4.7,12.5-7.7,18.5c-3.1,6.2-7,11.8-11.1,17.4C68.6,113.5,70.3,114.5,71,113.5L71,113.5z"/>
		</g>
	</g>
	<g class="st1">
		<g>
			<path d="M150.8,25.7c-14.9-5-26.3,3.9-38.3,11.8c-1,0.7-0.1,2.4,1,1.7c11.4-7.5,22.4-16.3,36.7-11.6
				C151.4,28,151.9,26.1,150.8,25.7L150.8,25.7z"/>
		</g>
	</g>
	<g class="st1">
		<g>
			<path d="M111,26.5c-8.2,3.8-15.1,8-21,15c-5.7,6.8-8.9,14.2-11.1,22.7c-0.3,1.2,1.6,1.7,1.9,0.5C83,56,86.4,48.5,92.4,41.6
				c5.5-6.2,12.1-10,19.6-13.5C113.1,27.6,112.1,26,111,26.5L111,26.5z"/>
		</g>
	</g>
	<g class="st1">
		<g>
			<path d="M69.9,86.1c-3,11.1-7.8,20.7-13.9,30.4c-0.7,1.1,1,2,1.7,1c6.2-9.9,11-19.6,14.1-30.9C72.1,85.4,70.2,84.9,69.9,86.1
				L69.9,86.1z"/>
		</g>
	</g>
	<g class="st1">
		<g>
			<path d="M68.2,143.8c-0.6,5.1-3.6,9.7-4.8,14.7c-1,4.2-0.7,8.2,0,12.4c0.2,1.2,2.1,0.7,1.9-0.5c-1-5.6-0.5-10.5,1.3-15.8
				c1.3-3.6,3.1-6.9,3.5-10.8C70.3,142.6,68.3,142.6,68.2,143.8L68.2,143.8z"/>
		</g>
	</g>
	<g class="st1">
		<g>
			<path d="M77.2,206.1c-0.8,3.1-1.7,6.3-2.7,9.3c-0.4,1.2,1.5,1.7,1.9,0.5c1-3.1,1.9-6.2,2.7-9.3C79.4,205.4,77.5,204.9,77.2,206.1
				L77.2,206.1z"/>
		</g>
	</g>
	<g class="st1">
		<g>
			<path d="M241.5,236c0.4,3.9-2.2,7.1-4.7,9.8c-0.9,0.9,0.5,2.3,1.4,1.4c2.9-3.1,5.8-6.7,5.3-11.2
				C243.3,234.8,241.4,234.8,241.5,236L241.5,236z"/>
		</g>
	</g>
	<g class="st1">
		<g>
			<path d="M256.7,242.9c1.4,10.3-5.3,15.6-12.1,22.1c-0.9,0.9,0.5,2.2,1.4,1.4c3.8-3.6,8.2-7.1,10.8-11.6c2.3-3.9,2.4-7.9,1.7-12.3
				C258.4,241.2,256.6,241.7,256.7,242.9L256.7,242.9z"/>
		</g>
	</g>
	<g class="st1">
		<g>
			<path d="M183.7,207.2c-0.6,6.7-4.5,13.6-7.3,19.5c-3,6.3-6.3,12.6-9.5,18.8c-0.6,1.1,1.1,2.1,1.7,1c3.8-7.3,7.7-14.6,11.1-22.1
				c2.4-5.4,5.5-11.3,6-17.2C185.8,205.9,183.8,205.9,183.7,207.2L183.7,207.2z"/>
		</g>
	</g>
	<g class="st1">
		<g>
			<path d="M126.4,160.7c1.2,0.1,2.3-0.1,3.5-0.1c1.3,0,1.3-1.9,0-2c-1.2,0-2.3,0.2-3.5,0.1C125.1,158.7,125.1,160.6,126.4,160.7
				L126.4,160.7z"/>
		</g>
	</g>
	<g class="st1">
		<g>
			<path d="M179.1,154.7c-0.7,2.5-1.7,4.8-2.9,7.1c-0.6,1.1,1.1,2.1,1.7,1c1.2-2.4,2.3-4.9,3.1-7.6
				C181.3,154.1,179.4,153.5,179.1,154.7L179.1,154.7z"/>
		</g>
	</g>
	<g class="st1">
		<g>
			<path d="M134.9,137.4c0.3,1.4,1.1,2.5,2,3.5c0.9,0.9,2.2-0.5,1.4-1.4c-0.7-0.8-1.3-1.6-1.5-2.7
				C136.5,135.7,134.7,136.2,134.9,137.4L134.9,137.4z"/>
		</g>
	</g>
	<g class="st1">
		<g>
			<path d="M121.3,134.5c0,1.3,0,2.5-0.4,3.7c-0.4,1.2,1.5,1.7,1.9,0.5c0.5-1.4,0.5-2.8,0.5-4.3
				C123.3,133.3,121.3,133.3,121.3,134.5L121.3,134.5z"/>
		</g>
	</g>
	<g class="st1">
		<g>
			<path d="M97.4,212.5c0,1.1,0.7,1.9,1.3,2.7c0.8,1.2,1.6,2.4,2.5,3.5c1.9,2.3,4.1,4.3,6.6,5.9c1,0.7,2-1,1-1.7
				c-2.1-1.4-4.1-3.1-5.7-5c-0.8-1-1.5-2-2.3-3c-0.4-0.6-1.6-1.8-1.6-2.5C99.4,211.3,97.4,211.3,97.4,212.5L97.4,212.5z"/>
		</g>
	</g>
	<g class="st1">
		<g>
			<path d="M190.1,152.4c-0.1,7.8-2.2,15.2-2.9,22.9c-0.1,1.3,1.8,1.2,2,0c0.7-7.7,2.8-15,2.9-22.9
				C192.1,151.1,190.1,151.1,190.1,152.4L190.1,152.4z"/>
		</g>
	</g>
	<g class="st1">
		<g>
			<path d="M171.4,51c4.3,5.7,7.2,10.7,8.8,17.9c1.4,6.3,1.7,12.6,5.4,18.1c0.7,1,2.4,0.1,1.7-1c-4.3-6.2-4.1-14.1-6.1-21.2
				c-1.7-5.9-4.5-9.9-8.1-14.8C172.3,49,170.6,50,171.4,51L171.4,51z"/>
		</g>
	</g>
	<g class="st1">
		<g>
			<path d="M152.7,36.3c0.8,0.8,1.6,1.7,2.6,2.2c0.5,0.2,1.1,0.1,1.3-0.3c0.2-0.4,0.1-1.1-0.3-1.3c-0.9-0.4-1.6-1.1-2.2-1.8
				C153.2,34,151.8,35.4,152.7,36.3L152.7,36.3z"/>
		</g>
	</g>
	<g class="st1">
		<g>
			<path d="M101.7,166c1.8-0.9,5.5-0.6,7.5-0.6c2.4,0,4.8,0.2,7.2,0.5c3.9,0.6,7.6,1.9,11.6,2c9.4,0.2,18.6-3.8,27.9-2.1
				c1.2,0.2,1.8-1.7,0.5-1.9c-10.2-1.8-19.9,2.8-30.1,1.9c-4.7-0.4-9.1-1.9-13.8-2.3c-3.4-0.2-8.6-0.8-11.8,0.7
				C99.6,164.8,100.6,166.5,101.7,166L101.7,166z"/>
		</g>
	</g>
	<g class="st1">
		<g>
			<path d="M103.2,165.6c6.6,7.7,13.6,13.6,24.2,13.4c11.8-0.2,21.5-7.1,30.7-13.6c1-0.7,0-2.4-1-1.7c-8.4,6-17.4,12.6-28,13.3
				c-10.9,0.7-17.9-5-24.6-12.8C103.8,163.3,102.4,164.7,103.2,165.6L103.2,165.6z"/>
		</g>
	</g>
	<g class="st1">
		<g>
			<path d="M104.7,166.4c7.4,1,14,4.4,21.3,5.3c1.2,0.2,1.2-1.8,0-2c-7.2-0.9-13.6-4.3-20.8-5.3C104,164.4,103.4,166.3,104.7,166.4
				L104.7,166.4z"/>
		</g>
	</g>
	<g class="st1">
		<g>
			<path d="M133.9,171.5c3.9-0.2,7.5-2.4,11.2-3.5c1.2-0.3,0.7-2.2-0.5-1.9c-3.5,1-7,3.2-10.7,3.4
				C132.6,169.6,132.6,171.6,133.9,171.5L133.9,171.5z"/>
		</g>
	</g>
	<g class="st1">
		<g>
			<path d="M155.4,164.6c-2.4-0.1-4.8,0.4-7.1,0.8c-1.2,0.2-0.7,2.1,0.5,1.9c2.1-0.4,4.4-0.9,6.6-0.8
				C156.6,166.6,156.6,164.6,155.4,164.6L155.4,164.6z"/>
		</g>
	</g>
	<g class="st1">
		<g>
			<path d="M51.9,259.9c-3.2,4.8-7.1,15.6-1,19.9c7.3,5.2,20.2-3.3,26-7.6c7.9-5.8,13.9-14.2,17.5-23.2c4.5-11,3.5-21.4,1.3-32.8
				c-0.2-1.2-2.1-0.7-1.9,0.5c1.8,9,3.2,17.5,0.6,26.5c-2.2,7.6-6.2,14.7-11.4,20.6c-5.5,6.3-12.7,10.9-20.5,13.9
				c-5.2,2-12.5,2-12.7-4.9c-0.1-4.2,1.5-8.5,3.7-11.9C54.3,259.9,52.6,258.9,51.9,259.9L51.9,259.9z"/>
		</g>
	</g>
	<g class="st1">
		<g>
			<path d="M62.5,190c-5.4,0.1-8.8,5.7-9.9,10.5c-1.3,6,1.1,11.6,5.5,15.6c0.9,0.8,2.3-0.5,1.4-1.4c-3.2-3-5.4-6.7-5.3-11.2
				c0.1-4.4,3.1-11.4,8.3-11.5C63.8,192,63.8,190,62.5,190L62.5,190z"/>
		</g>
	</g>
	<g class="st1">
		<g>
			<path d="M98.4,149.4c-1.2,2.3-4.1,3.3-5.2,5.5c-1,1.8,0.2,5.3,0.8,7.1c0.4,1.2,2.3,0.7,1.9-0.5c-0.5-1.5-0.9-3-1-4.5
				c-0.1-1.2,0.3-1.5,1.3-2.3c1.4-1.2,3-2.5,3.9-4.2C100.7,149.3,99,148.3,98.4,149.4L98.4,149.4z"/>
		</g>
	</g>
	<g class="st1">
		<g>
			<path d="M153.4,123.9c4.1-1.4,8.3-1.4,12.6-1.5c1.3,0,1.3-2,0-1.9c-4.4,0-8.9,0.1-13.1,1.5C151.7,122.4,152.2,124.3,153.4,123.9
				L153.4,123.9z"/>
		</g>
	</g>
	<g class="st1">
		<g>
			<path d="M89.9,123.1c3-2.6,8.4-2.4,12.2-2.5c1.3,0,1.3-2,0-1.9c-4.3,0.1-10.1,0-13.5,3.1C87.5,122.6,88.9,124,89.9,123.1
				L89.9,123.1z"/>
		</g>
	</g>
</g>
<g id="jr">
	<g>
		<g>
			<path d="M83.1,182.1c0.9,6.3,1,12.7,2.6,18.8c1.3,5.1,3.6,8.8,6.9,12.9c3.5,4.4,7.8,7.2,12.3,10.6c5,3.7,9.8,7.7,14.7,11.8
				c7.2,6,18.5,10.7,27.9,8.2c5.3-1.4,10.7-4.5,15.4-7.4c5.2-3.3,8.4-7.9,12.1-12.7c0.8-1-0.6-2.4-1.4-1.4
				c-3.5,4.4-6.3,8.7-11.1,11.9c-4.4,3-9.9,6-15,7.5c-11.6,3.4-23.1-4.4-31.5-11.5c-7.7-6.6-17.1-11.7-23.3-19.8
				c-6.6-8.7-6.3-19-7.8-29.4C84.8,180.4,83,180.9,83.1,182.1L83.1,182.1z"/>
		</g>
	</g>
	<g>
		<g>
			<path d="M207.4,174.6c-1.1,8.3-5,14.8-8.4,22.2c-0.2,0.5-0.1,1.1,0.3,1.3c0,0,0.1,0,0.1,0.1c1.1,0.6,2.1-1.1,1-1.7
				c0,0-0.1,0-0.1-0.1c0.1,0.4,0.2,0.9,0.3,1.3c3.5-7.6,7.4-14.2,8.6-22.7C209.4,173.9,207.5,173.4,207.4,174.6L207.4,174.6z"/>
		</g>
	</g>
	<g>
		<g>
			<path d="M210.2,175.5c0.1,10.1-1.4,19.9-2,30c-0.6,10.4,0.7,20.6,3.6,30.6c0.3,1.2,2.2,0.7,1.9-0.5c-3-10.4-4.3-21.1-3.3-32
				c0.8-9.5,2-18.6,1.9-28.1C212.1,174.3,210.2,174.3,210.2,175.5L210.2,175.5z"/>
		</g>
	</g>
	<g>
		<g>
			<path d="M216.8,129.4c2.7-2.3,6.6-5.5,10.1-2.8c2.6,2,2.4,5.4,2.3,8.3c-0.2,5-1.3,10-0.5,15c0.8,5.3,1.6,9.9-0.7,15
				c-1.2,2.7-2.9,5.1-5.1,7c-2.7,2.3-9.6,6.1-12.4,2.1c-0.7-1-2.4,0-1.7,1c3.8,5.3,11.6,1.6,15.5-1.8c6-5.1,8.2-13,7-20.6
				c-0.9-5.5-0.5-10.2-0.2-15.8c0.2-3.1,0.7-6.9-1-9.6c-4.3-6.9-9.8-3.5-14.7,0.6C214.4,128.8,215.8,130.2,216.8,129.4L216.8,129.4z
				"/>
		</g>
	</g>
	<g>
		<g>
			<path d="M216.5,142.6c5-3.2,7.4,7.1,8.5,10.2c0.4,1.2,2.3,0.7,1.9-0.5c-1.6-4.5-4.5-15.7-11.4-11.3
				C214.5,141.6,215.5,143.3,216.5,142.6L216.5,142.6z"/>
		</g>
	</g>
	<g>
		<g>
			<path d="M214.7,145.6c-0.2,3.3,2.6,4.1,4,6.4c1.8,2.9-3.3,4.2-3,6.8c0.2,1.2,2.1,1.2,1.9,0c-0.1-0.5,1.6-2,2-2.6
				c0.7-0.9,1.6-2,1.5-3.2c-0.1-3.2-4.8-3.9-4.6-7.4C216.7,144.4,214.8,144.4,214.7,145.6L214.7,145.6z"/>
		</g>
	</g>
	<g>
		<g>
			<path d="M216.9,160.3c1.4-0.4,2.9-0.8,4.3-1c1.2-0.2,0.7-2.1-0.5-1.9c-1.4,0.2-3,0.6-4.3,1C215.2,158.8,215.7,160.7,216.9,160.3
				L216.9,160.3z"/>
		</g>
	</g>
	<g>
		<g>
			<path d="M221.4,131.2c1.2-0.6,2.2,0.3,3.1,1c1,0.8,2.4-0.6,1.4-1.4c-0.8-0.7-1.7-1.4-2.7-1.7c-1-0.3-1.9-0.1-2.8,0.4
				C219.3,130,220.2,131.7,221.4,131.2L221.4,131.2z"/>
		</g>
	</g>
	<g>
		<g>
			<path d="M214.3,166.9c1.2,0.2,2.5,0.5,3.7,0.4c1.2-0.1,1.3-2,0-1.9c-1.1,0.1-2.1-0.1-3.2-0.3C213.6,164.8,213,166.7,214.3,166.9
				L214.3,166.9z"/>
		</g>
	</g>
	<g>
		<g>
			<path d="M189.1,173.8c1.2,5,1.8,9.5,0.5,14.6c-0.3,1.2,1.6,1.7,1.9,0.5c1.4-5.4,0.7-10.3-0.5-15.7
				C190.7,172.1,188.8,172.6,189.1,173.8L189.1,173.8z"/>
		</g>
	</g>
	<g>
		<g>
			<path d="M118.3,160.5c0.7,5.1-0.7,8,5,10.1c4.7,1.7,8.4,4.8,13.8,4.3c2.8-0.2,4.5-1.6,6.8-3.1c2.7-1.8,5.9-2.2,8.6-4
				c3.4-2.3,6.2-5.9,3.7-9.8c-0.7-1.1-2.4-0.1-1.7,1c3.8,6-6.1,8.3-9.2,9.7c-1.8,0.8-3.2,2.3-5,3.2c-2.9,1.4-6.5,1.4-9.4,0.1
				c-1.9-0.9-3.5-2.1-5.5-3c-2.5-1-4.4-0.9-5-4.2c-0.3-1.4,0.1-3.3-0.1-4.8C120,158.7,118.1,159.2,118.3,160.5L118.3,160.5z"/>
		</g>
	</g>
	<g>
		<g>
			<path d="M124.5,165.2c0.3,1.1,0.5,2.3,1,3.4c0.5,1,1.3,1.9,2,2.7c0.8,1,2.2-0.4,1.4-1.4c-0.6-0.7-1.3-1.5-1.7-2.3
				c-0.4-0.9-0.5-1.9-0.8-2.9C126,163.5,124.1,164,124.5,165.2L124.5,165.2z"/>
		</g>
	</g>
	<g>
		<g>
			<path d="M142.7,158.3c0.4,0.6,0.8,1.3,1.1,2c0.3,0.8,0.4,1.7,0.5,2.5c0.1,1.2,2.1,1.2,1.9,0c-0.1-1-0.2-2.1-0.5-3
				c-0.3-0.9-0.8-1.7-1.3-2.5C143.7,156.2,142,157.2,142.7,158.3L142.7,158.3z"/>
		</g>
	</g>
	<g>
		<g>
			<path d="M127.7,143.2c-0.2,2.2-0.4,4.5-0.3,6.7c0.1,1.3,2,1.3,2,0c-0.1-2.3,0-4.5,0.3-6.7C129.8,142,127.9,142,127.7,143.2
				L127.7,143.2z"/>
		</g>
	</g>
	<g>
		<g>
			<path d="M80.1,154.7c0.5,8.2,1.9,16.1,1.4,24.4c-0.1,1.3,1.8,1.2,2,0c0,0,0-0.1,0-0.1c0.1-1.2-1.8-1.2-1.9,0c0,0,0,0.1,0,0.1
				c0.7,0,1.3,0,2,0c0.5-8.3-0.9-16.2-1.4-24.4C81.9,153.5,80,153.4,80.1,154.7L80.1,154.7z"/>
		</g>
	</g>
	<g>
		<g>
			<path d="M83,182.1c-8.8-2-9.8-14.5-10.4-21.8c-0.2-3.4-0.3-6.7-0.6-10.1c-0.1-1.2-0.8-5.8,0-6.7c2.7-2.7,4.1,3.7,4.5,4.9
				c0.4,1.2,2.3,0.7,1.9-0.5c-0.8-2.1-2.2-9.6-6.1-7.9c-4.3,1.8-2.1,10.7-2,13.9c0.3,9.4,0,27.4,12.1,30.2
				C83.7,184.3,84.2,182.4,83,182.1L83,182.1z"/>
		</g>
	</g>
	<g>
		<g>
			<path d="M76.8,149.8c-0.1,1.8-0.6,3.1-1.4,4.7c-0.5,0.9-1,1.7-1.1,2.8c-0.2,1.9,1.2,3.4,2.1,4.9c0.7,1.1,2.3,0.1,1.7-1
				c-0.4-0.7-1.1-1.4-1.4-2.1c-0.8-1.9,0-2.6,0.8-4.2c0.8-1.7,1.2-3.2,1.3-5C78.9,148.6,76.9,148.6,76.8,149.8L76.8,149.8z"/>
		</g>
	</g>
	<g>
		<g>
			<path d="M73.3,124.9c-1.2,2.4-1.2,4.3,0.2,6.6c1.1,1.9,2.9,3.3,3.6,5.5c0.9,2.9,1.1,5.7,1.6,8.7c1.3,7.8,7.8,13.4,15.4,15
				c7,1.5,16.2,1.4,21.8-3.7c3.1-2.9,6.2-6.5,8.3-10.2c2.6-4.4,2.6-9.8,4.9-14.2c0.3-0.6,0-1.2-0.6-1.4c0,0-0.1,0-0.1,0
				c-1.2-0.4-1.7,1.4-0.5,1.9c0,0,0.1,0,0.1,0c-0.2-0.5-0.4-1-0.6-1.4c-1.3,2.5-1.6,5.5-2.4,8.2c-1.5,4.9-4.2,8.9-7.6,12.7
				c-5.5,6-12.1,7.8-20.1,6.6C88,158,82,152.8,80.5,143.4c-0.4-2.8-1-5.8-1.9-8.5c-0.9-2.6-5.1-6-3.6-9
				C75.6,124.8,73.9,123.8,73.3,124.9L73.3,124.9z"/>
		</g>
	</g>
	<g>
		<g>
			<path d="M129.8,131c0-0.1-0.1-0.2-0.1-0.2c-0.1,0.4-0.1,0.8-0.2,1.2c1.1-1.1,3.3-0.8,4.7-0.8c0.5,0,3.2-0.2,3.5,0.4
				c0.6,1.1,2.3,0.1,1.7-1c-0.9-1.4-3.4-1.4-4.9-1.4c-2.1-0.1-4.8-0.1-6.5,1.4c-0.3,0.3-0.3,0.8-0.2,1.2c0,0.1,0.1,0.2,0.1,0.2
				C128.6,133.1,130.3,132.1,129.8,131L129.8,131z"/>
		</g>
	</g>
	<g>
		<g>
			<path d="M74.8,126.3c2.3-1.2,5-1.4,7.5-1.9c3.5-0.6,6.9-1.7,10.4-2.1c5.9-0.7,12.2-1,18.1-0.6c6.2,0.4,11.8,1.8,17.4,4.2
				c3.5,1.5,7.4,1.6,11.2,1c1.2-0.2,0.7-2.1-0.5-1.9c-6.5,1.1-10.8-2.3-16.7-3.6c-5.4-1.1-10.8-1.9-16.3-1.8c-5.6,0-11.5,0.2-17,1.3
				c-4.8,1-10.7,1.3-15,3.6C72.7,125.2,73.7,126.9,74.8,126.3L74.8,126.3z"/>
		</g>
	</g>
	<g>
		<g>
			<path d="M140,126.1c4.4-3.6,11.8-6.1,17.2-7.5c6.1-1.6,12-2.4,18.4-2.2c2.1,0.1,4.3,0.2,6.4,0.3c1.9,0.1,5.8-0.1,7.4,1.1
				c0.3,0.1,0.6,0.1,0.9,0.2c0.2,1.2,0.4,2.4,0.6,3.5c-0.2,0.3-0.9,0.2-1,0.5c-0.3,0.8-0.7,0.5-0.8,1.5c-0.1,1.3,1.9,1.2,1.9,0
				c0,0,3.4-1.7,3.8-2.8c0.4-1.2,0.3-2.1-0.4-3.1c-1.3-1.8-4.5-1.8-6.4-2.2c-3-0.5-5.9-0.7-8.9-0.9c-7.7-0.4-14.3,0.1-21.7,1.9
				c-6.2,1.5-13.8,4.1-18.8,8.2C137.7,125.5,139.1,126.8,140,126.1L140,126.1z"/>
		</g>
	</g>
	<g>
		<g>
			<path d="M185.2,116.9C185.2,116.9,185.2,116.9,185.2,116.9c-0.5,0.2-1,0.5-1.5,0.8c1.8,1.1,3.1,3.2,3.9,5.1
				c0.6,1.5,1.9,1.8,2.9,0.5c1.2-1.4,0.6-2.8-0.7-3.9c-0.6-0.4-1.2-0.8-1.7-1.3c-0.4-0.5-0.7-0.9-1.3-1.2c-0.9-0.4-1.4,0.8-1.1,1.4
				c0.6,1.2,2,1.3,3.1,1.9c1.1,0.6,2.1-1.1,1-1.7c-0.7-0.4-2-0.5-2.4-1.2c-0.4,0.5-0.7,1-1.1,1.4c-0.4-0.2,0.2,0.4,0.3,0.6
				c0.2,0.3,0.4,0.5,0.8,0.7c0.4,0.3,0.8,0.5,1.2,0.8c0.3,0.2,0.7,0.4,0.6,0.8c0,0.1-0.1,0.3-0.2,0.4c-0.2,0.2-0.1,0.2,0.2,0
				c0.2,0.1,0.4,0.3,0.6,0.4c-0.4-0.5-0.5-1.3-0.8-1.9c-0.3-0.6-0.8-1.1-1.2-1.7c-0.9-1.2-1.7-2.2-3-3c-0.6-0.4-1.6,0.1-1.5,0.8
				c0,0,0,0.1,0,0.1C183.4,118.1,185.4,118.2,185.2,116.9L185.2,116.9z"/>
		</g>
	</g>
	<g>
		<g>
			<path d="M188.3,121.3c1.1,7.4-1,16.2-3.2,23.3c-1.5,4.7-3.6,7.6-8.5,8.8c-3.6,0.9-7.1,1.5-10.9,1.3c-8.3-0.6-14.9-3.8-18.8-11.4
				c-1.4-2.7-2.2-5.6-3.5-8.2c-0.9-1.8-3.3-3.7-3.9-5.4c-0.4-1.2-2.3-0.7-1.9,0.5c0.4,1,1.1,1.6,1.9,2.4c1.5,1.7,2.5,3.8,3.4,5.8
				c1.5,3.3,2.6,6.6,4.7,9.6c5,7,14,9.2,22.2,8.7c6.7-0.4,13.6-2.4,16.3-9c3.2-7.7,5.3-18.6,4.1-26.9
				C189.9,119.5,188.1,120,188.3,121.3L188.3,121.3z"/>
		</g>
	</g>
	<g>
		<g>
			<path d="M141.6,124.1c0,0-0.1,0-0.1,0c-0.3,0-0.7,0.2-0.8,0.5c-0.5,0.9-0.6,2-0.6,3c-0.1,1.4-0.2,2.8-0.1,4.2
				c0.1,1.2,2.1,1.3,1.9,0c-0.1-1.1,0-2.2,0.1-3.4c0-0.9-0.1-2,0.4-2.9c-0.3,0.2-0.6,0.3-0.8,0.5c0,0,0.1,0,0.1,0
				C142.8,126.1,142.8,124.2,141.6,124.1L141.6,124.1z"/>
		</g>
	</g>
	<g>
		<g>
			<path d="M126,125.4c1,1.6,1.1,3.6,1.1,5.4c0,1.3,1.9,1.3,1.9,0c0-2.2-0.1-4.5-1.3-6.4C127,123.4,125.3,124.4,126,125.4L126,125.4
				z"/>
		</g>
	</g>
	<g>
		<g>
			<path d="M129.6,128.1c3,0.1,5.7,0.6,8.6,1.1c0.2-0.6,0.3-1.3,0.5-1.9c-2.2-0.4-4.9-0.2-7.1,0.1c-1,0.2-0.9,1.7,0,1.9
				c2.3,0.5,4.8,0.3,7.2,0.8c1.2,0.2,1.8-1.6,0.5-1.9c-2.4-0.5-4.9-0.2-7.2-0.8c0,0.6,0,1.3,0,1.9c1-0.2,2.1-0.1,3.1-0.1
				c1,0,2-0.2,3,0c1.2,0.2,1.8-1.6,0.5-1.9c-3.1-0.6-5.9-1.1-9.1-1.2C128.4,126.1,128.4,128.1,129.6,128.1L129.6,128.1z"/>
		</g>
	</g>
	<g>
		<g>
			<path d="M124.3,124.5c2,0.6,2,5.7,2,7c0,2.1-0.3,4-0.7,6c-0.2,1.2,1.7,1.8,1.9,0.5c0.5-3.2,1.1-6.2,0.6-9.6
				c-0.3-1.9-1.2-5.2-3.3-5.9C123.7,122.3,123.2,124.2,124.3,124.5L124.3,124.5z"/>
		</g>
	</g>
	<g>
		<g>
			<path d="M143.8,121.6c-2.1,2-2.8,5.5-2.8,8.2c0,2.3,0.3,5.8,1.7,7.8c0.7,1,2.4,0,1.7-1c-1.1-1.5-1.3-4.2-1.4-6
				c-0.2-2.4,0.4-5.9,2.2-7.6C146.1,122.1,144.7,120.7,143.8,121.6L143.8,121.6z"/>
		</g>
	</g>
	<g>
		<g>
			<path d="M83.5,122.5c-2.4,1.6-4.1,3-5.3,5.6c-1.2,2.7-1.3,5.5-1.2,8.4c0.1,1.2,2,1.3,1.9,0c-0.1-2.3-0.1-4.7,0.7-6.9
				c1-2.5,2.7-4,4.8-5.5C85.6,123.5,84.6,121.8,83.5,122.5L83.5,122.5z"/>
		</g>
	</g>
	<g>
		<g>
			<path d="M75.6,124.5c-0.7,1.3-1.7,3.8-0.7,5.2c0.3,0.4,0.9,0.7,1.3,0.3c0.7-0.5,1.2-1.1,1.7-1.8c0.4-0.6,0.6-1.4,1.1-1.9
				c-0.6-0.2-1.1-0.5-1.7-0.7c-0.2,1.4-0.6,2.9-0.9,4.3c-0.2,1.1,1.2,1.7,1.8,0.8c0.4-0.6,0.6-1.3,0.9-2c0.3-0.6,0.6-1.3,0.6-2
				c0-0.8-1.1-1.3-1.7-0.7c-0.9,1-1.4,2.2-1.8,3.5c-0.4,1.1,1.2,1.6,1.8,0.8c0.7-0.9,1.4-1.7,2.2-2.5c0.9-0.9-0.5-2.3-1.4-1.4
				c-0.9,0.9-1.7,1.8-2.5,2.9c0.6,0.3,1.2,0.5,1.8,0.8c0.3-0.9,0.7-1.9,1.3-2.6c-0.6-0.2-1.1-0.5-1.7-0.7c0,0.6-0.3,1.1-0.6,1.5
				c-0.2,0.5-0.4,1.1-0.6,1.5c0.6,0.3,1.2,0.5,1.8,0.8c0.4-1.6,0.8-3.2,1-4.8c0.1-0.9-1.1-1.2-1.7-0.7c-1,1-1.2,2.7-2.4,3.5
				c0.4,0.1,0.9,0.2,1.3,0.3c-0.5-0.7,0.3-2.6,0.7-3.2C77.9,124.4,76.2,123.4,75.6,124.5L75.6,124.5z"/>
		</g>
	</g>
	<g>
		<g>
			<path d="M191.6,121.5c4.6-0.9,9.6,0,14.2,0.7c4.3,0.6,9.8,0.7,13.7,3c1.1,0.6,2.1-1,1-1.7c-4.3-2.5-10.7-2.7-15.5-3.4
				c-4.5-0.7-9.3-1.3-13.8-0.4C189.8,119.8,190.3,121.7,191.6,121.5L191.6,121.5z"/>
		</g>
	</g>
	<g>
		<g>
			<path d="M190.7,118.4c6.5,0.1,12.6-0.1,19.1,1.2c2.9,0.6,6.1,1.1,8.8,2.4c1.5,0.7,2.7,2,4.2,2.6c1.2,0.4,1.7-1.5,0.5-1.9
				c-1.3-0.5-2.6-1.9-3.9-2.5c-3.1-1.4-6.7-2-10-2.6c-6.3-1.2-12.3-1-18.7-1.1C189.4,116.4,189.4,118.4,190.7,118.4L190.7,118.4z"/>
		</g>
	</g>
	<g>
		<g>
			<path d="M203.4,120c1.5,6.1,2.8,12.3,3.3,18.6c0.4,4.1-0.3,8.3,0.8,12.4c0.2,0.8,1.4,1,1.8,0.2c0.9-1.8,1-3.9,1.6-5.9
				c0.8-2.6,1.9-5.1,3-7.6c0.5-1.2-1.4-1.7-1.9-0.5c-0.8,2-1.7,4-2.4,6.1c-0.8,2.2-0.9,4.9-1.9,7c0.6,0.1,1.2,0.2,1.8,0.2
				c-1.2-4.6-0.4-9.7-1-14.4c-0.7-5.6-1.8-11.1-3.1-16.6C205,118.3,203.1,118.8,203.4,120L203.4,120z"/>
		</g>
	</g>
	<g>
		<g>
			<path d="M184.3,66.6c4.7,2.2,10.3,4.8,13.4,9.2c3.5,4.9,4.1,11.4,4.3,17.2c0.3,8.8-2.3,16.3,1.9,24.5c0.6,1.1,2.3,0.1,1.7-1
				c-3-6-2.4-11.2-1.9-17.6c0.4-4.7,0.2-9.4-0.5-14.1c-1.6-10.7-8.6-15.6-17.9-19.9C184.2,64.4,183.2,66.1,184.3,66.6L184.3,66.6z"
				/>
		</g>
	</g>
	<g>
		<g>
			<path d="M225.8,123.4c-0.9-15.9,9.1-32.9,2.7-48.6c-2.4-5.7-7.3-10.6-12.2-14.3c-3.5-2.7-11.4-7.5-15.9-5.2
				c-1.1,0.6-0.1,2.3,1,1.7c2.7-1.4,8.9,1.9,11,3.2c2.8,1.7,5.3,3.9,7.6,6.2c5.6,5.6,8.3,11.7,8.4,19.6c0.1,7-1.3,14-2.4,20.9
				c-0.9,5.5-2.4,11-2.1,16.6C223.9,124.6,225.9,124.6,225.8,123.4L225.8,123.4z"/>
		</g>
	</g>
	<g>
		<g>
			<path d="M207,66.4c2.1,1,4.1,2.4,5.4,4.4c0.7,1,2.4,0.1,1.7-1c-1.5-2.3-3.6-3.9-6.1-5.1C206.8,64.2,205.9,65.9,207,66.4L207,66.4
				z"/>
		</g>
	</g>
	<g>
		<g>
			<path d="M212.5,85.2c0.8,3,1.1,5.9,1,9c-0.1,1.3,1.9,1.3,1.9,0c0.2-3.3-0.1-6.3-1-9.5C214,83.5,212.1,84,212.5,85.2L212.5,85.2z"
				/>
		</g>
	</g>
	<g>
		<g>
			<path d="M219,106c-0.1,0.4-0.2,0.8-0.3,1.2c-0.3,1.2,1.6,1.7,1.9,0.5c0.1-0.4,0.2-0.8,0.3-1.2C221.1,105.3,219.3,104.8,219,106
				L219,106z"/>
		</g>
	</g>
	<g>
		<g>
			<path d="M163.2,163.3c1.5,7.7,7.9,11.4,15,12.9c1.2,0.2,1.7-1.6,0.5-1.9c-6.5-1.3-12.3-4.4-13.7-11.5
				C164.8,161.6,162.9,162.1,163.2,163.3L163.2,163.3z"/>
		</g>
	</g>
	<g>
		<g>
			<path d="M110,173.1c-1.6,2.2-3.4,4.2-5.3,6.2c-0.9,0.9,0.5,2.3,1.4,1.4c2.1-2,3.9-4.3,5.6-6.5C112.5,173.1,110.8,172.1,110,173.1
				L110,173.1z"/>
		</g>
	</g>
	<g>
		<g>
			<path d="M112.5,192.3c3.3,3.3,9,5.1,13.5,6.2c6.1,1.5,12.5,1.2,18.6,0.3c10.1-1.5,18.6-4.4,26.1-11.5c0.7-0.7,0-1.9-0.9-1.6
				c-9.1,2.5-20.1,0.8-29.4,0.7c-8.1-0.1-16.9,0.1-24.7,2.7c-1.2,0.4-0.7,2.3,0.5,1.9c8.8-2.9,18.7-2.7,27.8-2.6
				c8.5,0.1,18,1.5,26.3-0.8c-0.3-0.5-0.6-1.1-0.9-1.6c-6.6,6.3-13.9,9-22.8,10.6c-5.4,0.9-11.1,1.5-16.6,0.8
				c-5.2-0.7-12.4-2.6-16.2-6.4C113,190,111.6,191.4,112.5,192.3L112.5,192.3z"/>
		</g>
	</g>
	<g>
		<g>
			<path d="M133.6,182.6c2.1,1.2,4.6,0.1,6.7-0.3c1.2-0.2,0.7-2.1-0.5-1.9c-1.5,0.3-3.7,1.3-5.2,0.5
				C133.5,180.2,132.5,181.9,133.6,182.6L133.6,182.6z"/>
		</g>
	</g>
	<g>
		<g>
			<path d="M202.5,55.2c2-5.7,1.6-9.8-2-14.9c-3.9-5.4-9.1-10-14.5-13.9c-11.8-8.5-26.6-10.6-40.8-8.6c-15.3,2.2-30.7,7-43.4,16.1
				c-6.1,4.4-12,9.4-16.4,15.5c-3.9,5.2-6,11.2-9,16.9c-0.6,1.1,1.1,2.1,1.7,1c2.5-4.7,4.3-9.6,7.1-14.1c3.8-6,9.2-11.3,14.9-15.6
				c10.9-8.3,23.2-13.2,36.5-16.2c14-3.2,29.8-3.9,42.9,3.1c5.4,2.9,10.3,7.1,14.7,11.5c2.4,2.4,4.7,5,6.3,7.9c2,3.7,1.5,7,0.2,10.8
				C200.3,55.9,202.1,56.4,202.5,55.2L202.5,55.2z"/>
		</g>
	</g>
	<g>
		<g>
			<path d="M192.5,58.7c-5.9,5.5-15.1,3.6-22.1,1.5c-3.4-1-6.8-2.2-10-3.7c-2.7-1.2-4.9-3.1-7.5-4.4c-1.1-0.6-2.1,1.1-1,1.7
				c3.1,1.6,5.8,3.8,9.1,5.1c4.5,1.9,9.2,3.6,14.1,4.5c6.7,1.2,13.5,1.6,18.8-3.3C194.8,59.3,193.5,57.9,192.5,58.7L192.5,58.7z"/>
		</g>
	</g>
	<g>
		<g>
			<path d="M151.9,54.5c-7.3,6.8-20,8.7-29.6,10.4c-10,1.7-20.2,1.9-30.3,2.6c-1.2,0.1-1.3,2,0,1.9c10.9-0.7,21.9-0.9,32.7-3
				c9.6-1.8,21.3-3.7,28.6-10.5C154.2,55,152.8,53.6,151.9,54.5L151.9,54.5z"/>
		</g>
	</g>
	<g>
		<g>
			<path d="M91.3,68.6c-0.9,1.5-1.4,3.2-2.3,4.7c-1.7,2.7-4.4,4.6-6.4,7.1c-2.7,3.4-4.5,7.9-5.5,12.1c-2.8,10.9,2.7,20.1,4.9,30.4
				c0.3,1.2,2.1,0.7,1.9-0.5c-2.3-10.6-7.9-19.9-4.4-31c1.7-5.3,4.1-9.3,8-13.2c2.6-2.6,3.6-5.6,5.5-8.6
				C93.7,68.6,92,67.6,91.3,68.6L91.3,68.6z"/>
		</g>
	</g>
	<g>
		<g>
			<path d="M76.7,66.8c-7.6,7.9-7.4,20.3-7.1,30.4c0.1,5.4,1,10.6,2.2,15.9c0.6,2.7,0.9,9.4,3.6,11c1.1,0.6,2.1-1,1-1.7
				c-1.1-0.6-1.4-4.6-1.7-5.6c-0.5-2.1-1-4.1-1.4-6.2c-1-4.8-1.6-9.4-1.7-14.3c-0.2-9.4-0.4-20.9,6.6-28.2
				C78.9,67.2,77.6,65.9,76.7,66.8L76.7,66.8z"/>
		</g>
	</g>
	<g>
		<g>
			<path d="M88.3,70.4c1.4-0.5,2.7-1,4.1-1.6c0.5-0.2,0.6-0.9,0.3-1.3c-0.3-0.5-0.9-0.6-1.3-0.3c-1.2,0.5-2.4,1-3.6,1.4
				C86.6,68.9,87.1,70.8,88.3,70.4L88.3,70.4z"/>
		</g>
	</g>
	<g>
		<g>
			<path d="M94.6,58.6c9.5-0.3,18.5-0.2,27.9,1.5c1.2,0.2,1.8-1.7,0.5-1.9c-9.5-1.8-18.8-1.9-28.4-1.6
				C93.3,56.7,93.3,58.6,94.6,58.6L94.6,58.6z"/>
		</g>
	</g>
	<g>
		<g>
			<path d="M157,19.4c12.6,3.1,25.3,8.3,33.5,19c0.8,1,2.4,0,1.7-1c-8.6-11.1-21.5-16.7-34.7-19.9C156.3,17.2,155.8,19.1,157,19.4
				L157,19.4z"/>
		</g>
	</g>
	<g>
		<g>
			<path d="M129.7,24c15.9-0.6,33.3,8.4,43.6,20.4c0.8,0.9,2.2-0.4,1.4-1.4c-10.7-12.3-28.5-21.6-45-20.9
				C128.5,22.1,128.5,24.1,129.7,24L129.7,24z"/>
		</g>
	</g>
	<g>
		<g>
			<path d="M117.8,40.5c5.3-0.2,10.5,0.2,15.8,0.7c1.2,0.1,1.2-1.8,0-2c-5.2-0.5-10.5-0.9-15.8-0.7
				C116.5,38.6,116.5,40.5,117.8,40.5L117.8,40.5z"/>
		</g>
	</g>
	<g>
		<g>
			<path d="M135,55.5c3.2,0,6.7-0.1,9.8-1.1c1.2-0.4,0.7-2.3-0.5-1.9c-2.9,1-6.2,1-9.2,1C133.8,53.5,133.8,55.5,135,55.5L135,55.5z"
				/>
		</g>
	</g>
	<g>
		<g>
			<path d="M175.8,57.7c2.4,0.1,4.9,0.3,7.3,0.4c1.3,0.1,1.3-1.9,0-2c-2.4-0.1-4.9-0.2-7.3-0.4C174.6,55.7,174.6,57.7,175.8,57.7
				L175.8,57.7z"/>
		</g>
	</g>
	<g>
		<g>
			<path d="M192.4,54.7c0.2,0.7,0.4,1.4,0.5,2.2c0.1,0.5,0.4,1,1,1c0.5,0,1-0.4,1-1c-0.1-0.9-0.3-1.8-0.5-2.7
				C193.9,53,192.1,53.5,192.4,54.7L192.4,54.7z"/>
		</g>
	</g>
	<g>
		<g>
			<path d="M196.9,54.6c-0.2,0.5-0.5,1.1-0.7,1.6c-0.2,0.5-0.1,1,0.3,1.3c0.4,0.2,1.1,0.1,1.3-0.3c0.2-0.5,0.5-1.1,0.7-1.6
				c0.2-0.5,0.1-1-0.3-1.3C197.8,54,197.1,54.1,196.9,54.6L196.9,54.6z"/>
		</g>
	</g>
	<g>
		<g>
			<path d="M75.9,78.9c-0.2,0.5-0.5,1.1-0.7,1.6c-0.2,0.5-0.1,1,0.3,1.3c0.4,0.2,1.1,0.1,1.3-0.3c0.2-0.5,0.5-1.1,0.7-1.6
				c0.2-0.5,0.1-1-0.3-1.3C76.8,78.3,76.1,78.4,75.9,78.9L75.9,78.9z"/>
		</g>
	</g>
	<g>
		<g>
			<path d="M95.9,44.8c2.1-0.3,4.2-0.6,6.3-0.8c1.2-0.1,1.2-2.1,0-1.9c-2.3,0.2-4.5,0.5-6.8,0.9C94.1,43.1,94.6,45,95.9,44.8
				L95.9,44.8z"/>
		</g>
	</g>
	<g>
		<g>
			<path d="M124.5,27.9c1,0.2,1.9,0.4,2.9,0.7c1.2,0.3,1.7-1.6,0.5-1.9c-1-0.2-1.9-0.4-2.9-0.7C123.8,25.7,123.2,27.6,124.5,27.9
				L124.5,27.9z"/>
		</g>
	</g>
	<g>
		<g>
			<path d="M190.4,62.5c1.5,0.4,2.9,0.8,4.2,1.5c1.1,0.5,2.1-1.1,1-1.7c-1.5-0.7-3.1-1.2-4.7-1.7C189.7,60.3,189.1,62.2,190.4,62.5
				L190.4,62.5z"/>
		</g>
	</g>
	<g>
		<g>
			<path d="M134,93.1c4.5-0.3,9.1-0.4,13.6-0.6c1.3,0,1.3-2,0-2c-4.5,0.1-9.1,0.3-13.6,0.6C132.7,91.2,132.7,93.2,134,93.1L134,93.1
				z"/>
		</g>
	</g>
	<g>
		<path d="M164.2,114.5c-4.1-0.8-8.4-0.7-12.4,0.4c-1.7,0.5-3.6,0.9-4.8,2.3c-0.2,0.2-0.5,0.6-0.2,0.9c0.3,0.4,1.1,0.4,1.6,0.4
			c2.6,0.4,5.3,0.4,8,0.5c4.6,0.1,9.1,0.4,13.7,0.6c3.9,0.2,7.8,0.4,11.6,0.9c1.5,0.2,3,0.5,4.4,1c0.1-0.3-0.7-0.7-0.9-0.8
			c-1.6-0.9-3.4-1.4-5.2-2c-3.6-1.2-7.4-2-11.2-2.7c-4.2-0.8-8.5-1.3-12.7-1.7"/>
		<g>
			<path d="M164.4,113.5c-5-0.8-11-1-15.8,1.3c-1.4,0.7-4.1,2.3-2.4,4.1c1,1,4.2,0.8,5.2,0.9c3.5,0.2,7.1,0.2,10.7,0.4
				c7.8,0.3,16.1,0.1,23.6,2.3c0.8,0.2,1.6-0.7,1.1-1.4c-1.9-2.9-8.4-3.9-11.3-4.6c-6.4-1.6-13-2.4-19.5-3.1c-1.2-0.1-1.2,1.8,0,1.9
				c5.4,0.5,10.9,1.3,16.2,2.4c2.8,0.6,11.2,1.6,12.9,4.3c0.4-0.5,0.7-1,1.1-1.4c-7.7-2.2-16.2-2-24.1-2.3
				c-1.2-0.1-11.9,0.3-12.3-0.5c-1.4-3.3,12.6-2.5,14-2.3C165.1,115.6,165.7,113.7,164.4,113.5L164.4,113.5z"/>
		</g>
	</g>
	<g>
		<g>
			<path d="M148.4,118.7c4.5,0,8.8-0.3,13.2,0.2c3.3,0.4,7.1,2,10.3,1.7c1.2-0.1,1.3-2,0-2c-3.4,0.3-7.6-1.5-11.1-1.8
				c-4.2-0.5-8.3-0.1-12.4-0.1C147.1,116.7,147.1,118.7,148.4,118.7L148.4,118.7z"/>
		</g>
	</g>
	<g>
		<path d="M87.5,123.2c3-1.2,6.4-1.8,9.6-2.4c5.5-1.1,11.2-1.7,16.8-1.7c1.7,0,3.4,0.2,5,0.1c0.4,0,0.8,0,1-0.2
			c0.2-0.2,0.3-0.4,0.2-0.7c-0.3-1.2-1.8-1.8-2.8-2c-1.4-0.3-2.9-0.3-4.3-0.2c-1.9,0.1-3.8,0.3-5.8,0.5c-2.5,0.4-5.2,0.7-7.7,1.3
			c-2,0.4-3.9,1-5.8,1.7"/>
		<g>
			<path d="M87.7,124.1c5.6-2,11.7-3,17.7-3.6c4.8-0.5,10.2,0.4,14.8-0.7c0.3-0.1,0.6-0.4,0.7-0.7c2.4-8.3-24.3-1.6-27.4-0.6
				c-1.2,0.4-0.7,2.3,0.5,1.9c3.9-1.3,7.9-2.2,12-2.8c2.8-0.4,5.7-0.8,8.5-0.7c1.9-0.7,2.9-0.3,2.8,1.2c-1.1-0.1-2.2-0.1-3.4-0.1
				c-8.8,0-18.3,1.3-26.7,4.2C86,122.6,86.5,124.5,87.7,124.1L87.7,124.1z"/>
		</g>
	</g>
	<g>
		<g>
			<path d="M81.2,120.3c2.6,6.4,2.2,15.4,1.4,22.1c-0.1,1.2,1.8,1.2,2,0c0.7-6.9,1.2-16.1-1.5-22.6
				C82.6,118.6,80.8,119.1,81.2,120.3L81.2,120.3z"/>
		</g>
	</g>
	<g>
		<g>
			<path d="M150.3,131.7c2.9-4.3,11-5.8,15.9-6c5.4-0.1,8.5,1.9,12.5,5.1c1,0.8,2.4-0.6,1.4-1.4c-5-4-9.1-6.2-15.8-5.5
				c-5.3,0.5-12.6,2.1-15.8,6.8C147.9,131.8,149.6,132.8,150.3,131.7L150.3,131.7z"/>
		</g>
	</g>
	<g>
		<g>
			<path d="M148.8,132.2c4.6,3.2,13.4,3.5,18.8,3.4c3.9,0,11.7-0.3,14.1-4.2c0.7-1.1-1-2.1-1.7-1c-1.2,1.9-7.2,2.9-9.1,3.1
				c-2.1,0.2-4.2,0.2-6.3,0.1c-4.3-0.2-11.1-0.4-14.9-3.1C148.8,129.8,147.8,131.5,148.8,132.2L148.8,132.2z"/>
		</g>
	</g>
	<g>
		<g>
			<path d="M152.9,139.1c2.9,1.5,6.4,1.7,9.5,2.2c1.2,0.2,1.8-1.7,0.5-1.9c-3-0.4-6.4-0.6-9.1-2
				C152.7,136.9,151.7,138.6,152.9,139.1L152.9,139.1z"/>
		</g>
	</g>
	<g>
		<g>
			<path d="M93.1,134.7c5-5.5,20.4-9.3,25.9-2.6c0.8,1,2.2-0.4,1.4-1.4c-6.2-7.5-23-3.6-28.6,2.6C90.9,134.2,92.3,135.6,93.1,134.7
				L93.1,134.7z"/>
		</g>
	</g>
	<g>
		<g>
			<path d="M92.3,135.4c6.4,4.4,24.4,6.1,28.3-2.8c0.5-1.1-1.2-2.1-1.7-1c-3.4,7.8-20,5.9-25.6,2.1C92.2,133,91.2,134.7,92.3,135.4
				L92.3,135.4z"/>
		</g>
	</g>
	<g>
		<g>
			<path d="M117.1,141.1c-2.2,0.8-4.4,1.4-6.6,1.9c-1.2,0.2-0.7,2.1,0.5,1.9c2.3-0.5,4.5-1,6.6-1.9
				C118.7,142.6,118.2,140.7,117.1,141.1L117.1,141.1z"/>
		</g>
	</g>
	<g>
		<g>
			<path d="M105.7,127.8c-2.7,0.5-4.4,3.3-4.2,5.9c0.2,2.9,3.3,4.8,6.1,4.6c2.9-0.2,5.2-3.1,4.6-5.9c-0.6-3-3.5-4.3-6.3-4.2
				c-2.9,0.1-2.9,4.6,0,4.5c0.6,0,1.7-0.2,1.9,0.6c0,0,0,0.1-0.1,0.2c-0.4,0.4-0.2,0.3-0.5,0.3c-0.4,0-0.5-0.1-0.8-0.3
				c-0.3-0.1-0.4-0.3-0.4-0.2c-0.2-0.7,0.4-1.1,1-1.2C109.7,131.6,108.5,127.2,105.7,127.8L105.7,127.8z"/>
		</g>
	</g>
	<g>
		<g>
			<path d="M163.8,124.5c-2.8,1.2-5.5,4.1-4.3,7.4c1.1,3,4.8,4.3,7.7,3.6c3-0.7,5.3-3,5-6.2c-0.4-4.1-3.9-5.1-7.5-4.7
				c-1.2,0.1-2.2,0.9-2.2,2.2c0,1.1,1,2.4,2.2,2.2c0.8-0.1,2.5-0.6,2.9,0.3c0.5,0.9-0.4,1.4-1.1,1.6c-1.8,0.6-4.2-1.1-1.5-2.2
				c1.1-0.5,1.9-1.5,1.6-2.8C166.3,125,165,124,163.8,124.5L163.8,124.5z"/>
		</g>
	</g>
	<g>
		<g>
			<path d="M118.3,285.8c-0.4-11-0.3-22-1.5-32.9c-1-9.3-2.3-18.6-7.3-26.7c-0.7-1.1-2.3-0.1-1.7,1c5.4,8.7,6.6,19.3,7.4,29.3
				c0.8,9.7,0.8,19.6,1.1,29.3C116.4,287,118.3,287,118.3,285.8L118.3,285.8z"/>
		</g>
	</g>
	<g>
		<g>
			<path d="M108,212.9c2.5,5.1,6.6,9.5,9,14.7c0.5,1.1,2.2,0.2,1.7-1c-2.4-5.2-6.5-9.6-9-14.7C109.2,210.8,107.5,211.8,108,212.9
				L108,212.9z"/>
		</g>
	</g>
	<g>
		<g>
			<path d="M139.2,216.7c0.7-0.1,1.5-0.2,2.2-0.3c0.5-0.1,0.8-0.7,0.7-1.2c-0.2-0.6-0.7-0.8-1.2-0.7c-0.7,0.1-1.5,0.2-2.2,0.3
				c-0.5,0.1-0.8,0.7-0.7,1.2C138.1,216.6,138.7,216.8,139.2,216.7L139.2,216.7z"/>
		</g>
	</g>
	<g>
		<g>
			<path d="M140.5,204.2c0.5,0,0.9-0.1,1.4-0.1c0.5-0.1,1-0.4,1-1c0-0.5-0.4-1-1-1c-0.5,0-0.9,0.1-1.4,0.1c-0.5,0.1-1,0.4-1,1
				C139.5,203.7,139.9,204.2,140.5,204.2L140.5,204.2z"/>
		</g>
	</g>
</g>
</svg>
