<?xml version="1.0" encoding="utf-8"?>
<!-- Generator: Adobe Illustrator 22.1.0, SVG Export Plug-In . SVG Version: 6.00 Build 0)  -->
<svg version="1.1" xmlns="http://www.w3.org/2000/svg" xmlns:xlink="http://www.w3.org/1999/xlink" x="0px" y="0px"
	 viewBox="0 0 300 300" style="enable-background:new 0 0 300 300;" xml:space="preserve">
<style type="text/css">
	.st0{display:none;}
	.st1{display:inline;}
</style>
<g id="sarah">
	<g>
		<g>
			<path d="M74.1,116.8c0.3,8.2,1.5,16.4,2.7,24.5c1.6,11.1,1.3,22.4,2.6,33.6c1.4,12.3,8.3,22.1,16.4,31.1
				c4.9,5.5,9.9,11.1,15,16.4c4.6,4.8,9.4,7.3,16.2,8.1c6.5,0.8,14.6,0.2,20.8-2.2c4.9-1.8,11.6-5,13.2-10.4
				c0.4-1.2-1.5-1.7-1.9-0.5c-1.4,4.5-7.2,7.1-11.2,8.7c-3.8,1.6-7.9,1.9-12,2.3c-5.2,0.6-10.3,0.2-15.2-1.6
				c-4.3-1.6-7.2-4.5-10.3-7.8c-10.7-11.8-24-23.6-28.2-39.5c-1.2-4.4-1.2-9-1.5-13.6c-0.5-7-0.9-14-1.6-20.9
				c-0.8-9.4-2.7-18.8-3.1-28.3C76,115.6,74.1,115.6,74.1,116.8L74.1,116.8z"/>
		</g>
	</g>
	<g>
		<g>
			<path d="M208.6,127.3c0.1,9.7-4.7,18.2-6.2,27.6c-1.6,10-3.9,19.6-7.8,29c-3.6,8.7-8.7,17.5-15.9,23.6
				c-6.3,5.4-14.3,10.4-21.8,13.7c-1.1,0.5-0.2,2.2,1,1.7c7.5-3.3,15.2-8.2,21.6-13.5c7.5-6.2,12.7-15.1,16.6-23.9
				c4.1-9.3,6.6-19.2,8.1-29.2c1.5-9.9,6.5-18.9,6.4-29C210.6,126.1,208.6,126.1,208.6,127.3L208.6,127.3z"/>
		</g>
	</g>
	<g>
		<g>
			<path d="M117.5,225.2c-1.7-1.6-2.5-3.5-3-5.8c-0.3-1.2-2.1-0.7-1.9,0.5c0.5,2.6,1.5,4.8,3.5,6.7
				C117.1,227.5,118.5,226.1,117.5,225.2L117.5,225.2z"/>
		</g>
	</g>
	<g>
		<g>
			<path d="M162.2,37.1c-5.6,5.3-15.6,3.2-22.8,2.9c-6-0.3-12.1-0.7-17.8,1.3c-4.5,1.6-8.5,4.6-11.7,8.1c-4.2,4.5-6.1,8.9-9,14.2
				c-3,5.4-7.1,10-11.7,14.1c-3.9,3.5-8.3,7.1-10.3,12.2c-1,2.6-0.9,5.4-1,8.2c0,4-0.5,7.7-1.5,11.6c-1.8,6.9-4.7,13.3-5.9,20.3
				c-0.2,1.2,1.7,1.8,1.9,0.5c1.1-6.5,3.7-12.3,5.4-18.6c0.8-2.8,1.5-5.5,1.8-8.4c0.4-3.7-0.3-7.7,0.6-11.4
				c1.6-6.6,7.9-10.7,12.5-15.2c3.8-3.7,7.2-7.7,9.8-12.4c1.2-2.3,2.1-4.7,3.3-7c1.6-3,4.4-6,6.9-8.4c5.3-5,11.4-7.4,18.7-7.5
				c6.2-0.1,12.4,0.5,18.5,0.7c5.4,0.1,9.5,0,13.5-3.9C164.5,37.6,163.2,36.2,162.2,37.1L162.2,37.1z"/>
		</g>
	</g>
	<g>
		<g>
			<path d="M163.5,38.3c0.7,4,1.2,7,4.2,10c3.1,3,6.9,4.4,10.7,6.3c2.9,1.4,5,2.8,6.5,5.6c1.5,2.9,1.9,6.3,2.6,9.5
				c1,4.5,1.8,9,4.2,13c2.5,4.2,7.5,6.9,9,11.6c1.6,5.2,1.2,11.3,2.2,16.7c0.9,4.9,2.3,9.7,4.6,14.1c1.7,3.3,3.4,5.9,3.6,9.8
				c0.1,1.5-0.2,2.7,0.4,4.1c0.5,1.1,2.4,0.6,1.9-0.5c-0.7-1.7-0.2-3.8-0.5-5.6c-0.3-2-0.9-3.8-1.9-5.6c-2.7-5.2-4.9-10.2-6.1-16
				c-1.1-5.6-1-11.5-2.2-17.1c-0.9-4.3-3.8-6-6.7-9.1c-4-4.2-5.2-9.6-6.4-15.1c-0.9-4.1-1.1-9.1-3.8-12.5c-2.6-3.3-6.6-4.6-10.3-6.4
				c-2.6-1.2-5.1-2.7-7-4.8c-2.1-2.4-2.6-5.5-3.1-8.6C165.2,36.6,163.3,37.1,163.5,38.3L163.5,38.3z"/>
		</g>
	</g>
	<g>
		<g>
			<path d="M179.6,26.1c8.7-5.1,16.8,1.7,22.9,7.8c5,5,9.9,10.6,13.7,16.5c7,11,11.5,24.4,15,36.9c3.9,13.8,4.2,28.4,3.6,42.6
				c-0.6,15.7-2.6,31.3-5,46.8c-0.2,1.2,1.7,1.8,1.9,0.5c5.1-32.4,9.7-67.2-1.3-98.8c-4.8-14-10-26.9-19.6-38.3
				c-7.6-9-19.4-23.2-32.1-15.7C177.5,25.1,178.5,26.7,179.6,26.1L179.6,26.1z"/>
		</g>
	</g>
	<g>
		<g>
			<path d="M225.8,155.6c-0.2,0.6-0.4,1.2-0.6,1.8c-0.4,1.2,1.5,1.7,1.9,0.5c0.2-0.6,0.4-1.2,0.6-1.8
				C228,154.9,226.2,154.4,225.8,155.6L225.8,155.6z"/>
		</g>
	</g>
	<g>
		<g>
			<path d="M187.8,44.1c6.1,3.1,5.1,12.8,7.1,18.4c1.7,4.8,4.4,8.6,7.9,12.2c0.9,0.9,2.3-0.5,1.4-1.4c-5.5-5.6-8.2-11.9-9.4-19.6
				c-0.7-4.8-1.4-9-6.1-11.4C187.6,41.9,186.6,43.5,187.8,44.1L187.8,44.1z"/>
		</g>
	</g>
	<g>
		<g>
			<path d="M124.8,35.1c9.4-0.9,18,2.9,27-1.7c1.1-0.6,0.1-2.2-1-1.7c-8.6,4.3-17.1,0.6-26.1,1.4C123.6,33.3,123.5,35.2,124.8,35.1
				L124.8,35.1z"/>
		</g>
	</g>
	<g>
		<g>
			<path d="M93.9,58.4c-0.6,0.5-1.2,1-1.8,1.5c-0.4,0.3-0.3,1,0,1.4c0.4,0.4,1,0.3,1.4,0c0.6-0.5,1.2-1,1.8-1.5c0.4-0.3,0.3-1,0-1.4
				C94.9,58,94.3,58.1,93.9,58.4L93.9,58.4z"/>
		</g>
	</g>
	<g>
		<g>
			<path d="M177,29.8c1.5-6.6,1.9-12.1-4.4-16.3c-3.5-2.3-8.2-3.3-12.2-4.7c-4.5-1.6-9.1-3.2-13.8-3.6c-10.3-0.9-21.4,1.5-31.5,3.2
				c-8.3,1.4-16.9,3.5-23.7,8.8c-7.6,5.8-9.6,15-14.1,23c-4.4,7.9-10.1,14.5-13.4,23c-3.9,9.9-4.4,20.2-6.2,30.5
				c-1.6,9.3-4.9,18.3-5.5,27.8c-0.6,10.8-4,21.1,0.1,31.6c1.9,4.8,3.7,9.7,5.7,14.5c2.6,6,2.8,12.1,4.9,18.2
				c0.4,1.2,2.3,0.7,1.9-0.5c-1.3-3.9-1.4-8-2.5-12c-1.2-4.5-3.5-8.6-5.1-13c-1.3-3.6-3-7.2-4.2-10.9c-1.6-5.2-1.1-10.3-0.2-15.6
				c1.4-8.2,1.5-16.4,3.3-24.6c1.9-8.4,3.4-16.5,4.6-25c1.3-9.3,3.4-18.2,7.7-26.6c3.7-7.3,9.2-13.5,12.9-20.9
				c3.9-8,6.3-15.5,14.6-20.1c8.6-4.7,17.8-6.1,27.4-7.3c10.7-1.3,20.8-3.6,31.3-0.3c4.7,1.5,9.6,3,14.1,4.9c3.5,1.4,7,4.3,7.5,8.2
				c0.4,2.5-0.6,4.9-1.1,7.3C174.8,30.5,176.7,31,177,29.8L177,29.8z"/>
		</g>
	</g>
	<g>
		<g>
			<path d="M104,215.8c0,1.6-0.4,3-0.2,4.6c0.2,1.5,0.6,3,0.9,4.5c0.3,1.2,2.2,0.7,1.9-0.5c-0.4-1.5-0.8-3.1-0.9-4.6
				c-0.1-1.4,0.3-2.6,0.3-4C105.9,214.5,104,214.5,104,215.8L104,215.8z"/>
		</g>
	</g>
	<g>
		<g>
			<path d="M87.5,211.7c0.2,2.8,0.6,5.5,1.3,8.2c0.3,1.2,2.2,0.7,1.9-0.5c-0.6-2.5-1-5.1-1.2-7.7C89.4,210.5,87.4,210.5,87.5,211.7
				L87.5,211.7z"/>
		</g>
	</g>
	<g>
		<g>
			<path d="M73.3,212.8c0.2,0.4,0.4,0.8,0.6,1.2c0.6,1.1,2.2,0.1,1.7-1c-0.2-0.4-0.4-0.8-0.6-1.2C74.4,210.7,72.7,211.7,73.3,212.8
				L73.3,212.8z"/>
		</g>
	</g>
	<g>
		<g>
			<path d="M61.9,126.9c0,0.7,0,1.4,0,2.1c0,1.3,2,1.3,2,0c0-0.7,0-1.4,0-2.1C63.8,125.6,61.9,125.6,61.9,126.9L61.9,126.9z"/>
		</g>
	</g>
	<g>
		<g>
			<path d="M87,44c-3.5,4.9-7.1,9.7-9.9,15c-2.6,5.1-4.4,10.4-6.4,15.7c-0.4,1.2,1.5,1.7,1.9,0.5C76.7,64,81.7,54.6,88.7,45
				C89.4,44,87.8,43,87,44L87,44z"/>
		</g>
	</g>
	<g>
		<g>
			<path d="M164.7,25.9c0,1.4,0,2.8,0,4.3c0,1.3,1.9,1.3,1.9,0c0-1.4,0-2.8,0-4.3C166.7,24.6,164.7,24.6,164.7,25.9L164.7,25.9z"/>
		</g>
	</g>
	<g>
		<g>
			<path d="M168.1,32c-0.2,1.3-1,2.5-0.1,3.7c0.3,0.4,1,0.3,1.4,0c0.4-0.4,0.3-1,0-1.4c0.1,0.2,0.1,0.3,0.1,0.2c0-0.1,0-0.1,0,0
				c0-0.1,0-0.2,0-0.2c0-0.1,0.1-0.4,0.1-0.6c0.1-0.4,0.2-0.8,0.3-1.1c0.1-0.5-0.1-1-0.7-1.2C168.8,31.2,168.2,31.5,168.1,32
				L168.1,32z"/>
		</g>
	</g>
	<g>
		<g>
			<path d="M181.2,29.6c2.2-0.8,3.7,0.3,5.2,1.9c0.8,0.9,2.2-0.4,1.4-1.4c-1.8-2.1-4.3-3.4-7.1-2.4C179.5,28.1,180,30,181.2,29.6
				L181.2,29.6z"/>
		</g>
	</g>
	<g>
		<g>
			<path d="M223.9,97.8c0.7,5.2,1.4,10.4,1.5,15.6c0,1.3,2,1.3,1.9,0c-0.1-5.4-0.8-10.8-1.6-16.1C225.6,96.1,223.8,96.6,223.9,97.8
				L223.9,97.8z"/>
		</g>
	</g>
	<g>
		<g>
			<path d="M198.8,174.4c1.9,0.9,1.7,3.4,4.3,3.8c2.1,0.3,4.5-1.4,5.7-3c4.8-6.2,1-16.7,3.2-23.8c0.4-1.2-1.5-1.7-1.9-0.5
				c-1.5,5-1,10.1-1.1,15.3c0,1.1,0,2.1-0.2,3.2c0,1.5-0.4,2.8-1.3,3.9c-0.5,1.7-1.6,2.2-3.4,1.5c-3.7,0.1-2.1-0.9-4.3-2
				C198.6,172.2,197.6,173.9,198.8,174.4L198.8,174.4z"/>
		</g>
	</g>
	<g>
		<g>
			<path d="M203.1,156.1c0.8,1,1.7,1.9,2.4,2.9c0.3,0.4,1,0.3,1.4,0c0.4-0.4,0.3-1,0-1.4c-0.8-1-1.6-1.9-2.4-2.9
				c-0.3-0.4-1-0.3-1.4,0C202.7,155.1,202.8,155.7,203.1,156.1L203.1,156.1z"/>
		</g>
	</g>
	<g>
		<g>
			<path d="M205.6,154.1c0.5-0.5,1-1,1.6-1.4c1.1-0.7,0.1-2.4-1-1.7c-0.7,0.5-1.4,1-2,1.7C203.4,153.7,204.7,155,205.6,154.1
				L205.6,154.1z"/>
		</g>
	</g>
	<g>
		<g>
			<path d="M210.8,144c-1.5,8.9,0.3,17.5,3.2,25.8c0.4,1.2,2.3,0.7,1.9-0.5c-2.7-8-4.6-16.3-3.2-24.8
				C212.9,143.3,211,142.8,210.8,144L210.8,144z"/>
		</g>
	</g>
	<g>
		<path d="M158.5,98.3c-1.4,0-2.8,0-4.2,0c-1.1,0-2.3,0.2-3.4,0.3c-1.1,0.1-2.2,0.2-3.2,0.7c-1.3,0.6-2.6,1.8-3.2,3
			c-0.4,0.8-0.4,1.9,0.6,2.2c1.2,0.4,2.8,0.5,4.1,0.5c0.7,0,1.4,0.1,2.1,0c0.8-0.1,1.6-0.3,2.4-0.5c1.5-0.4,3.1-0.5,4.7-0.5
			c1.3,0,2.5-0.2,3.7-0.2c1.3,0,2.6,0,4,0c1.6,0,3.2,0,4.8,0c0.6,0,1.2-0.1,1.8,0c0.6,0.1,1.2,0.2,1.8,0.2c1.9,0,3.8,0.3,5.6,0.7
			c0.6,0.1,1.2,0.1,1.8,0.3c0.5,0.1,1.5,0.3,2.1,0.2c1.2-0.3-0.4-1.3-0.8-1.6c-1.9-1.1-4.3-1.8-6.4-2.2c-2.6-0.5-5.2-1-7.8-1.2
			c-2.4-0.2-4.7-0.4-7.1-0.7c-1.3-0.2-2.5-0.4-3.7-0.5c-0.7,0-1.4-0.3-2.1-0.4c-0.5-0.1-1.7-0.5-2.1-0.2"/>
		<g>
			<path d="M158.5,97.3c-4.2,0-12.9-0.9-14.8,4.4c-1.2,3.2,1.5,3.9,4.2,4.1c2.6,0.2,4.9-0.4,7.5-0.8c4.1-0.6,8.2-0.5,12.3-0.5
				c4.7,0,9.2,0.6,13.9,1.1c1.4,0.1,2.5,0.6,3.5-0.6c0.3-0.4,0.4-0.9,0-1.4c-3.2-3.6-9.8-4-14.3-4.6c-3.5-0.5-7-0.7-10.5-1.2
				c-2-0.3-4.3-0.9-6.3-0.8c-1.2,0.1-1.3,2,0,2c2.5-0.2,5.5,0.8,7.9,1.1c3.6,0.4,7.2,0.7,10.8,1.2c1.6,0.3,3.2,0.5,4.7,0.9
				c0.6,0.1,5.1,2.1,5.4,1.9c0,0-4.3-1-4.2-1c-1.8-0.3-2.2-0.3-4-0.4c-6.2-0.4-13-0.6-19.2,0.3c-1.1,0.2-6.7,1.9-7.4,0.8
				c1-1.5,2-2.9,3-4.4c1.1-0.1,2.2-0.2,3.4-0.3c1.4-0.1,2.8,0,4.2,0C159.7,99.3,159.7,97.4,158.5,97.3L158.5,97.3z"/>
		</g>
	</g>
	<g>
		<g>
			<path d="M148.7,125.7c4.1-2.1,6.4-6.5,10.6-8.6c3.5-1.6,8.4-2.3,12-0.6c3.3,1.6,3.8,4.7,6.5,6.7c1,0.8,2.4-0.6,1.4-1.4
				c-2.5-1.9-2.8-5.1-5.7-6.6c-2.8-1.5-6.8-2-9.9-1.5c-2.9,0.4-5.7,1.5-7.9,3.2c-2.8,2.1-4.9,5.4-8,7
				C146.6,124.6,147.6,126.3,148.7,125.7L148.7,125.7z"/>
		</g>
	</g>
	<g>
		<g>
			<path d="M148.5,125.4c4.3,1.2,9.3,1.4,13.7,1.2c5.2-0.3,10.5-2.6,15.7-2.5c1.3,0,1.3-1.9,0-2c-4.4-0.1-8.9,1.8-13.3,2.2
				c-4.8,0.5-10.9,0.5-15.6-0.8C147.8,123.2,147.3,125.1,148.5,125.4L148.5,125.4z"/>
		</g>
	</g>
	<g>
		<g>
			<path d="M88.3,128.9c4.2-0.3,8.2,1.3,12.4,1c5.1-0.4,10.1-2.4,15.2-2.6c1.3,0,1.3-2,0-2c-4.5,0.2-8.7,1.8-13.2,2.2
				c-5,0.5-9.5-1-14.4-0.7C87,127.1,87,129,88.3,128.9L88.3,128.9z"/>
		</g>
	</g>
	<g>
		<g>
			<path d="M130.3,221.5c0.1,0.2,0.1,0.4,0.1,0.6c0.1,1.3,2,1.3,1.9,0c0-0.4-0.1-0.7-0.2-1.1c-0.2-0.5-0.7-0.8-1.2-0.7
				C130.5,220.4,130.1,221,130.3,221.5L130.3,221.5z"/>
		</g>
	</g>
	<g>
		<g>
			<path d="M125.5,127.9c0.4,2.1-0.2,4.2-0.8,6.2c-0.4,1.2,1.5,1.7,1.9,0.5c0.7-2.4,1.3-4.8,0.8-7.3
				C127.2,126.2,125.3,126.7,125.5,127.9L125.5,127.9z"/>
		</g>
	</g>
	<g>
		<g>
			<path d="M143.1,163.9c2-0.1,4.3,0.8,6.2-0.3c1.5-0.9,2.4-2.4,2.6-4.1c0.1-1.2-1.8-1.2-1.9,0c-0.2,1.4-1.3,2.6-2.7,2.7
				c-1.3,0.1-2.7-0.3-4-0.2C141.9,162,141.9,164,143.1,163.9L143.1,163.9z"/>
		</g>
	</g>
	<g>
		<g>
			<path d="M112.5,157.1c-1.2,1.3-1.3,3-0.3,4.5c0.7,1,2.4,0.1,1.7-1c-0.5-0.7-0.6-1.4,0-2.1C114.7,157.6,113.3,156.2,112.5,157.1
				L112.5,157.1z"/>
		</g>
	</g>
	<g>
		<g>
			<path d="M158.6,157.8c1.4,2.9,2.4,5.7,4.5,8.3c2,2.5,4.5,4.7,7.6,5.7c1.2,0.4,1.7-1.5,0.5-1.9c-6-1.9-8.4-7.9-10.9-13.1
				C159.7,155.7,158,156.7,158.6,157.8L158.6,157.8z"/>
		</g>
	</g>
	<g>
		<g>
			<path d="M170,171.8c0,1.5,0,3.1,0,4.6c0,1.3,1.9,1.3,1.9,0c0-1.5,0-3.1,0-4.6C171.9,170.6,170,170.6,170,171.8L170,171.8z"/>
		</g>
	</g>
	<g>
		<g>
			<path d="M111,184c9.5-4.6,19-1.4,28.9-1.2c8.5,0.2,17.1-2.4,25.4-3.8c1.2-0.2,0.7-2.1-0.5-1.9c-10.2,1.7-20.1,4.6-30.5,3.3
				c-8.3-1-16.4-1.8-24.2,1.9C108.9,182.9,109.9,184.6,111,184L111,184z"/>
		</g>
	</g>
	<g>
		<g>
			<path d="M114.5,182.3c-1.5,3.9,1.5,8.5,4,11.3c3.6,4,8.2,6.2,13.6,6.1c12.7-0.2,24.9-11,32.7-20c0.8-0.9-0.6-2.3-1.4-1.4
				c-6.6,7.6-15.1,15-24.8,18.2c-4.8,1.6-10,2-14.5-0.7c-3.6-2.1-9.4-8.3-7.7-13C116.8,181.6,114.9,181.1,114.5,182.3L114.5,182.3z"
				/>
		</g>
	</g>
	<g>
		<g>
			<path d="M115.5,186.6c6.5,4.8,16.3,3.9,23.9,3.2c6.7-0.6,13.3-2.4,19.4-5.2c1.1-0.5,0.2-2.2-1-1.7c-5.3,2.4-11.1,4-16.8,4.7
				c-7.6,1-18,2.1-24.5-2.7C115.4,184.1,114.5,185.8,115.5,186.6L115.5,186.6z"/>
		</g>
	</g>
	<g>
		<g>
			<path d="M160.2,177.8c1.4,0.6,2.8,0.8,4.4,0.9c1.3,0,1.3-1.9,0-2c-1.1,0-2.3-0.1-3.4-0.6c-0.5-0.2-1-0.1-1.3,0.3
				C159.6,176.8,159.8,177.6,160.2,177.8L160.2,177.8z"/>
		</g>
	</g>
	<g>
		<g>
			<path d="M111.3,180c-0.6,0.6-1.3,1.1-1.8,1.7c-0.8,0.9,0.6,2.3,1.4,1.4c0.6-0.6,1.2-1.2,1.8-1.7
				C113.6,180.6,112.2,179.2,111.3,180L111.3,180z"/>
		</g>
	</g>
	<g>
		<g>
			<path d="M117.4,162.5c4.2,3.4,4.8,7.4,10.9,7.5c5.9,0,8.6-3.4,13-6.7c1-0.7,0-2.4-1-1.7c-3.3,2.4-6.3,5.9-10.5,6.3
				c-3.2,0.3-5.6-0.5-7.7-3.1c-1.1-1.4-2-2.6-3.4-3.7C117.9,160.4,116.5,161.7,117.4,162.5L117.4,162.5z"/>
		</g>
	</g>
	<g>
		<g>
			<path d="M235.9,126.6c1.1,3.1,3.4,5.5,4.5,8.7c1.2,3.5,1.5,7.3,1.4,11c0,7.1-1.3,14.1-2.2,21.1c-0.9,6.7-1.4,13.5-0.5,20.3
				c0.9,6.1,3.5,11.1,6.6,16.4c4.2,7.2,6.4,14.5,4.8,22.9c-1.4,7.1-4.7,14-6.9,20.9c-2.2,6.7-3.7,14.2-7.5,20.2
				c-3.3,5.3-16.8,16.9-22.5,9.1c-0.7-1-2.4,0-1.7,1c7.4,9.9,22.6-3.2,26.7-10.5c3.8-6.9,5.5-15.3,8-22.7c2.6-7.9,6.4-15.5,6.4-24
				c-0.1-7.6-3.1-13.4-6.8-19.9c-4.9-8.6-6.1-17.2-5.3-27c0.7-8.7,2.6-17.3,2.8-26.1c0.1-3.4,0-6.7-0.7-10
				c-0.9-4.5-3.8-7.5-5.2-11.8C237.3,124.9,235.5,125.4,235.9,126.6L235.9,126.6z"/>
		</g>
	</g>
	<g>
		<g>
			<path d="M194.6,247.6c-6.3-15.1-6-31.7-5.9-47.8c0-1.3-1.9-1.3-1.9,0c-0.1,16.3-0.4,33.1,6,48.3
				C193.2,249.3,195.1,248.8,194.6,247.6L194.6,247.6z"/>
		</g>
	</g>
	<g>
		<g>
			<path d="M212,249.4c2.8-6.2,4.5-11.8,3.7-18.7c-0.9-7.4-3.7-14.4-5.6-21.6c-0.3-1.2-2.2-0.7-1.9,0.5c1.5,5.5,3.5,10.9,4.7,16.5
				c1.8,8.2,0.8,14.6-2.6,22.2C209.8,249.5,211.5,250.5,212,249.4L212,249.4z"/>
		</g>
	</g>
	<g>
		<g>
			<path d="M237.1,213c-0.3-3.4-1.2-6.5-2.8-9.5c-1.5-3-7.1-9.1-5.6-12.7c0.5-1.1-1.2-2.1-1.7-1c-1.3,3-0.1,4.9,1.4,7.6
				c2.9,5,6.2,9.6,6.7,15.6C235.3,214.2,237.2,214.2,237.1,213L237.1,213z"/>
		</g>
	</g>
	<g>
		<g>
			<path d="M227.3,269.3c1.8-1.9,3-4.1,3.5-6.7c0.3-1.2-1.6-1.7-1.9-0.5c-0.5,2.2-1.5,4.1-3,5.8
				C225.1,268.9,226.4,270.3,227.3,269.3L227.3,269.3z"/>
		</g>
	</g>
	<g>
		<g>
			<path d="M54.5,157.5c7.4,16.6,3.4,37.4,1.5,54.8c-1.7,15.5-7.1,33.5,0.2,48.4c3.1,6.4,8.5,11,14,15.4c3.3,2.6,5.5,5.7,7.8,9.2
				c1.5,2.2,2.7,4.4,5.1,5.8c10.2,6,23.3-9.3,24.4-18.4c0.1-1.2-1.8-1.2-1.9,0c-0.8,7-10,18-17.5,17.8c-7-0.1-9.6-9.7-14.1-13.9
				c-5-4.7-10.6-8.2-14.4-14.1c-4.2-6.7-5.2-14.7-4.8-22.5c0.8-15,4-29.9,5.2-44.8c1-12.5,1.6-26.9-3.6-38.6
				C55.7,155.4,54,156.4,54.5,157.5L54.5,157.5z"/>
		</g>
	</g>
	<g>
		<g>
			<path d="M107.1,233.1c0.7,11.6,1,22.6,0,34.3c-0.1,1.2,1.8,1.2,1.9,0c1-11.6,0.7-22.7,0-34.3C108.9,231.8,107,231.8,107.1,233.1
				L107.1,233.1z"/>
		</g>
	</g>
	<g>
		<g>
			<path d="M70.2,238.3c-0.1,6-1.4,11.9,0,17.8c1.3,5.2,4.4,8.9,7.8,12.9c0.8,0.9,2.2-0.4,1.4-1.4c-3.7-4.3-6.8-8.3-7.7-14.1
				c-0.8-5.1,0.3-10.1,0.4-15.2C72.1,237.1,70.2,237.1,70.2,238.3L70.2,238.3z"/>
		</g>
	</g>
	<g>
		<g>
			<path d="M91.2,265.1c0.8,1,0.9,3.1,1,4.3c0.1,1.6-0.1,3.3-0.3,4.9c-0.2,1.2,1.8,1.2,1.9,0c0.4-3.1,1-8-1.3-10.6
				C91.8,262.7,90.4,264.1,91.2,265.1L91.2,265.1z"/>
		</g>
	</g>
	<g>
		<g>
			<path d="M71.2,135.6c0.1,4.6,2,9,2.2,13.6c0.2,4.7-0.7,9.4-0.6,14.1c0.1,4,0.9,11.4,6.5,8.4c1.1-0.6,0.1-2.3-1-1.7
				c-1-0.6-2-1.1-3-1.7c-0.3-1.4-0.5-2.7-0.5-4.1c-0.1-1.2,0-2.4,0-3.6c0.1-2.9,0.6-5.8,0.6-8.8c0-5.6-2.1-10.7-2.2-16.2
				C73.1,134.3,71.1,134.3,71.2,135.6L71.2,135.6z"/>
		</g>
	</g>
	<g>
		<g>
			<path d="M193.1,230.9c2,7.6,0.4,13.8-1.2,21.3c-0.9,4-1.4,8.3-0.7,12.3c1.3,8.5,7.8,12.1,15.6,13.8c1.2,0.3,1.7-1.6,0.5-1.9
				c-4.9-1.1-10-2.6-12.6-7.2c-2.3-4.1-2.1-9-1.4-13.5c0.6-4.1,2-7.9,2.6-12c0.7-4.6,0.2-8.9-0.9-13.4
				C194.6,229.1,192.7,229.6,193.1,230.9L193.1,230.9z"/>
		</g>
	</g>
	<g>
		<g>
			<path d="M205,271.4c0.8,1.7,2,3.5,3.8,4.3c0.5,0.2,1,0.1,1.3-0.3c0.2-0.4,0.1-1.1-0.3-1.3c-1.6-0.7-2.4-2.1-3.1-3.6
				C206.2,269.3,204.5,270.3,205,271.4L205,271.4z"/>
		</g>
	</g>
	<g>
		<path d="M106.7,101.9c1.4-0.1,2.8-0.2,4.2-0.3c1.1-0.1,2.3,0,3.4,0.1c1.1,0,2.2,0.1,3.3,0.4c1.3,0.5,2.7,1.6,3.4,2.8
			c0.4,0.8,0.5,1.8-0.5,2.2c-1.2,0.5-2.8,0.7-4,0.7c-0.7,0-1.4,0.2-2.1,0.1c-0.8-0.1-1.6-0.2-2.4-0.4c-1.5-0.3-3.1-0.3-4.7-0.2
			c-1.3,0.1-2.5,0-3.7,0.1c-1.3,0.1-2.6,0.2-4,0.3c-1.6,0.1-3.2,0.2-4.8,0.3c-0.6,0-1.2,0-1.8,0.1c-0.6,0.1-1.1,0.3-1.8,0.3
			c-1.9,0.1-3.7,0.6-5.5,1.1c-0.6,0.2-1.2,0.2-1.8,0.4c-0.5,0.2-1.5,0.4-2.1,0.3c-1.2-0.2,0.3-1.4,0.7-1.6c1.8-1.2,4.1-2.1,6.3-2.6
			c2.6-0.6,5.1-1.3,7.7-1.8c2.3-0.4,4.7-0.7,7-1.2c1.2-0.2,2.4-0.6,3.7-0.7c0.7-0.1,1.4-0.4,2.1-0.5c0.5-0.1,1.7-0.6,2.1-0.3"/>
		<g>
			<path d="M106.7,102.9c1.4-0.1,2.8-0.2,4.2-0.3c0.8,0,1.7,0,2.5,0c2.4-0.1,4.2,1.2,5.4,4c-1.6,1-5.4,0.3-7,0.1
				c-6.2-0.7-12.9-0.1-19.1,0.6c-1.9,0.2-7.5,2.3-9.2,1.8c1.1,0.3,4-1.7,5.4-2.1c1.3-0.4,2.6-0.7,3.8-0.9c3-0.7,6.1-1.1,9.2-1.7
				c2.9-0.5,6.3-1.9,9.3-1.9c1.3,0,1.3-1.9,0-2c-2.1,0-4.2,0.8-6.2,1.2c-3.7,0.7-7.5,1.3-11.2,2.1c-4.3,0.9-10.5,1.8-13.4,5.5
				c-0.3,0.3-0.1,0.9,0.2,1.2c1.1,1.2,2.1,0.7,3.5,0.4c4.7-0.8,9.1-1.7,13.8-2.1c3.6-0.2,7.2-0.6,10.9-0.5c3.1,0.1,5.9,0.8,9,0.4
				c2.7-0.4,5.3-1.2,4-4.3c-2.2-5.3-10.9-3.8-15.1-3.5C105.4,101,105.4,103,106.7,102.9L106.7,102.9z"/>
		</g>
	</g>
	<g>
		<g>
			<path d="M117.8,124.9c-3.8-1-6.8-4.7-10.3-6.4c-2.9-1.4-6-2.3-9.2-2c-5.6,0.6-9.8,3.6-11.3,9c-0.3,1.2,1.6,1.7,1.9,0.5
				c2.2-8.2,11.7-9,18.3-5.6c3.5,1.8,6.3,5.3,10.2,6.3C118.5,127.1,119.1,125.3,117.8,124.9L117.8,124.9z"/>
		</g>
	</g>
	<g>
		<g>
			<path d="M173.5,184.6c-1.2,2.1-2.8,4-4.5,5.7c-0.9,0.9,0.5,2.3,1.4,1.4c1.8-1.9,3.5-3.9,4.8-6.1
				C175.8,184.5,174.1,183.5,173.5,184.6L173.5,184.6z"/>
		</g>
	</g>
	<g>
		<g>
			<path d="M96.7,191.5c1.8,3.5,4.6,6.3,7.4,9c0.9,0.9,2.3-0.5,1.4-1.4c-2.7-2.6-5.4-5.2-7.1-8.6C97.8,189.4,96.1,190.4,96.7,191.5
				L96.7,191.5z"/>
		</g>
	</g>
	<g>
		<g>
			<path d="M185.9,132.8c0.9,0.7,1.7,1.5,2.6,2.2c0.4,0.3,1.1,0.1,1.3-0.3c0.3-0.5,0.1-1-0.3-1.3c-0.9-0.7-1.7-1.5-2.6-2.2
				c-0.4-0.3-1.1-0.1-1.3,0.3C185.3,132,185.5,132.5,185.9,132.8L185.9,132.8z"/>
		</g>
	</g>
	<g>
		<g>
			<path d="M101.3,117.2c-3.3-0.6-7.2,1.5-7.8,5c-0.7,3.7,2.5,7.2,6.2,6.9c3.4-0.2,7.5-2.9,7.1-6.7c-0.4-4.1-5.8-5.6-9.2-5.1
				c-1.2,0.2-1.9,1.7-1.6,2.8c0.3,1.3,1.6,1.7,2.8,1.6c0.7-0.1,3.3,0.3,3.5,1.3c0.1,0.8-2.2,1.6-2.7,1.6c-2.7,0.3-1.8-3.4,0.5-3.1
				C103,122.1,104.2,117.7,101.3,117.2L101.3,117.2z"/>
		</g>
	</g>
	<g>
		<g>
			<path d="M160.5,114.2c-2.9,1.4-6.1,4.7-4.6,8.3c1.2,2.9,5.1,4.6,8.1,3.9c3.1-0.7,6.5-3.8,5.9-7.3c-0.6-3.3-4.5-5.1-7.5-5.2
				c-2.9-0.1-2.9,4.4,0,4.5c0.9,0,2.7,0.4,3,1.5c-0.1-0.4-0.3,0.6-0.5,0.9c-0.4,0.6-1.2,1-1.9,1.1c-0.7,0.2-2.7-0.2-3-1.1
				c-0.4-1.2,2-2.4,2.7-2.7C165.4,116.8,163.1,112.9,160.5,114.2L160.5,114.2z"/>
		</g>
	</g>
	<g>
		<g>
			<path d="M127.9,175.2c0.4-0.9,0.5-1.8,0.6-2.8c0-1.3-1.9-1.3-2,0c0,0.6,0,1.3-0.3,1.9c-0.2,0.5-0.1,1,0.3,1.3
				C127,175.8,127.7,175.6,127.9,175.2L127.9,175.2z"/>
		</g>
	</g>
</g>
<g id="tyler" class="st0">
	<g class="st1">
		<g>
			<path d="M139.6,182.2c5.1,0.8,9.2,4.6,14.3,4.9c2.2,0.1,4.4-0.4,6.4-1.2c2.4-0.9,4.8-2.9,7.3-3.2c1.2-0.2,1.2-2.1,0-1.9
				c-4.8,0.6-8.3,4.7-13.6,4.3c-4.9-0.3-9-4-13.9-4.8C138.9,180.1,138.4,182,139.6,182.2L139.6,182.2z"/>
		</g>
	</g>
	<g class="st1">
		<g>
			<path d="M172.7,182.4c2.5-0.4,5.1-2.1,6.1-4.5c0.5-1.1-1.2-2.1-1.7-1c-0.9,2-2.9,3.2-5,3.6C171,180.8,171.5,182.6,172.7,182.4
				L172.7,182.4z"/>
		</g>
	</g>
	<g class="st1">
		<g>
			<path d="M141.8,165.1c-1.2,2.4-2.3,4.5-1.9,7.3c0.2,1.2,2.1,1.2,1.9,0c-0.3-2.5,0.5-4.2,1.6-6.3C144.1,165,142.4,164,141.8,165.1
				L141.8,165.1z"/>
		</g>
	</g>
	<g class="st1">
		<g>
			<path d="M145.1,135.8c0.9,1.6,1.6,3,1.7,4.9c0,1.7-0.4,3.5-0.8,5.2c-0.2,1.2,1.6,1.8,1.9,0.5c0.4-2.1,1-4.3,0.8-6.5
				c-0.1-1.9-1-3.5-1.9-5.1C146.2,133.7,144.5,134.7,145.1,135.8L145.1,135.8z"/>
		</g>
	</g>
	<g class="st1">
		<g>
			<path d="M169.9,141.3c5.7-2.4,10.9-6.2,16.9-7.8c4.5-1.2,8.6-1,12.5,2c1.6,1.3,2.8,2.2,4.7,3.1c1.1,0.5,2.1-1.1,1-1.7
				c-6-2.9-8.7-7.1-16-6c-7.4,1.1-13.4,5.8-20.1,8.6C167.8,140.1,168.8,141.8,169.9,141.3L169.9,141.3z"/>
		</g>
	</g>
	<g class="st1">
		<g>
			<path d="M168.4,142.1c3.8,1.6,8.3,1.8,12.4,2.5c3.7,0.6,7.1,1,10.8,0.9c4.8-0.1,10.8-1.8,14.1-5.5c0.8-0.9-0.5-2.3-1.4-1.4
				c-3.6,4.1-10.5,5.1-15.6,5c-6-0.1-14.2-1-19.8-3.3C167.8,139.7,167.3,141.6,168.4,142.1L168.4,142.1z"/>
		</g>
	</g>
	<g class="st1">
		<g>
			<path d="M125.4,206c6.2,0.5,10.8,7.1,16.5,9.4c5.6,2.3,12.4,2.7,18.3,2.2c9.5-0.8,21.1-4.8,27.4-12.3c0.8-1-0.6-2.3-1.4-1.4
				c-7.2,8.5-20.7,12.3-31.4,11.8c-6.8-0.3-12.6-1.7-18.2-5.7c-3.7-2.7-6.5-5.5-11.2-6C124.1,204,124.1,205.9,125.4,206L125.4,206z"
				/>
		</g>
	</g>
	<g class="st1">
		<g>
			<path d="M187.9,178.6c1.2,1.1,2.4,2.2,3.2,3.6c0.8,1.3,1.5,2.6,2.2,4c0.5,1.1,2.2,0.1,1.7-1c-1.5-3.1-3.2-5.6-5.7-8
				C188.4,176.4,187,177.8,187.9,178.6L187.9,178.6z"/>
		</g>
	</g>
	<g class="st1">
		<g>
			<path d="M119,180.8c-1.3,1.2-2.9,2.1-4.3,3.1c-1,0.7-0.1,2.4,1,1.7c1.6-1.1,3.3-2.1,4.7-3.4C121.3,181.3,119.9,179.9,119,180.8
				L119,180.8z"/>
		</g>
	</g>
	<g class="st1">
		<g>
			<path d="M99.8,200.4c-0.2,2.7-0.4,5.4,0.3,8.1c0.3,1.2,2.2,0.7,1.9-0.5c-0.6-2.5-0.4-5-0.2-7.6
				C101.8,199.2,99.9,199.2,99.8,200.4L99.8,200.4z"/>
		</g>
	</g>
	<g class="st1">
		<g>
			<path d="M208.2,247.3c10-10.4,16.9-24.2,18.7-38.6c0.9-6.9,0.8-14,0.8-20.9c0-4.4-0.1-8.7-0.3-13.1c-0.2-3.1-1.5-7.5-0.7-10.4
				c0.3-1.2-1.6-1.7-1.9-0.5c-0.6,2.3,0.3,4.8,0.4,7.2c0.3,3.7,0.5,7.5,0.6,11.2c0.2,7.3,0,14.8-0.4,22.1
				c-0.8,15.5-7.8,30.5-18.5,41.6C206,246.8,207.4,248.2,208.2,247.3L208.2,247.3z"/>
		</g>
	</g>
	<g class="st1">
		<g>
			<path d="M93.9,227.2c6.8,15.2,8.1,31.5,7.9,48c0,1.3,1.9,1.3,2,0c0.2-16.8-1.2-33.4-8.2-49C95,225,93.4,226,93.9,227.2
				L93.9,227.2z"/>
		</g>
	</g>
	<g class="st1">
		<g>
			<path d="M222.5,222.4c-0.1,0-0.1,0-0.2,0c-0.5,0-1,0.5-1,1c-0.1,5.5-0.6,10.9-0.7,16.3c-0.1,5.7,1.4,12.7,0,18.3
				c-0.3,1.2,1.6,1.7,1.9,0.5c1.3-5.2,0-11.5,0.1-16.9c0-3.1,0.1-6.2,0.3-9.3c0.1-1.4,1.1-7.9-0.3-7.9
				C223.7,224.4,223.7,222.5,222.5,222.4L222.5,222.4z"/>
		</g>
	</g>
	<g class="st1">
		<g>
			<path d="M230.5,140.3c1.3-4.3,7.2,1.3,8,2.7c1.2,2.2,1.7,5.3,1.8,7.7c0.2,3.9,0,7.9-0.3,11.8c-0.2,4.3,0.2,8.4,0.3,12.7
				c0.2,5.9-6,14.9-13.1,10.9c-1.1-0.6-2.1,1.1-1,1.7c4.5,2.6,11-0.3,13.8-4.3c2.2-3,2.4-6.4,2-9.9c-0.5-4.9-0.1-9.7,0-14.6
				c0.1-6.2,1.1-14.5-3.6-19.5c-2.5-2.7-8.6-4.2-10,0.2C228.2,141,230.1,141.5,230.5,140.3L230.5,140.3z"/>
		</g>
	</g>
	<g class="st1">
		<g>
			<path d="M230.9,156.9c2.7,2.7,4.2,6.3,3.8,10.2c-0.1,1.2,1.8,1.2,1.9,0c0.5-4.4-1.3-8.5-4.3-11.5
				C231.3,154.7,230,156,230.9,156.9L230.9,156.9z"/>
		</g>
	</g>
	<g class="st1">
		<g>
			<path d="M234.3,158.4c1.7-2.1,2.6-4.5,3.5-7c0.5-1.2-1.4-1.7-1.9-0.5c-0.8,2.1-1.6,4.3-3,6.1C232.1,158,233.5,159.4,234.3,158.4
				L234.3,158.4z"/>
		</g>
	</g>
	<g class="st1">
		<g>
			<path d="M83.4,192.7c-10-2.4-14-14.1-15.5-23c-0.9-5.1-1-10,0.3-15c0.6-2.3,1.3-5.9,2.9-7.6c3-3.1,6-2.1,8.2,1.4
				c0.7,1.1,2.3,0.1,1.7-1c-1.9-3.1-6.2-7-9.9-4c-4,3.3-5.4,12-5.7,16.7c-0.8,12,3.9,31.2,17.5,34.4
				C84.1,194.8,84.6,192.9,83.4,192.7L83.4,192.7z"/>
		</g>
	</g>
	<g class="st1">
		<g>
			<path d="M78.1,158c-1.6-0.1-3,0.1-4.2,1.2c-1.3,1.1-2,2.6-2.7,4.1c-0.6,1.1,1.1,2.1,1.7,1c0.5-1.1,1-2.3,1.9-3.2
				c0.9-1.1,2-1.2,3.4-1.1C79.3,160,79.3,158.1,78.1,158L78.1,158z"/>
		</g>
	</g>
	<g class="st1">
		<g>
			<path d="M77.8,158c0-1.8-1.3-3-2.2-4.5c-0.6-1.1-2.3-0.1-1.7,1c0.6,1.1,1.9,2.2,1.9,3.5C75.8,159.3,77.8,159.3,77.8,158L77.8,158
				z"/>
		</g>
	</g>
	<g class="st1">
		<g>
			<path d="M78,159.3c-0.6,1.4-1.2,2.8-1.6,4.3c-0.3,1.2,1.5,1.7,1.9,0.5c0.4-1.3,0.9-2.6,1.4-3.8C80.2,159.1,78.5,158.1,78,159.3
				L78,159.3z"/>
		</g>
	</g>
	<g class="st1">
		<g>
			<path d="M226.8,138.8c0,0.8,0,1.7,0,2.5c0,1.3,1.9,1.3,1.9,0c0-0.8,0-1.7,0-2.5C228.7,137.6,226.8,137.6,226.8,138.8L226.8,138.8
				z"/>
		</g>
	</g>
	<g class="st1">
		<g>
			<path d="M85.6,87.9c1.1,0.8,1.6,4.6,1.8,5.9c0.5,2.6,0.6,5.3,0.5,7.9c-0.1,6.5-2.4,12.5-3.6,18.8c-1.8,9-3.2,18.9-1.7,28
				c0.2,1.2,2.1,0.7,1.9-0.5c-2.2-12.6,1.5-25.5,4.3-37.7c1.2-5.2,1.4-10.5,0.7-15.8c-0.3-2.5-0.7-6.6-2.9-8.2
				C85.6,85.5,84.6,87.2,85.6,87.9L85.6,87.9z"/>
		</g>
	</g>
	<g class="st1">
		<g>
			<path d="M216.2,60.2c-4.7,3-13.5-0.4-18.2-2.1c-5.2-1.9-10.1-4.3-15.4-5.9c-9.8-2.8-20-1.4-29.5,1.9c-10.5,3.7-19.8,10-30.1,14.1
				c-10.7,4.3-21.5,8.2-32.9,10.1c-1.2,0.2-0.7,2.1,0.5,1.9c11.4-1.9,22.2-5.8,32.9-10.1c10.8-4.3,20.6-11,31.7-14.7
				c12.1-3.9,23.2-3.1,34.9,1.7c5.2,2.1,10.4,4.3,15.9,5.3c3.4,0.6,8,1.4,11-0.5C218.2,61.2,217.2,59.5,216.2,60.2L216.2,60.2z"/>
		</g>
	</g>
	<g class="st1">
		<g>
			<path d="M222.2,62.9c1.7,0.9,3.6,1,5.5,1.1c1.6,0.1,2.9-0.1,3.9-1.5c0.8-1-0.9-2-1.7-1c-0.7,0.9-2.2,0.5-3.2,0.4
				c-1.2-0.1-2.4-0.2-3.6-0.8C222.1,60.7,221.1,62.4,222.2,62.9L222.2,62.9z"/>
		</g>
	</g>
	<g class="st1">
		<g>
			<path d="M233.7,60.3c-1.1-3.4-0.5-6.6-2.1-9.9c-1.7-3.3-4.3-6.2-7.1-8.7c-6-5.3-13.4-9.3-20.6-12.7
				c-15.3-7.3-33.6-12.5-50.7-10.8c-16.5,1.7-33.9,7.9-47.4,17.5C91.6,45.9,82.6,60.2,75.7,76c-0.5,1.1,1.2,2.1,1.7,1
				c6.6-14.9,14.8-28.6,28.1-38.5c12.9-9.7,29.3-15.6,45.3-17.9c16.6-2.4,34.7,2.2,49.8,9c7.1,3.2,14.2,6.9,20.3,11.6
				c3.2,2.5,6.3,5.4,8.4,8.9c2.2,3.7,1.5,7,2.7,10.8C232.3,62,234.1,61.5,233.7,60.3L233.7,60.3z"/>
		</g>
	</g>
	<g class="st1">
		<g>
			<path d="M80.8,75.3c-3.5,0.6-6.2,6.3-7.4,9.2c-2,4.9-2.8,10.3-3.4,15.5c-0.7,6.2-0.7,12.2-0.6,18.5c0.1,6.1,1.8,11.9,2,17.8
				c0,1.3,2,1.3,1.9,0c-0.1-4.4-1.4-8.7-1.8-13.2c-0.4-4.9-0.6-10.1-0.3-15c0.3-5.4,0.8-10.8,2-16.1c0.7-3.1,1.5-6.1,2.9-8.9
				c1-1.9,2.8-5.6,5.2-6C82.6,76.9,82.1,75.1,80.8,75.3L80.8,75.3z"/>
		</g>
	</g>
	<g class="st1">
		<g>
			<path d="M106.6,57.5c8,2.8,14.8,2.1,23,0c1.2-0.3,0.7-2.2-0.5-1.9c-7.8,2-14.3,2.7-21.9,0C105.9,55.2,105.4,57,106.6,57.5
				L106.6,57.5z"/>
		</g>
	</g>
	<g class="st1">
		<g>
			<path d="M131.6,48.2c11.5,0.7,22.8-2,34.3-2c1.3,0,1.3-2,0-2c-11.5,0-22.8,2.7-34.3,2C130.3,46.1,130.3,48.1,131.6,48.2
				L131.6,48.2z"/>
		</g>
	</g>
	<g class="st1">
		<g>
			<path d="M163.6,32.9c5.6,3.5,11.7,4.8,18.1,6.3c3.7,0.9,7.5,1.8,10.7,3.9c4.3,2.8,6.5,6.9,8.9,11.2c0.6,1.1,2.3,0.1,1.7-1
				c-3.6-6.4-7-11.3-14.1-14.1c-8.1-3.2-16.9-3.2-24.4-8C163.6,30.5,162.6,32.2,163.6,32.9L163.6,32.9z"/>
		</g>
	</g>
	<g class="st1">
		<g>
			<path d="M212.8,46.9c1.2,2.1,1.7,4.2,1.6,6.6c0,1.3,1.9,1.3,1.9,0c0-2.7-0.5-5.2-1.9-7.6C213.8,44.8,212.1,45.8,212.8,46.9
				L212.8,46.9z"/>
		</g>
	</g>
	<g class="st1">
		<g>
			<path d="M214.5,68.9c3.4,5,7.4,10.2,9.3,16c2.1,6.1,1.5,12.6,1.1,18.9c-0.7,9.7-2.6,22,2.2,31c0.6,1.1,2.3,0.1,1.7-1
				c-3.1-5.8-2.7-12.5-2.4-18.8c0.2-6.2,0.9-12.4,0.9-18.5c0.1-11.4-5-19.4-11.1-28.6C215.5,66.9,213.8,67.8,214.5,68.9L214.5,68.9z
				"/>
		</g>
	</g>
	<g class="st1">
		<g>
			<path d="M230.9,64.3c5.4,4.3,7.4,12.3,9,18.7c1.7,6.5,1.9,13.2,1.1,19.9c-0.8,6.6-1.7,12.8-3.4,19.2c-1.4,5.1-2,10.7-2.2,16
				c0,1.3,1.9,1.3,1.9,0c0.3-7,1.9-13.7,3.6-20.4c1.6-6.4,2.3-13.8,2.5-20.3c0.2-6.4-0.9-12.8-2.9-18.9c-1.8-5.6-3.5-11.7-8.3-15.6
				C231.3,62.1,229.9,63.5,230.9,64.3L230.9,64.3z"/>
		</g>
	</g>
	<g class="st1">
		<g>
			<path d="M222.5,65.3c2.3,1.9,3.7,4.4,4.8,7.1c0.5,1.1,2.4,0.6,1.9-0.5c-1.2-3-2.7-5.9-5.3-8C222.9,63.1,221.5,64.5,222.5,65.3
				L222.5,65.3z"/>
		</g>
	</g>
	<g class="st1">
		<g>
			<path d="M235.1,102.5c-0.2,1.1-0.3,2.2-0.3,3.3c0,1.3,1.9,1.3,1.9,0c0-0.9,0.1-1.9,0.2-2.8c0.1-0.5-0.1-1-0.7-1.2
				C235.9,101.6,235.2,101.9,235.1,102.5L235.1,102.5z"/>
		</g>
	</g>
	<g class="st1">
		<path d="M97.3,130.4c-0.1-0.5,0.3-0.9,0.5-1.3c0.3-0.6,0.7-1.2,1.2-1.6c0.6-0.6,1.4-1.3,2.1-1.7c0.7-0.4,1.5-0.7,2.2-1.1
			c2.3-1.3,4.8-2.3,7.3-3.2c1.4-0.4,2.6-1.2,4-1.5c1-0.3,1.9-0.6,2.9-0.9c2.3-0.8,4.9-1.2,7.3-1.7c1.8-0.4,3.6-0.4,5.3,0
			c0.9,0.2,1.7,0.8,2.5,1.2c0.4,0.3,0.9,0.5,1.2,0.9c0.5,0.5,1.1,1.4,1.2,2.2c0.1,0.8-0.8,1.2-1.5,1.4c-1.4,0.5-3.1,0.6-4.6,0.7
			c-4.2,0.4-8.4,0.7-12.5,1.6c-4.1,0.9-8.3,1.4-12.3,2.7c-1.5,0.5-3,1.2-4.4,1.9c-0.6,0.3-1.2,0.5-1.7,0.9c-0.4,0.3-0.6,0.7-1.1,0.7
			"/>
		<g>
			<path d="M98.3,130.6c1.1-5.2,11.2-7.8,15.4-9.3c2.8-1,5.6-1.9,8.5-2.5c2.2-0.5,7.6-1.8,8.8-0.1c1.5,0.4,1.7,1.1,0.4,2.3
				c-0.2,1.5-1,2.1-2.4,1.7c-2.4,0.9-5.7,0.5-8.3,0.9c-3.3,0.5-6.5,1.2-9.7,1.8c-3,0.6-5.9,1.1-8.7,2.3c-1.9,0.7-3.6,2.1-5.5,2.8
				c-1.2,0.4-0.7,2.3,0.5,1.9c3.6-1.4,6.8-3.4,10.7-4.3c5.7-1.3,11.6-2.4,17.5-3c3-0.3,14.9-0.5,9.1-6.4c-5.4-5.5-15.6-1.3-21.6,0.8
				c-4.9,1.8-15.2,4.4-16.5,10.6C96.1,131.4,98,131.9,98.3,130.6L98.3,130.6z"/>
		</g>
	</g>
	<g class="st1">
		<path d="M180.3,115.4c-0.6,0-1.1-0.3-1.7-0.4c-0.7-0.1-1.4,0-2.1,0.2c-2.1,0.5-4,1.5-5.7,2.7c-1.3,0.9-2.3,2-2.6,3.6
			c-0.2,1,0.2,1.7,1.2,2c0.9,0.2,1.7,0.2,2.6,0.1c0.7,0,1.5,0,2.2,0c0.8,0,1.5-0.2,2.3-0.2c0.8,0,1.7-0.2,2.5-0.3
			c3.1-0.3,6.2-0.9,9.3-1.2c1.5-0.1,2.8-0.3,4.3-0.1c1.1,0.1,2.1,0,3.2,0c1.9,0,3.7,0.5,5.6,0.9c1.6,0.3,3.2,0.9,4.9,1
			c0.6,0.1,2.3,0.4,2.5-0.4c0.3-1-1.7-1.9-2.3-2.3c-0.7-0.4-1.5-0.9-2.3-1.3c-0.8-0.3-1.6-0.5-2.4-0.8c-2-0.8-4-1.4-6.1-1.9
			c-2.5-0.6-5-0.9-7.6-1.2c-2.7-0.2-5.3-0.7-7.9-0.9"/>
		<g>
			<path d="M180.6,114.4c-4.2-1-9.7,0.9-12.3,4.5c-2.1,3-0.9,5.3,2.4,5.7c6.8,0.8,13.7-1.8,20.5-1.8c4.5,0,8.8,0.9,13.2,1.7
				c1.7,0.3,3.5,0.8,4.9-0.2c0.4-0.3,0.5-0.6,0.4-1.1c-0.7-3.3-6.5-4.7-9.2-5.6c-6.6-2.2-13.6-2.9-20.4-3.4c-1.3-0.1-1.2,1.9,0,2
				c7,0.5,14,1.3,20.7,3.6c0.4,0.1,6.8,2.2,6.4,3.2c-0.2,0.4-8.7-1.7-9.5-1.8c-6.3-0.8-12.4,0.4-18.6,1.1c-2.1,0.2-4.9,1-7,0.5
				c-0.4,0-0.9,0-1.3,0c-1-2.4-0.4-4,1.9-4.8c2.3-1.4,4.6-2.2,7.4-1.6C181.3,116.6,181.8,114.7,180.6,114.4L180.6,114.4z"/>
		</g>
	</g>
	<g class="st1">
		<g>
			<path d="M142.2,225.3c8.9,3.7,19.6,1,28.8-0.5c1.2-0.2,0.7-2.1-0.5-1.9c-8.8,1.4-19.2,4.1-27.8,0.5
				C141.5,223,141,224.9,142.2,225.3L142.2,225.3z"/>
		</g>
	</g>
	<g class="st1">
		<g>
			<path d="M196.5,195.9c0,0.3,0,0.5,0,0.8c0,1.3,1.9,1.3,1.9,0c0-0.3,0-0.5,0-0.8C198.4,194.6,196.5,194.6,196.5,195.9L196.5,195.9
				z"/>
		</g>
	</g>
	<g class="st1">
		<g>
			<path d="M157.6,241c0.8,0,1.7,0,2.5,0c1.3,0,1.3-1.9,0-1.9c-0.8,0-1.7,0-2.5,0C156.3,239.1,156.3,241,157.6,241L157.6,241z"/>
		</g>
	</g>
	<g class="st1">
		<g>
			<path d="M131.6,176.7c-1.2,1.1-1.1,3.2-0.2,4.4c1,1.4,2.6,1.9,4.2,2.3c1.2,0.3,1.7-1.6,0.5-1.9c-0.9-0.2-1.9-0.4-2.6-1
				c-0.6-0.5-1.2-1.7-0.5-2.4C133.9,177.3,132.6,175.9,131.6,176.7L131.6,176.7z"/>
		</g>
	</g>
	<g class="st1">
		<g>
			<path d="M79.6,161c0.2,9.8,3.3,19.3,3.7,29.1c0.4,7.7,0.1,15.4,2.8,22.8c5.4,15.1,18.2,25.5,30.2,35.3
				c11.9,9.7,22.3,22.3,38.4,25c8,1.3,17,1.2,24.7-1.7c3.6-1.3,6.9-3.1,10-5.4c2-1.4,4.8-2.5,5.8-4.8c0.5-1.1-1.2-2.1-1.7-1
				c-1,2.2-7.2,5.7-9.1,6.8c-3.3,1.9-7,3.3-10.8,4.1c-8.5,1.6-17.8,1.1-25.8-2c-7.2-2.8-13.5-7.1-19.1-12.3c-5.4-5-11-9.7-16.6-14.4
				c-10.9-9.2-22.6-20.3-25.7-34.9c-1.5-6.9-0.5-14.1-1.4-21c-1.1-8.4-3.3-16.9-3.4-25.4C81.5,159.8,79.6,159.8,79.6,161L79.6,161z"
				/>
		</g>
	</g>
	<g class="st1">
		<g>
			<path d="M121,275.6c2.8,3.2,6.5,4.9,10.3,6.7c1.1,0.5,2.1-1.1,1-1.7c-3.6-1.7-7.2-3.4-9.9-6.4C121.6,273.3,120.2,274.6,121,275.6
				L121,275.6z"/>
		</g>
	</g>
	<g class="st1">
		<g>
			<path d="M165.2,288c2.8-0.2,5.4-0.8,8.1-1.5c1.2-0.3,0.7-2.2-0.5-1.9c-2.5,0.7-5,1.3-7.6,1.5C163.9,286.1,163.9,288.1,165.2,288
				L165.2,288z"/>
		</g>
	</g>
	<g class="st1">
		<g>
			<path d="M95.5,99.2c0,1.2,0,2.4,0,3.5c0,1.3,2,1.3,2,0c0-1.2,0-2.4,0-3.5C97.5,97.9,95.5,97.9,95.5,99.2L95.5,99.2z"/>
		</g>
	</g>
	<g class="st1">
		<g>
			<path d="M213.7,84c0.2,1.5,0.5,2.9,1,4.3c0.4,1.2,2.3,0.7,1.9-0.5c-0.5-1.2-0.8-2.5-1-3.8C215.5,82.8,213.5,82.8,213.7,84
				L213.7,84z"/>
		</g>
	</g>
	<g class="st1">
		<g>
			<path d="M124.3,28.5c4.4-0.3,8.7-0.5,13.1,0c1.2,0.2,1.2-1.8,0-1.9c-4.4-0.5-8.7-0.3-13.1,0C123,26.6,123,28.5,124.3,28.5
				L124.3,28.5z"/>
		</g>
	</g>
	<g class="st1">
		<g>
			<path d="M103.8,44.6c4-1.3,8.1-2.4,12.1-3.5c1.2-0.3,0.7-2.2-0.5-1.9c-4.1,1.1-8.1,2.3-12.1,3.5C102.1,43.1,102.6,45,103.8,44.6
				L103.8,44.6z"/>
		</g>
	</g>
	<g class="st1">
		<g>
			<path d="M195.8,29.2c2,2,4.2,3.8,6.1,6.1c0.8,1,2.2-0.4,1.4-1.4c-1.8-2.2-4-4-6.1-6.1C196.3,26.9,194.9,28.3,195.8,29.2
				L195.8,29.2z"/>
		</g>
	</g>
	<g class="st1">
		<g>
			<path d="M78.4,120.6c0.2,0.8,0.3,1.7,0.5,2.5c0.1,0.5,0.7,0.8,1.2,0.7c0.5-0.1,0.8-0.7,0.7-1.2c-0.2-0.8-0.3-1.7-0.5-2.5
				c-0.1-0.5-0.7-0.8-1.2-0.7C78.5,119.6,78.3,120.1,78.4,120.6L78.4,120.6z"/>
		</g>
	</g>
	<g class="st1">
		<g>
			<path d="M125.4,206.2c11.1-0.3,22.4,1.6,33.4,0.9c4.3-0.3,8.7-0.8,13-1.3c5.3-0.7,11.2-0.6,16.3-2c-0.3-0.6-0.5-1.2-0.8-1.8
				c-0.1,0-0.1,0.1-0.2,0.1c-1,0.7-0.1,2.4,1,1.7c0.1,0,0.1-0.1,0.2-0.1c0.9-0.6,0.4-2.1-0.8-1.8c-4.8,1.4-10.4,1.1-15.4,1.9
				c-4.8,0.7-9.6,1.3-14.4,1.5c-10.8,0.5-21.6-1.3-32.4-1C124.1,204.3,124.1,206.2,125.4,206.2L125.4,206.2z"/>
		</g>
	</g>
	<g class="st1">
		<g>
			<path d="M191.7,131.9c-3-1.4-6.7-0.4-8.9,2.1c-2.5,3-2.1,8.1,1.5,10c3.1,1.7,8.7,0.9,10.6-2.3C197,138.3,194.7,134,191.7,131.9
				c-2.6-1.7-5,2.4-2.4,4.1c0.7,0.4,2.2,2.2,1.7,3.1c-0.5,1-3.3,1.3-4.2,0.7c-2.1-1.3,0.7-4.7,2.6-3.8
				C192,137.3,194.5,133.2,191.7,131.9z"/>
		</g>
	</g>
	<g class="st1">
		<g>
			<path d="M150.5,194.6c0,1.3-0.1,2.6,0.3,3.9c0.4,1.2,2.3,0.7,1.9-0.5c-0.4-1.1-0.3-2.2-0.3-3.3
				C152.4,193.4,150.5,193.4,150.5,194.6L150.5,194.6z"/>
		</g>
	</g>
	<g class="st1">
		<g>
			<path d="M97.7,142.8c-1.3,0.5-2.5,1.2-3.6,1.9c-1.1,0.6-0.1,2.3,1,1.7c1-0.6,2.1-1.2,3.2-1.7c0.5-0.2,0.8-0.6,0.7-1.2
				C98.8,143.1,98.2,142.6,97.7,142.8L97.7,142.8z"/>
		</g>
	</g>
	<g class="st1">
		<g>
			<path d="M210.6,139.5c1.5-0.7,3.3-0.9,4.9-1.4c1.2-0.3,0.7-2.2-0.5-1.9c-1.8,0.5-3.6,0.8-5.3,1.6
				C208.5,138.4,209.5,140.1,210.6,139.5L210.6,139.5z"/>
		</g>
	</g>
	<g class="st1">
		<g>
			<path d="M196.7,148.9c2.9,0,5,0.8,7.5,2.3c1.1,0.7,2-1,1-1.7c-2.7-1.7-5.2-2.6-8.4-2.6C195.5,147,195.4,149,196.7,148.9
				L196.7,148.9z"/>
		</g>
	</g>
	<g class="st1">
		<g>
			<path d="M137.2,139.1c-6.6-2-12.8-5.7-19.8-6c-6.8-0.3-9.2,4.1-14.4,7.3c-1.1,0.7-0.1,2.3,1,1.7c1.8-1.1,2.7-2,4.2-3.5
				c3.5-3.3,7.8-4,12.4-3.1c5.7,1.1,10.7,3.9,16.2,5.5C137.9,141.3,138.4,139.4,137.2,139.1L137.2,139.1z"/>
		</g>
	</g>
	<g class="st1">
		<g>
			<path d="M137.2,139.8c-4.5,2.5-11,3.8-16,4.8c-5.4,1.1-13,1.3-17.3-2.7c-0.9-0.8-2.3,0.5-1.4,1.4c4.3,3.9,10.6,4.3,16,3.6
				c6.3-0.8,14.2-2.4,19.8-5.4C139.3,140.9,138.3,139.2,137.2,139.8L137.2,139.8z"/>
		</g>
	</g>
	<g class="st1">
		<g>
			<path d="M122.2,133.6c-3.2-1.5-7.2-0.4-9.4,2.4c-2.5,3.2-1.9,8.4,1.9,10.3c3.3,1.6,9,0.8,11-2.6
				C127.7,140.1,125.3,135.6,122.2,133.6c-2.6-1.7-5,2.4-2.4,4.1c0.8,0.5,2.2,2.3,1.8,3.3c-0.5,1.2-3.4,1.5-4.5,1
				c-2.7-1.3,0.5-5.4,2.7-4.3C122.6,139,125,134.9,122.2,133.6z"/>
		</g>
	</g>
	<g class="st1">
		<g>
			<path d="M173.3,148.5c2.9,0.7,5.7,1.2,8.6,1.5c1.2,0.1,1.2-1.8,0-1.9c-2.7-0.3-5.4-0.8-8.1-1.4
				C172.6,146.3,172.1,148.2,173.3,148.5L173.3,148.5z"/>
		</g>
	</g>
	<g class="st1">
		<g>
			<path d="M102,158.3c1.5-2.2,4-3.1,6.4-4c1.2-0.4,0.7-2.3-0.5-1.9c-3,1-5.8,2.2-7.6,4.9C99.6,158.4,101.3,159.3,102,158.3
				L102,158.3z"/>
		</g>
	</g>
</g>
</svg>
